<?xml version="1.0" encoding="UTF-8"?>
<!DOCTYPE svg PUBLIC "-//W3C//DTD SVG 1.1//EN" "http://www.w3.org/Graphics/SVG/1.1/DTD/svg11.dtd">
<!-- Creator: CorelDRAW -->
<svg xmlns="http://www.w3.org/2000/svg" xml:space="preserve" width="0.505902in" height="0.440677in" version="1.1" style="shape-rendering:geometricPrecision; text-rendering:geometricPrecision; image-rendering:optimizeQuality; fill-rule:evenodd; clip-rule:evenodd"
viewBox="0 0 78.8 68.64"
 xmlns:xlink="http://www.w3.org/1999/xlink"
 xmlns:xodm="http://www.corel.com/coreldraw/odm/2003">
 <defs>
  <style type="text/css">
   <![CDATA[
    .str0 {stroke:#373435;stroke-width:4.33;stroke-miterlimit:2.61313}
    .fil0 {fill:none}
    .fil16 {fill:#373435}
    .fil1 {fill:#373435}
    .fil15 {fill:#383637}
    .fil14 {fill:#3A3939}
    .fil13 {fill:#3B3A3B}
    .fil12 {fill:#3E3D3E}
    .fil11 {fill:#3F3F40}
    .fil10 {fill:#414143}
    .fil9 {fill:#434345}
    .fil8 {fill:#444648}
    .fil7 {fill:#464749}
    .fil6 {fill:#484A4C}
    .fil5 {fill:#484B4D}
    .fil4 {fill:#4B4E50}
    .fil3 {fill:#4C4F52}
    .fil2 {fill:#4E5154}
    .fil17 {fill:#4F5356}
    .fil18 {fill:#505558}
    .fil19 {fill:#51565A}
    .fil20 {fill:#53595C}
    .fil21 {fill:#545A5E}
    .fil22 {fill:#565C60}
    .fil23 {fill:#565E61}
    .fil24 {fill:#586063}
    .fil25 {fill:#596165}
    .fil26 {fill:#5A6367}
    .fil27 {fill:#5B6469}
    .fil28 {fill:#5D666B}
    .fil29 {fill:#5D686C}
    .fil30 {fill:#5F6A6E}
    .fil31 {fill:#606B70}
    .fil32 {fill:#616D72}
    .fil33 {fill:#616E73}
    .fil34 {fill:#637075}
    .fil35 {fill:#637177}
    .fil36 {fill:#647379}
    .fil37 {fill:#65747A}
    .fil38 {fill:#66767C}
    .fil39 {fill:#66777D}
    .fil40 {fill:#68787F}
    .fil41 {fill:#687980}
    .fil42 {fill:#697B82}
    .fil43 {fill:#6A7C84}
    .fil44 {fill:#6A7E86}
    .fil45 {fill:#6B7F86}
    .fil46 {fill:#6C8188}
    .fil47 {fill:#6C828A}
    .fil48 {fill:#6D848C}
    .fil49 {fill:#6E858D}
    .fil50 {fill:#6E868F}
    .fil51 {fill:#6F8790}
    .fil52 {fill:#708992}
    .fil55 {fill:#718B95}
    .fil54 {fill:#708B94}
    .fil53 {fill:#708A93}
    .fil57 {fill:#718D96}
    .fil56 {fill:#718C95}
    .fil59 {fill:#728E98}
    .fil58 {fill:#718D97}
    .fil60 {fill:#728E98}
    .fil61 {fill:#728F99}
    .fil63 {fill:#73909A}
    .fil62 {fill:#728F99}
    .fil66 {fill:#73919B}
    .fil65 {fill:#72909B}
    .fil64 {fill:#72909A}
    .fil69 {fill:#73929D}
    .fil68 {fill:#73919C}
    .fil67 {fill:#72919B}
    .fil71 {fill:#73939D}
    .fil70 {fill:#73929D}
    .fil73 {fill:#74949F}
    .fil72 {fill:#73939E}
    .fil75 {fill:#7495A0}
    .fil74 {fill:#73949F}
    .fil77 {fill:#7496A1}
    .fil76 {fill:#7495A1}
    .fil78 {fill:#7496A2}
    .fil80 {fill:#7597A2}
    .fil79 {fill:#7496A1}
    .fil82 {fill:#7598A4}
    .fil81 {fill:#7597A3}
    .fil85 {fill:#7699A5}
    .fil84 {fill:#7599A4}
    .fil83 {fill:#7598A4}
    .fil88 {fill:#769AA6}
    .fil87 {fill:#769AA6}
    .fil86 {fill:#7599A5}
    .fil90 {fill:#769BA7}
    .fil89 {fill:#769AA6}
    .fil92 {fill:#769CA9}
    .fil91 {fill:#769BA8}
    .fil94 {fill:#769DAA}
    .fil93 {fill:#769CA9}
    .fil95 {fill:#769DAB}
    .fil96 {fill:#779EAB}
    .fil98 {fill:#779FAC}
    .fil97 {fill:#769EAC}
    .fil100 {fill:#77A0AE}
    .fil99 {fill:#77A0AD}
    .fil103 {fill:#77A1AF}
    .fil102 {fill:#77A1AE}
    .fil101 {fill:#76A0AE}
    .fil106 {fill:#78A2B0}
    .fil105 {fill:#77A2B0}
    .fil104 {fill:#77A1AF}
    .fil108 {fill:#77A3B1}
    .fil107 {fill:#77A2B0}
    .fil110 {fill:#78A4B2}
    .fil109 {fill:#77A3B2}
    .fil112 {fill:#78A5B4}
    .fil111 {fill:#77A5B3}
    .fil113 {fill:#78A6B5}
    .fil115 {fill:#78A6B5}
    .fil114 {fill:#78A6B4}
    .fil117 {fill:#78A7B6}
    .fil116 {fill:#78A7B5}
    .fil119 {fill:#78A8B7}
    .fil118 {fill:#78A8B7}
    .fil122 {fill:#78A9B9}
    .fil121 {fill:#78A9B8}
    .fil120 {fill:#78A8B7}
    .fil125 {fill:#78ABBA}
    .fil124 {fill:#78AAB9}
    .fil123 {fill:#78A9B9}
    .fil127 {fill:#78ABBB}
    .fil126 {fill:#78AABA}
    .fil129 {fill:#78ACBC}
    .fil128 {fill:#78ABBC}
    .fil131 {fill:#78ADBE}
    .fil130 {fill:#78ACBD}
    .fil132 {fill:#78ADBD}
    .fil134 {fill:#78AEBF}
    .fil133 {fill:#78ADBE}
    .fil136 {fill:#78AFC0}
    .fil135 {fill:#78AEBF}
    .fil138 {fill:#78B0C1}
    .fil137 {fill:#78B0C1}
    .fil141 {fill:#78B1C3}
    .fil140 {fill:#78B1C2}
    .fil139 {fill:#78B0C1}
    .fil144 {fill:#79B2C4}
    .fil143 {fill:#78B2C3}
    .fil142 {fill:#78B1C3}
    .fil146 {fill:#78B3C5}
    .fil145 {fill:#78B2C4}
    .fil148 {fill:#78B4C6}
    .fil147 {fill:#77B3C5}
    .fil149 {fill:#77B4C7}
    .fil150 {fill:#78B5C7}
    .fil152 {fill:#78B6C8}
    .fil151 {fill:#77B5C7}
    .fil154 {fill:#78B7C9}
    .fil153 {fill:#77B6C9}
    .fil156 {fill:#77B8CB}
    .fil155 {fill:#77B7CA}
    .fil158 {fill:#77B8CC}
    .fil157 {fill:#77B8CB}
    .fil160 {fill:#77B9CD}
    .fil159 {fill:#77B9CD}
    .fil162 {fill:#77BACE}
    .fil161 {fill:#76BACE}
    .fil163 {fill:#76BBCF}
    .fil164 {fill:#76BBCF}
    .fil166 {fill:#76BCD0}
    .fil165 {fill:#76BCD0}
    .fil169 {fill:#76BDD2}
    .fil168 {fill:#76BDD1}
    .fil167 {fill:#75BCD0}
    .fil172 {fill:#76BED3}
    .fil171 {fill:#75BED2}
    .fil170 {fill:#75BDD2}
    .fil174 {fill:#75BED4}
    .fil173 {fill:#75BED3}
    .fil175 {fill:url(#id1)}
   ]]>
  </style>
    <clipPath id="id0">
     <path d="M43.4 54.22c0.37,-3.41 4.07,-16.63 5.28,-21.75 0.27,-1.14 0.31,-2.05 0.96,-3.03 1.16,1.73 1.86,4.51 2.62,6.62 1.07,2.97 -0.33,3.83 -1.78,6.34 -0.74,1.28 -5.84,10.81 -7.08,11.82zm-10.81 -8.97c0.82,1.02 2.27,7.94 2.46,9.07 -1.03,-0.67 -2.11,-3.03 -2.67,-4.12l-5.65 -9.75c-1.86,-3.45 -1.38,-1.96 -0.13,-5.68 0.43,-1.28 1.45,-4.66 2.18,-5.39 0.58,1.18 3.84,14.56 3.8,15.87zm9.6 1.51l-2.81 11.58c-0.78,-0.7 -1.07,-2.24 -1.11,-3.37l-1.61 -5.91 -1.52 -6.74 -4.46 -17.28c1.23,-0.9 2.39,-1.35 3.78,-1.73 0.59,-0.45 4.45,-2.55 5.11,-1.89 1.58,0.37 6.83,2.69 8.09,3.49l-5.48 21.86zm0.82 -27.26l1.75 -0.9c0.85,0.67 1,1.28 1.28,2.32l-2.22 -0.81c-0.07,-0.04 -0.15,-0.08 -0.22,-0.12l-0.6 -0.49zm-10.75 1.52l1.03 -2.52c1.05,0.36 1.26,0.28 2.09,1l-1.19 0.74c-0.73,0.34 -1.1,0.49 -1.93,0.77zm20.05 -5.61c1.09,-1.29 7.9,4.21 8.24,4.75l-2.66 0.81 -4.56 0.97 -3.34 0.58 -2.51 -5.33 4.83 -1.77zm-24.04 7.04c-1.96,-0.27 -9.14,-1.56 -10.44,-2.3 0.86,-1.07 4.7,-3.45 5.84,-4.23 2.06,-1.4 1.56,-1.33 7.08,1.31l-2.48 5.21zm11.14 -14.54c0.99,0.87 3.88,6.53 4.11,8.02 -0.92,0.61 -3.94,2.44 -5.01,1.52l-3.8 -1.43 4.27 -8.84c0.98,0.4 0.26,-0.08 0.43,0.72zm3.85 0.39l6.25 4.17 0.44 0.54 -3.88 1.64 -2.82 -6.35zm-11.16 6.32c-1.22,-0.24 -2.96,-0.98 -3.77,-1.65 0.6,-0.93 5.74,-4.29 6.87,-4.68 -0.48,1.61 -2.19,4.8 -3.09,6.33zm-10.01 -0.86c-2.32,1.31 -5.84,4.29 -7.81,5.01 -0.94,-1.62 -6.36,-10.49 -6.46,-11.79 2.03,0.93 13.56,5.73 14.27,6.78zm34.12 -0.38l14.32 -6.45c-0.07,0.86 -5.81,10.97 -6.61,11.81 -0.94,-0.41 -7.09,-4.5 -7.71,-5.36zm-11.44 -7.82c-0.47,-0.36 -0.75,0.08 -0.32,-0.51 2.77,-0.14 21.1,-0.28 22.45,0.17l-13.01 6.18 -9.11 -5.84zm-23.52 4.38l-9.29 -4.34c-0.72,-0.39 -0.7,0.37 -0.55,-0.55 2.84,-0.11 21.35,-0.31 22.64,0.18 -0.6,0.91 -4.99,3.68 -6,4.38 -3.55,2.46 -2.64,2.17 -6.81,0.34zm-17.47 -3.44l8.34 14.71c0.84,0.52 0.51,0.5 1.16,0.85 1.46,0.78 11.2,2.53 13.66,3.02l-3.89 11.4 -0.25 2.35 15.51 27.55 1.66 -0.31 15.28 -26.57c0.63,-1.4 0.48,-1.17 0.28,-2.67 -0.75,-1.64 -4.07,-10.38 -4.18,-11.74 1.71,-0.42 3.91,-1.06 5.47,-0.92 0.67,-0.47 0.49,-0.32 1.55,-0.56 1.7,-0.28 6.48,-0.82 7.42,-2.25 3.76,-5.7 6.95,-12.69 9.91,-18.85l-72.48 -0.2c-1.78,1.16 0.22,2.51 0.57,4.2z"/>
    </clipPath>
  <linearGradient id="id1" gradientUnits="userSpaceOnUse" x1="34.79" y1="37.41" x2="44.35" y2="29.63">
   <stop offset="0" style="stop-opacity:1; stop-color:#59DEF6"/>
   <stop offset="0.741176" style="stop-opacity:1; stop-color:#34707C"/>
   <stop offset="1" style="stop-opacity:1; stop-color:#0F0202"/>
  </linearGradient>
 </defs>
 <g id="Layer_x0020_1">
  <metadata id="CorelCorpID_0Corel-Layer"/>
  <g>
   <path class="fil0 str0" d="M43.08 54.09c0.37,-3.41 4.07,-16.63 5.28,-21.75 0.27,-1.14 0.31,-2.05 0.96,-3.03 1.16,1.73 1.86,4.51 2.62,6.62 1.07,2.97 -0.33,3.83 -1.78,6.34 -0.74,1.28 -5.84,10.81 -7.08,11.82zm-10.81 -8.97c0.82,1.02 2.27,7.94 2.46,9.07 -1.03,-0.67 -2.11,-3.03 -2.67,-4.12l-5.65 -9.75c-1.87,-3.45 -1.38,-1.96 -0.13,-5.68 0.43,-1.28 1.45,-4.66 2.18,-5.39 0.58,1.18 3.84,14.56 3.8,15.87zm9.6 1.51l-2.81 11.58c-0.78,-0.7 -1.07,-2.24 -1.11,-3.37l-1.61 -5.91 -1.52 -6.74 -4.46 -17.28c1.23,-0.9 2.39,-1.35 3.78,-1.73 0.59,-0.45 4.45,-2.55 5.11,-1.89 1.58,0.37 6.83,2.69 8.09,3.49l-5.48 21.86zm0.82 -27.26l1.75 -0.9c0.85,0.67 1,1.28 1.28,2.32l-2.22 -0.81c-0.07,-0.04 -0.16,-0.08 -0.22,-0.12l-0.6 -0.49zm-10.75 1.52l1.03 -2.52c1.04,0.36 1.26,0.28 2.09,1l-1.19 0.75c-0.73,0.34 -1.1,0.48 -1.93,0.77zm20.05 -5.61c1.09,-1.29 7.9,4.21 8.24,4.75l-2.66 0.81 -4.56 0.97 -3.34 0.58 -2.51 -5.33 4.83 -1.78zm-24.04 7.04c-1.96,-0.27 -9.14,-1.56 -10.44,-2.3 0.86,-1.07 4.7,-3.45 5.84,-4.23 2.06,-1.4 1.56,-1.33 7.08,1.31l-2.48 5.21zm11.14 -14.54c0.99,0.87 3.87,6.53 4.11,8.02 -0.92,0.61 -3.94,2.44 -5.01,1.52l-3.8 -1.43 4.27 -8.84c0.98,0.4 0.26,-0.07 0.43,0.72zm3.85 0.39l6.25 4.17 0.44 0.54 -3.88 1.64 -2.82 -6.35zm-11.16 6.32c-1.22,-0.24 -2.96,-0.98 -3.77,-1.65 0.6,-0.93 5.74,-4.29 6.87,-4.68 -0.48,1.61 -2.19,4.8 -3.09,6.33zm-10.02 -0.86c-2.32,1.31 -5.84,4.29 -7.81,5.01 -0.94,-1.62 -6.36,-10.49 -6.46,-11.79 2.03,0.93 13.56,5.73 14.27,6.78zm34.12 -0.38l14.32 -6.45c-0.07,0.86 -5.81,10.97 -6.61,11.81 -0.94,-0.41 -7.09,-4.5 -7.71,-5.36zm-11.44 -7.82c-0.47,-0.36 -0.75,0.08 -0.32,-0.51 2.77,-0.14 21.1,-0.28 22.45,0.17l-13.01 6.18 -9.11 -5.84zm-23.52 4.38l-9.29 -4.34c-0.72,-0.39 -0.7,0.37 -0.55,-0.55 2.84,-0.11 21.35,-0.31 22.64,0.18 -0.6,0.91 -4.99,3.68 -6,4.38 -3.55,2.46 -2.64,2.17 -6.81,0.34zm-17.47 -3.44l8.34 14.71c0.84,0.52 0.51,0.5 1.16,0.85 1.46,0.78 11.2,2.53 13.66,3.02l-3.89 11.4 -0.25 2.35 15.51 27.55 1.66 -0.31 15.28 -26.57c0.63,-1.4 0.48,-1.17 0.28,-2.67 -0.75,-1.64 -4.07,-10.38 -4.18,-11.74 1.71,-0.42 3.91,-1.06 5.47,-0.92 0.67,-0.47 0.49,-0.32 1.55,-0.56 1.7,-0.28 6.48,-0.82 7.42,-2.25 3.76,-5.7 6.95,-12.69 9.91,-18.85l-72.48 -0.2c-1.78,1.16 0.22,2.5 0.57,4.2z"/>
   <path id="_1" class="fil1" d="M43.08 54.09c0.37,-3.41 4.07,-16.63 5.28,-21.75 0.27,-1.14 0.31,-2.05 0.96,-3.03 1.16,1.73 1.86,4.51 2.62,6.62 1.07,2.97 -0.33,3.83 -1.78,6.34 -0.74,1.28 -5.84,10.81 -7.08,11.82zm-10.81 -8.97c0.82,1.02 2.27,7.94 2.46,9.07 -1.03,-0.67 -2.11,-3.03 -2.67,-4.12l-5.65 -9.75c-1.87,-3.45 -1.38,-1.96 -0.13,-5.68 0.43,-1.28 1.45,-4.66 2.18,-5.39 0.58,1.18 3.84,14.56 3.8,15.87zm9.6 1.51l-2.81 11.58c-0.78,-0.7 -1.07,-2.24 -1.11,-3.37l-1.61 -5.91 -1.52 -6.74 -4.46 -17.28c1.23,-0.9 2.39,-1.35 3.78,-1.73 0.59,-0.45 4.45,-2.55 5.11,-1.89 1.58,0.37 6.83,2.69 8.09,3.49l-5.48 21.86zm0.82 -27.26l1.75 -0.9c0.85,0.67 1,1.28 1.28,2.32l-2.22 -0.81c-0.07,-0.04 -0.16,-0.08 -0.22,-0.12l-0.6 -0.49zm-10.75 1.52l1.03 -2.52c1.04,0.36 1.26,0.28 2.09,1l-1.19 0.75c-0.73,0.34 -1.1,0.48 -1.93,0.77zm20.05 -5.61c1.09,-1.29 7.9,4.21 8.24,4.75l-2.66 0.81 -4.56 0.97 -3.34 0.58 -2.51 -5.33 4.83 -1.78zm-24.04 7.04c-1.96,-0.27 -9.14,-1.56 -10.44,-2.3 0.86,-1.07 4.7,-3.45 5.84,-4.23 2.06,-1.4 1.56,-1.33 7.08,1.31l-2.48 5.21zm11.14 -14.54c0.99,0.87 3.87,6.53 4.11,8.02 -0.92,0.61 -3.94,2.44 -5.01,1.52l-3.8 -1.43 4.27 -8.84c0.98,0.4 0.26,-0.07 0.43,0.72zm3.85 0.39l6.25 4.17 0.44 0.54 -3.88 1.64 -2.82 -6.35zm-11.16 6.32c-1.22,-0.24 -2.96,-0.98 -3.77,-1.65 0.6,-0.93 5.74,-4.29 6.87,-4.68 -0.48,1.61 -2.19,4.8 -3.09,6.33zm-10.02 -0.86c-2.32,1.31 -5.84,4.29 -7.81,5.01 -0.94,-1.62 -6.36,-10.49 -6.46,-11.79 2.03,0.93 13.56,5.73 14.27,6.78zm34.12 -0.38l14.32 -6.45c-0.07,0.86 -5.81,10.97 -6.61,11.81 -0.94,-0.41 -7.09,-4.5 -7.71,-5.36zm-11.44 -7.82c-0.47,-0.36 -0.75,0.08 -0.32,-0.51 2.77,-0.14 21.1,-0.28 22.45,0.17l-13.01 6.18 -9.11 -5.84zm-23.52 4.38l-9.29 -4.34c-0.72,-0.39 -0.7,0.37 -0.55,-0.55 2.84,-0.11 21.35,-0.31 22.64,0.18 -0.6,0.91 -4.99,3.68 -6,4.38 -3.55,2.46 -2.64,2.17 -6.81,0.34zm-17.47 -3.44l8.34 14.71c0.84,0.52 0.51,0.5 1.16,0.85 1.46,0.78 11.2,2.53 13.66,3.02l-3.89 11.4 -0.25 2.35 15.51 27.55 1.66 -0.31 15.28 -26.57c0.63,-1.4 0.48,-1.17 0.28,-2.67 -0.75,-1.64 -4.07,-10.38 -4.18,-11.74 1.71,-0.42 3.91,-1.06 5.47,-0.92 0.67,-0.47 0.49,-0.32 1.55,-0.56 1.7,-0.28 6.48,-0.82 7.42,-2.25 3.76,-5.7 6.95,-12.69 9.91,-18.85l-72.48 -0.2c-1.78,1.16 0.22,2.5 0.57,4.2z"/>
  </g>
  <g>
   <g style="clip-path:url(#id0)">
    <polygon class="fil2" points="17.31,-27.47 17.49,-27.38 -16.25,38.35 -16.44,38.26 "/>
    <polygon id="_1_0" class="fil3" points="17.36,-27.45 17.76,-27.24 -15.99,38.49 -16.39,38.28 "/>
    <polygon id="_2" class="fil4" points="17.63,-27.31 18.02,-27.11 -15.73,38.62 -16.12,38.42 "/>
    <polygon id="_3" class="fil5" points="17.89,-27.18 18.28,-26.97 -15.46,38.76 -15.86,38.55 "/>
    <polygon id="_4" class="fil6" points="18.15,-27.04 18.55,-26.84 -15.2,38.89 -15.6,38.69 "/>
    <polygon id="_5" class="fil7" points="18.42,-26.91 18.81,-26.7 -14.94,39.03 -15.33,38.83 "/>
    <polygon id="_6" class="fil8" points="18.68,-26.77 19.08,-26.57 -14.67,39.16 -15.07,38.96 "/>
    <polygon id="_7" class="fil9" points="18.94,-26.64 19.34,-26.43 -14.41,39.3 -14.8,39.1 "/>
    <polygon id="_8" class="fil10" points="19.21,-26.5 19.6,-26.3 -14.15,39.43 -14.54,39.23 "/>
    <polygon id="_9" class="fil11" points="19.47,-26.36 19.87,-26.16 -13.88,39.57 -14.28,39.37 "/>
    <polygon id="_10" class="fil12" points="19.73,-26.23 20.13,-26.03 -13.62,39.7 -14.01,39.5 "/>
    <polygon id="_11" class="fil13" points="20,-26.09 20.39,-25.89 -13.35,39.84 -13.75,39.64 "/>
    <polygon id="_12" class="fil14" points="20.26,-25.96 20.66,-25.76 -13.09,39.98 -13.49,39.77 "/>
    <polygon id="_13" class="fil15" points="20.52,-25.82 20.92,-25.62 -12.83,40.11 -13.22,39.91 "/>
    <polygon id="_14" class="fil16" points="20.79,-25.69 21.18,-25.49 -12.56,40.25 -12.96,40.04 "/>
    <polygon id="_15" class="fil15" points="21.05,-25.55 21.45,-25.35 -12.3,40.38 -12.7,40.18 "/>
    <polygon id="_16" class="fil14" points="21.32,-25.42 21.71,-25.21 -12.04,40.52 -12.43,40.31 "/>
    <polygon id="_17" class="fil13" points="21.58,-25.28 21.97,-25.08 -11.77,40.65 -12.17,40.45 "/>
    <polygon id="_18" class="fil12" points="21.84,-25.15 22.24,-24.94 -11.51,40.79 -11.91,40.58 "/>
    <polygon id="_19" class="fil11" points="22.11,-25.01 22.5,-24.81 -11.25,40.92 -11.64,40.72 "/>
    <polygon id="_20" class="fil10" points="22.37,-24.88 22.76,-24.67 -10.98,41.06 -11.38,40.85 "/>
    <polygon id="_21" class="fil9" points="22.63,-24.74 23.03,-24.54 -10.72,41.19 -11.12,40.99 "/>
    <polygon id="_22" class="fil8" points="22.9,-24.61 23.29,-24.4 -10.46,41.33 -10.85,41.13 "/>
    <polygon id="_23" class="fil7" points="23.16,-24.47 23.56,-24.27 -10.19,41.46 -10.59,41.26 "/>
    <polygon id="_24" class="fil6" points="23.42,-24.33 23.82,-24.13 -9.93,41.6 -10.32,41.4 "/>
    <polygon id="_25" class="fil5" points="23.69,-24.2 24.08,-24 -9.67,41.73 -10.06,41.53 "/>
    <polygon id="_26" class="fil4" points="23.95,-24.06 24.35,-23.86 -9.4,41.87 -9.8,41.67 "/>
    <polygon id="_27" class="fil3" points="24.21,-23.93 24.61,-23.73 -9.14,42.01 -9.53,41.8 "/>
    <polygon id="_28" class="fil2" points="24.48,-23.79 24.87,-23.59 -8.88,42.14 -9.27,41.94 "/>
    <polygon id="_29" class="fil17" points="24.74,-23.66 25.14,-23.46 -8.61,42.28 -9.01,42.07 "/>
    <polygon id="_30" class="fil18" points="25,-23.52 25.4,-23.32 -8.35,42.41 -8.74,42.21 "/>
    <polygon id="_31" class="fil19" points="25.27,-23.39 25.66,-23.19 -8.08,42.55 -8.48,42.34 "/>
    <polygon id="_32" class="fil20" points="25.53,-23.25 25.93,-23.05 -7.82,42.68 -8.22,42.48 "/>
    <polygon id="_33" class="fil21" points="25.79,-23.12 26.19,-22.91 -7.56,42.82 -7.95,42.61 "/>
    <polygon id="_34" class="fil22" points="26.06,-22.98 26.45,-22.78 -7.29,42.95 -7.69,42.75 "/>
    <polygon id="_35" class="fil23" points="26.32,-22.85 26.72,-22.64 -7.03,43.09 -7.43,42.88 "/>
    <polygon id="_36" class="fil24" points="26.59,-22.71 26.98,-22.51 -6.77,43.22 -7.16,43.02 "/>
    <polygon id="_37" class="fil25" points="26.85,-22.58 27.24,-22.37 -6.5,43.36 -6.9,43.15 "/>
    <polygon id="_38" class="fil26" points="27.11,-22.44 27.51,-22.24 -6.24,43.49 -6.64,43.29 "/>
    <polygon id="_39" class="fil27" points="27.38,-22.31 27.77,-22.1 -5.98,43.63 -6.37,43.43 "/>
    <polygon id="_40" class="fil28" points="27.64,-22.17 28.04,-21.97 -5.71,43.76 -6.11,43.56 "/>
    <polygon id="_41" class="fil29" points="27.9,-22.04 28.3,-21.83 -5.45,43.9 -5.84,43.7 "/>
    <polygon id="_42" class="fil30" points="28.17,-21.9 28.56,-21.7 -5.19,44.03 -5.58,43.83 "/>
    <polygon id="_43" class="fil31" points="28.43,-21.76 28.83,-21.56 -4.92,44.17 -5.32,43.97 "/>
    <polygon id="_44" class="fil32" points="28.69,-21.63 29.09,-21.43 -4.66,44.3 -5.05,44.1 "/>
    <polygon id="_45" class="fil33" points="28.96,-21.49 29.35,-21.29 -4.4,44.44 -4.79,44.24 "/>
    <polygon id="_46" class="fil34" points="29.22,-21.36 29.62,-21.16 -4.13,44.58 -4.53,44.37 "/>
    <polygon id="_47" class="fil35" points="29.48,-21.22 29.88,-21.02 -3.87,44.71 -4.26,44.51 "/>
    <polygon id="_48" class="fil36" points="29.75,-21.09 30.14,-20.88 -3.61,44.85 -4,44.64 "/>
    <polygon id="_49" class="fil37" points="30.01,-20.95 30.41,-20.75 -3.34,44.98 -3.74,44.78 "/>
    <polygon id="_50" class="fil38" points="30.27,-20.82 30.67,-20.61 -3.08,45.12 -3.47,44.91 "/>
    <polygon id="_51" class="fil39" points="30.54,-20.68 30.93,-20.48 -2.81,45.25 -3.21,45.05 "/>
    <polygon id="_52" class="fil40" points="30.8,-20.55 31.2,-20.34 -2.55,45.39 -2.95,45.18 "/>
    <polygon id="_53" class="fil41" points="31.07,-20.41 31.46,-20.21 -2.29,45.52 -2.68,45.32 "/>
    <polygon id="_54" class="fil42" points="31.33,-20.28 31.72,-20.07 -2.02,45.66 -2.42,45.46 "/>
    <polygon id="_55" class="fil43" points="31.59,-20.14 31.99,-19.94 -1.76,45.79 -2.16,45.59 "/>
    <polygon id="_56" class="fil44" points="31.86,-20.01 32.25,-19.8 -1.5,45.93 -1.89,45.73 "/>
    <polygon id="_57" class="fil45" points="32.12,-19.87 32.51,-19.67 -1.23,46.06 -1.63,45.86 "/>
    <polygon id="_58" class="fil46" points="32.38,-19.73 32.78,-19.53 -0.97,46.2 -1.37,46 "/>
    <polygon id="_59" class="fil47" points="32.65,-19.6 33.04,-19.4 -0.71,46.33 -1.1,46.13 "/>
    <polygon id="_60" class="fil48" points="32.91,-19.46 33.31,-19.26 -0.44,46.47 -0.84,46.27 "/>
    <polygon id="_61" class="fil49" points="33.17,-19.33 33.57,-19.13 -0.18,46.6 -0.57,46.4 "/>
    <polygon id="_62" class="fil50" points="33.44,-19.19 33.83,-18.99 0.08,46.74 -0.31,46.54 "/>
    <polygon id="_63" class="fil51" points="33.7,-19.06 34.1,-18.86 0.35,46.88 -0.05,46.67 "/>
    <polygon id="_64" class="fil52" points="33.96,-18.92 34.36,-18.72 0.61,47.01 0.22,46.81 "/>
    <polygon id="_65" class="fil53" points="34.23,-18.79 34.62,-18.59 0.88,47.15 0.48,46.94 "/>
    <polygon id="_66" class="fil54" points="34.49,-18.65 34.89,-18.45 1.14,47.28 0.74,47.08 "/>
    <polygon id="_67" class="fil55" points="34.75,-18.52 35.15,-18.31 1.4,47.42 1.01,47.21 "/>
    <polygon id="_68" class="fil55" points="35.02,-18.38 35.41,-18.18 1.67,47.55 1.27,47.35 "/>
    <polygon id="_69" class="fil56" points="35.28,-18.25 35.68,-18.04 1.93,47.69 1.53,47.48 "/>
    <polygon id="_70" class="fil57" points="35.55,-18.11 35.94,-17.91 2.19,47.82 1.8,47.62 "/>
    <polygon id="_71" class="fil57" points="35.81,-17.98 36.2,-17.77 2.46,47.96 2.06,47.75 "/>
    <polygon id="_72" class="fil58" points="36.07,-17.84 36.47,-17.64 2.72,48.09 2.32,47.89 "/>
    <polygon id="_73" class="fil58" points="36.34,-17.71 36.73,-17.5 2.98,48.23 2.59,48.03 "/>
    <polygon id="_74" class="fil59" points="36.6,-17.57 36.99,-17.37 3.25,48.36 2.85,48.16 "/>
    <polygon id="_75" class="fil60" points="36.86,-17.43 37.26,-17.23 3.51,48.5 3.11,48.3 "/>
    <polygon id="_76" class="fil60" points="37.13,-17.3 37.52,-17.1 3.77,48.63 3.38,48.43 "/>
    <polygon id="_77" class="fil61" points="37.39,-17.16 37.78,-16.96 4.04,48.77 3.64,48.57 "/>
    <polygon id="_78" class="fil62" points="37.65,-17.03 38.05,-16.83 4.3,48.91 3.91,48.7 "/>
    <polygon id="_79" class="fil62" points="37.92,-16.89 38.31,-16.69 4.56,49.04 4.17,48.84 "/>
    <polygon id="_80" class="fil63" points="38.18,-16.76 38.58,-16.56 4.83,49.18 4.43,48.97 "/>
    <polygon id="_81" class="fil64" points="38.44,-16.62 38.84,-16.42 5.09,49.31 4.7,49.11 "/>
    <polygon id="_82" class="fil65" points="38.71,-16.49 39.1,-16.28 5.35,49.45 4.96,49.24 "/>
    <polygon id="_83" class="fil66" points="38.97,-16.35 39.37,-16.15 5.62,49.58 5.22,49.38 "/>
    <polygon id="_84" class="fil67" points="39.23,-16.22 39.63,-16.01 5.88,49.72 5.49,49.51 "/>
    <polygon id="_85" class="fil68" points="39.5,-16.08 39.89,-15.88 6.15,49.85 5.75,49.65 "/>
    <polygon id="_86" class="fil69" points="39.76,-15.95 40.16,-15.74 6.41,49.99 6.01,49.78 "/>
    <polygon id="_87" class="fil70" points="40.02,-15.81 40.42,-15.61 6.67,50.12 6.28,49.92 "/>
    <polygon id="_88" class="fil71" points="40.29,-15.68 40.68,-15.47 6.94,50.26 6.54,50.05 "/>
    <polygon id="_89" class="fil71" points="40.55,-15.54 40.95,-15.34 7.2,50.39 6.8,50.19 "/>
    <polygon id="_90" class="fil72" points="40.82,-15.41 41.21,-15.2 7.46,50.53 7.07,50.33 "/>
    <polygon id="_91" class="fil73" points="41.08,-15.27 41.47,-15.07 7.73,50.66 7.33,50.46 "/>
    <polygon id="_92" class="fil73" points="41.34,-15.14 41.74,-14.93 7.99,50.8 7.59,50.6 "/>
    <polygon id="_93" class="fil74" points="41.61,-15 42,-14.8 8.25,50.93 7.86,50.73 "/>
    <polygon id="_94" class="fil75" points="41.87,-14.86 42.27,-14.66 8.52,51.07 8.12,50.87 "/>
    <polygon id="_95" class="fil75" points="42.13,-14.73 42.53,-14.53 8.78,51.2 8.39,51 "/>
    <polygon id="_96" class="fil76" points="42.4,-14.59 42.79,-14.39 9.04,51.34 8.65,51.14 "/>
    <polygon id="_97" class="fil76" points="42.66,-14.46 43.06,-14.26 9.31,51.48 8.91,51.27 "/>
    <polygon id="_98" class="fil77" points="42.92,-14.32 43.32,-14.12 9.57,51.61 9.18,51.41 "/>
    <polygon id="_99" class="fil78" points="43.19,-14.19 43.58,-13.98 9.83,51.75 9.44,51.54 "/>
    <polygon id="_100" class="fil79" points="43.45,-14.05 43.85,-13.85 10.1,51.88 9.7,51.68 "/>
    <polygon id="_101" class="fil80" points="43.71,-13.92 44.11,-13.71 10.36,52.02 9.97,51.81 "/>
    <polygon id="_102" class="fil81" points="43.98,-13.78 44.37,-13.58 10.62,52.15 10.23,51.95 "/>
    <polygon id="_103" class="fil81" points="44.24,-13.65 44.64,-13.44 10.89,52.29 10.49,52.08 "/>
    <polygon id="_104" class="fil82" points="44.5,-13.51 44.9,-13.31 11.15,52.42 10.76,52.22 "/>
    <polygon id="_105" class="fil83" points="44.77,-13.38 45.16,-13.17 11.42,52.56 11.02,52.36 "/>
    <polygon id="_106" class="fil84" points="45.03,-13.24 45.43,-13.04 11.68,52.69 11.28,52.49 "/>
    <polygon id="_107" class="fil85" points="45.3,-13.11 45.69,-12.9 11.94,52.83 11.55,52.63 "/>
    <polygon id="_108" class="fil86" points="45.56,-12.97 45.95,-12.77 12.21,52.96 11.81,52.76 "/>
    <polygon id="_109" class="fil87" points="45.82,-12.83 46.22,-12.63 12.47,53.1 12.07,52.9 "/>
    <polygon id="_110" class="fil88" points="46.09,-12.7 46.48,-12.5 12.73,53.23 12.34,53.03 "/>
    <polygon id="_111" class="fil89" points="46.35,-12.56 46.74,-12.36 13,53.37 12.6,53.17 "/>
    <polygon id="_112" class="fil90" points="46.61,-12.43 47.01,-12.23 13.26,53.5 12.86,53.3 "/>
    <polygon id="_113" class="fil90" points="46.88,-12.29 47.27,-12.09 13.52,53.64 13.13,53.44 "/>
    <polygon id="_114" class="fil91" points="47.14,-12.16 47.54,-11.96 13.79,53.78 13.39,53.57 "/>
    <polygon id="_115" class="fil92" points="47.4,-12.02 47.8,-11.82 14.05,53.91 13.66,53.71 "/>
    <polygon id="_116" class="fil92" points="47.67,-11.89 48.06,-11.69 14.31,54.05 13.92,53.84 "/>
    <polygon id="_117" class="fil93" points="47.93,-11.75 48.33,-11.55 14.58,54.18 14.18,53.98 "/>
    <polygon id="_118" class="fil94" points="48.19,-11.62 48.59,-11.41 14.84,54.32 14.45,54.11 "/>
    <polygon id="_119" class="fil94" points="48.46,-11.48 48.85,-11.28 15.1,54.45 14.71,54.25 "/>
    <polygon id="_120" class="fil95" points="48.72,-11.35 49.12,-11.14 15.37,54.59 14.97,54.38 "/>
    <polygon id="_121" class="fil95" points="48.98,-11.21 49.38,-11.01 15.63,54.72 15.24,54.52 "/>
    <polygon id="_122" class="fil96" points="49.25,-11.08 49.64,-10.87 15.9,54.86 15.5,54.65 "/>
    <polygon id="_123" class="fil97" points="49.51,-10.94 49.91,-10.74 16.16,54.99 15.76,54.79 "/>
    <polygon id="_124" class="fil97" points="49.78,-10.81 50.17,-10.6 16.42,55.13 16.03,54.93 "/>
    <polygon id="_125" class="fil98" points="50.04,-10.67 50.43,-10.47 16.69,55.26 16.29,55.06 "/>
    <polygon id="_126" class="fil99" points="50.3,-10.53 50.7,-10.33 16.95,55.4 16.55,55.2 "/>
    <polygon id="_127" class="fil99" points="50.57,-10.4 50.96,-10.2 17.21,55.53 16.82,55.33 "/>
    <polygon id="_128" class="fil100" points="50.83,-10.26 51.22,-10.06 17.48,55.67 17.08,55.47 "/>
    <polygon id="_129" class="fil101" points="51.09,-10.13 51.49,-9.93 17.74,55.81 17.34,55.6 "/>
    <polygon id="_130" class="fil102" points="51.36,-9.99 51.75,-9.79 18,55.94 17.61,55.74 "/>
    <polygon id="_131" class="fil103" points="51.62,-9.86 52.01,-9.66 18.27,56.08 17.87,55.87 "/>
    <polygon id="_132" class="fil104" points="51.88,-9.72 52.28,-9.52 18.53,56.21 18.14,56.01 "/>
    <polygon id="_133" class="fil105" points="52.15,-9.59 52.54,-9.38 18.79,56.35 18.4,56.14 "/>
    <polygon id="_134" class="fil106" points="52.41,-9.45 52.81,-9.25 19.06,56.48 18.66,56.28 "/>
    <polygon id="_135" class="fil107" points="52.67,-9.32 53.07,-9.11 19.32,56.62 18.93,56.41 "/>
    <polygon id="_136" class="fil108" points="52.94,-9.18 53.33,-8.98 19.58,56.75 19.19,56.55 "/>
    <polygon id="_137" class="fil108" points="53.2,-9.05 53.6,-8.84 19.85,56.89 19.45,56.68 "/>
    <polygon id="_138" class="fil109" points="53.46,-8.91 53.86,-8.71 20.11,57.02 19.72,56.82 "/>
    <polygon id="_139" class="fil110" points="53.73,-8.78 54.12,-8.57 20.38,57.16 19.98,56.95 "/>
    <polygon id="_140" class="fil110" points="53.99,-8.64 54.39,-8.44 20.64,57.29 20.24,57.09 "/>
    <polygon id="_141" class="fil111" points="54.25,-8.51 54.65,-8.3 20.9,57.43 20.51,57.23 "/>
    <polygon id="_142" class="fil112" points="54.52,-8.37 54.91,-8.17 21.17,57.56 20.77,57.36 "/>
    <polygon id="_143" class="fil112" points="54.78,-8.24 55.18,-8.03 21.43,57.7 21.03,57.5 "/>
    <polygon id="_144" class="fil113" points="55.05,-8.1 55.44,-7.9 21.69,57.83 21.3,57.63 "/>
    <polygon id="_145" class="fil114" points="55.31,-7.96 55.7,-7.76 21.96,57.97 21.56,57.77 "/>
    <polygon id="_146" class="fil115" points="55.57,-7.83 55.97,-7.63 22.22,58.1 21.82,57.9 "/>
    <polygon id="_147" class="fil116" points="55.84,-7.69 56.23,-7.49 22.48,58.24 22.09,58.04 "/>
    <polygon id="_148" class="fil116" points="56.1,-7.56 56.49,-7.36 22.75,58.38 22.35,58.17 "/>
    <polygon id="_149" class="fil117" points="56.36,-7.42 56.76,-7.22 23.01,58.51 22.61,58.31 "/>
    <polygon id="_150" class="fil118" points="56.63,-7.29 57.02,-7.08 23.27,58.65 22.88,58.44 "/>
    <polygon id="_151" class="fil118" points="56.89,-7.15 57.29,-6.95 23.54,58.78 23.14,58.58 "/>
    <polygon id="_152" class="fil119" points="57.15,-7.02 57.55,-6.81 23.8,58.92 23.41,58.71 "/>
    <polygon id="_153" class="fil120" points="57.42,-6.88 57.81,-6.68 24.06,59.05 23.67,58.85 "/>
    <polygon id="_154" class="fil121" points="57.68,-6.75 58.08,-6.54 24.33,59.19 23.93,58.98 "/>
    <polygon id="_155" class="fil122" points="57.94,-6.61 58.34,-6.41 24.59,59.32 24.2,59.12 "/>
    <polygon id="_156" class="fil123" points="58.21,-6.48 58.6,-6.27 24.85,59.46 24.46,59.26 "/>
    <polygon id="_157" class="fil124" points="58.47,-6.34 58.87,-6.14 25.12,59.59 24.72,59.39 "/>
    <polygon id="_158" class="fil125" points="58.73,-6.21 59.13,-6 25.38,59.73 24.99,59.53 "/>
    <polygon id="_159" class="fil126" points="59,-6.07 59.39,-5.87 25.65,59.86 25.25,59.66 "/>
    <polygon id="_160" class="fil127" points="59.26,-5.93 59.66,-5.73 25.91,60 25.51,59.8 "/>
    <polygon id="_161" class="fil127" points="59.53,-5.8 59.92,-5.6 26.17,60.13 25.78,59.93 "/>
    <polygon id="_162" class="fil128" points="59.79,-5.66 60.18,-5.46 26.44,60.27 26.04,60.07 "/>
    <polygon id="_163" class="fil129" points="60.05,-5.53 60.45,-5.33 26.7,60.41 26.3,60.2 "/>
    <polygon id="_164" class="fil129" points="60.32,-5.39 60.71,-5.19 26.96,60.54 26.57,60.34 "/>
    <polygon id="_165" class="fil130" points="60.58,-5.26 60.97,-5.06 27.23,60.68 26.83,60.47 "/>
    <polygon id="_166" class="fil131" points="60.84,-5.12 61.24,-4.92 27.49,60.81 27.09,60.61 "/>
    <polygon id="_167" class="fil132" points="61.11,-4.99 61.5,-4.79 27.75,60.95 27.36,60.74 "/>
    <polygon id="_168" class="fil133" points="61.37,-4.85 61.77,-4.65 28.02,61.08 27.62,60.88 "/>
    <polygon id="_169" class="fil133" points="61.63,-4.72 62.03,-4.51 28.28,61.22 27.89,61.01 "/>
    <polygon id="_170" class="fil134" points="61.9,-4.58 62.29,-4.38 28.54,61.35 28.15,61.15 "/>
    <polygon id="_171" class="fil135" points="62.16,-4.45 62.56,-4.24 28.81,61.49 28.41,61.28 "/>
    <polygon id="_172" class="fil135" points="62.42,-4.31 62.82,-4.11 29.07,61.62 28.68,61.42 "/>
    <polygon id="_173" class="fil136" points="62.69,-4.18 63.08,-3.97 29.33,61.76 28.94,61.55 "/>
    <polygon id="_174" class="fil137" points="62.95,-4.04 63.35,-3.84 29.6,61.89 29.2,61.69 "/>
    <polygon id="_175" class="fil137" points="63.21,-3.91 63.61,-3.7 29.86,62.03 29.47,61.83 "/>
    <polygon id="_176" class="fil138" points="63.48,-3.77 63.87,-3.57 30.12,62.16 29.73,61.96 "/>
    <polygon id="_177" class="fil139" points="63.74,-3.63 64.14,-3.43 30.39,62.3 29.99,62.1 "/>
    <polygon id="_178" class="fil140" points="64,-3.5 64.4,-3.3 30.65,62.43 30.26,62.23 "/>
    <polygon id="_179" class="fil141" points="64.27,-3.36 64.66,-3.16 30.92,62.57 30.52,62.37 "/>
    <polygon id="_180" class="fil142" points="64.53,-3.23 64.93,-3.03 31.18,62.71 30.78,62.5 "/>
    <polygon id="_181" class="fil143" points="64.8,-3.09 65.19,-2.89 31.44,62.84 31.05,62.64 "/>
    <polygon id="_182" class="fil144" points="65.06,-2.96 65.45,-2.76 31.71,62.98 31.31,62.77 "/>
    <polygon id="_183" class="fil145" points="65.32,-2.82 65.72,-2.62 31.97,63.11 31.57,62.91 "/>
    <polygon id="_184" class="fil146" points="65.59,-2.69 65.98,-2.48 32.23,63.25 31.84,63.04 "/>
    <polygon id="_185" class="fil146" points="65.85,-2.55 66.24,-2.35 32.5,63.38 32.1,63.18 "/>
    <polygon id="_186" class="fil147" points="66.11,-2.42 66.51,-2.21 32.76,63.52 32.37,63.31 "/>
    <polygon id="_187" class="fil148" points="66.38,-2.28 66.77,-2.08 33.02,63.65 32.63,63.45 "/>
    <polygon id="_188" class="fil148" points="66.64,-2.15 67.04,-1.94 33.29,63.79 32.89,63.58 "/>
    <polygon id="_189" class="fil149" points="66.9,-2.01 67.3,-1.81 33.55,63.92 33.16,63.72 "/>
    <polygon id="_190" class="fil150" points="67.17,-1.88 67.56,-1.67 33.81,64.06 33.42,63.86 "/>
    <polygon id="_191" class="fil150" points="67.43,-1.74 67.83,-1.54 34.08,64.19 33.68,63.99 "/>
    <polygon id="_192" class="fil151" points="67.69,-1.61 68.09,-1.4 34.34,64.33 33.95,64.13 "/>
    <polygon id="_193" class="fil151" points="67.96,-1.47 68.35,-1.27 34.61,64.46 34.21,64.26 "/>
    <polygon id="_194" class="fil152" points="68.22,-1.34 68.62,-1.13 34.87,64.6 34.47,64.4 "/>
    <polygon id="_195" class="fil153" points="68.48,-1.2 68.88,-1 35.13,64.73 34.74,64.53 "/>
    <polygon id="_196" class="fil153" points="68.75,-1.06 69.14,-0.86 35.4,64.87 35,64.67 "/>
    <polygon id="_197" class="fil154" points="69.01,-0.93 69.41,-0.73 35.66,65 35.26,64.8 "/>
    <polygon id="_198" class="fil155" points="69.28,-0.79 69.67,-0.59 35.92,65.14 35.53,64.94 "/>
    <polygon id="_199" class="fil155" points="69.54,-0.66 69.93,-0.46 36.19,65.28 35.79,65.07 "/>
    <polygon id="_200" class="fil156" points="69.8,-0.52 70.2,-0.32 36.45,65.41 36.05,65.21 "/>
    <polygon id="_201" class="fil156" points="70.07,-0.39 70.46,-0.18 36.71,65.55 36.32,65.34 "/>
    <polygon id="_202" class="fil157" points="70.33,-0.25 70.72,-0.05 36.98,65.68 36.58,65.48 "/>
    <polygon id="_203" class="fil158" points="70.59,-0.12 70.99,0.09 37.24,65.82 36.84,65.61 "/>
    <polygon id="_204" class="fil158" points="70.86,0.02 71.25,0.22 37.5,65.95 37.11,65.75 "/>
    <polygon id="_205" class="fil159" points="71.12,0.15 71.51,0.36 37.77,66.09 37.37,65.88 "/>
    <polygon id="_206" class="fil160" points="71.38,0.29 71.78,0.49 38.03,66.22 37.64,66.02 "/>
    <polygon id="_207" class="fil160" points="71.65,0.42 72.04,0.63 38.29,66.36 37.9,66.16 "/>
    <polygon id="_208" class="fil161" points="71.91,0.56 72.31,0.76 38.56,66.49 38.16,66.29 "/>
    <polygon id="_209" class="fil161" points="72.17,0.69 72.57,0.9 38.82,66.63 38.43,66.43 "/>
    <polygon id="_210" class="fil162" points="72.44,0.83 72.83,1.03 39.08,66.76 38.69,66.56 "/>
    <polygon id="_211" class="fil163" points="72.7,0.97 73.1,1.17 39.35,66.9 38.95,66.7 "/>
    <polygon id="_212" class="fil163" points="72.96,1.1 73.36,1.3 39.61,67.03 39.22,66.83 "/>
    <polygon id="_213" class="fil164" points="73.23,1.24 73.62,1.44 39.88,67.17 39.48,66.97 "/>
    <polygon id="_214" class="fil165" points="73.49,1.37 73.89,1.57 40.14,67.31 39.74,67.1 "/>
    <polygon id="_215" class="fil165" points="73.76,1.51 74.15,1.71 40.4,67.44 40.01,67.24 "/>
    <polygon id="_216" class="fil166" points="74.02,1.64 74.41,1.84 40.67,67.58 40.27,67.37 "/>
    <polygon id="_217" class="fil167" points="74.28,1.78 74.68,1.98 40.93,67.71 40.53,67.51 "/>
    <polygon id="_218" class="fil168" points="74.55,1.91 74.94,2.12 41.19,67.85 40.8,67.64 "/>
    <polygon id="_219" class="fil169" points="74.81,2.05 75.2,2.25 41.46,67.98 41.06,67.78 "/>
    <polygon id="_220" class="fil170" points="75.07,2.18 75.47,2.39 41.72,68.12 41.32,67.91 "/>
    <polygon id="_221" class="fil171" points="75.34,2.32 75.73,2.52 41.98,68.25 41.59,68.05 "/>
    <polygon id="_222" class="fil172" points="75.6,2.45 76,2.66 42.25,68.39 41.85,68.18 "/>
    <polygon id="_223" class="fil173" points="75.86,2.59 76.26,2.79 42.51,68.52 42.12,68.32 "/>
    <polygon id="_224" class="fil174" points="76.13,2.72 76.52,2.93 42.77,68.66 42.38,68.45 "/>
    <polygon id="_225" class="fil174" points="76.39,2.86 76.16,2.74 42.41,68.47 42.64,68.59 "/>
   </g>
  </g>
  <path class="fil175" d="M43.18 32.98l-2.65 -0.08 -0.01 -2.79 -1.26 0.01c-0.18,0.37 -2.96,3.83 -3.39,4.4 -0.4,0.54 -0.25,1.6 -0.26,2.43l3.11 -0 0.01 1.09 1.81 0 0.02 -1.31c0.89,-0.4 0.86,-0.52 1.28,-1.42l-4.36 -0.02 1.46 -1.93 0.02 1.48c2.61,0.03 3.36,0.42 4.22,-1.87z"/>
 </g>
</svg>
