<svg width="24" height="24" viewBox="0 0 24 24" fill="none" xmlns="http://www.w3.org/2000/svg">
<rect width="24" height="24" rx="12" fill="#878787"/>
<path d="M17.5446 6.99469C16.5073 6.52622 15.4127 6.19217 14.288 6.0009C14.2778 5.99893 14.2671 6.00022 14.2577 6.00458C14.2482 6.00894 14.2404 6.01615 14.2354 6.02517C14.0954 6.27116 13.9394 6.59193 13.83 6.84513C12.6177 6.66394 11.3845 6.66394 10.1721 6.84513C10.0505 6.56457 9.91315 6.29084 9.76082 6.02517C9.75557 6.01635 9.74772 6.00932 9.73832 6.00498C9.72892 6.00065 9.7184 5.99923 9.70816 6.0009C8.58342 6.19177 7.48871 6.52584 6.45158 6.99469C6.4428 6.99832 6.43536 7.0045 6.43025 7.01241C4.35564 10.062 3.78699 13.0362 4.06632 15.973C4.067 15.9803 4.06918 15.9874 4.07273 15.9938C4.07629 16.0002 4.08114 16.0059 4.08698 16.0104C5.29468 16.8908 6.64565 17.5629 8.0822 17.998C8.09233 18.0009 8.10311 18.0007 8.11311 17.9974C8.12311 17.9941 8.13186 17.9879 8.1382 17.9796C8.44703 17.5667 8.72041 17.1292 8.95551 16.6716C8.95879 16.6653 8.96068 16.6585 8.96106 16.6514C8.96144 16.6444 8.9603 16.6374 8.95772 16.6308C8.95514 16.6242 8.95117 16.6183 8.94608 16.6133C8.94099 16.6084 8.93489 16.6045 8.92818 16.6021C8.49714 16.4398 8.07984 16.2441 7.68021 16.0169C7.67289 16.0128 7.66672 16.0069 7.66227 15.9998C7.65781 15.9927 7.6552 15.9847 7.65468 15.9764C7.65415 15.9681 7.65572 15.9597 7.65924 15.9522C7.66277 15.9446 7.66814 15.938 7.67488 15.933C7.75904 15.871 7.84172 15.8072 7.92287 15.7414C7.92997 15.7358 7.93853 15.7322 7.94759 15.731C7.95666 15.7298 7.96587 15.7312 7.97421 15.7349C10.5928 16.911 13.4274 16.911 16.0153 15.7349C16.0237 15.731 16.0331 15.7296 16.0423 15.7308C16.0515 15.732 16.0601 15.7356 16.0673 15.7414C16.1473 15.8057 16.2313 15.8713 16.316 15.933C16.3226 15.9379 16.328 15.9444 16.3315 15.9518C16.3351 15.9593 16.3367 15.9675 16.3363 15.9757C16.3359 15.9839 16.3335 15.9919 16.3292 15.9989C16.325 16.006 16.3191 16.012 16.312 16.0163C15.9132 16.2456 15.4955 16.4413 15.0633 16.6014C15.0566 16.604 15.0505 16.6079 15.0454 16.6129C15.0403 16.6179 15.0363 16.6239 15.0338 16.6305C15.0312 16.6371 15.03 16.6442 15.0304 16.6513C15.0308 16.6584 15.0327 16.6653 15.036 16.6716C15.276 17.1295 15.5507 17.565 15.8526 17.979C15.8589 17.9874 15.8676 17.9937 15.8776 17.997C15.8877 18.0003 15.8985 18.0004 15.9086 17.9973C17.3476 17.5636 18.7008 16.8914 19.9099 16.0097C19.9157 16.0056 19.9207 16.0004 19.9244 15.9943C19.928 15.9881 19.9304 15.9814 19.9312 15.9743C20.2645 12.5783 19.3725 9.62842 17.5653 7.01372C17.561 7.0049 17.5537 6.9979 17.5446 6.99404V6.99469ZM9.34683 14.1842C8.55819 14.1842 7.90887 13.4724 7.90887 12.5974C7.90887 11.7229 8.54619 11.0106 9.34683 11.0106C10.1535 11.0106 10.7975 11.7295 10.7848 12.598C10.7848 13.4724 10.1475 14.1842 9.34683 14.1842ZM14.6633 14.1842C13.8747 14.1842 13.2254 13.4724 13.2254 12.5974C13.2254 11.7229 13.862 11.0106 14.6633 11.0106C15.47 11.0106 16.114 11.7295 16.1013 12.598C16.1013 13.4724 15.4707 14.1842 14.6633 14.1842Z" fill="black"/>
</svg>
