<?xml version="1.0" encoding="UTF-8"?>
<!DOCTYPE svg PUBLIC "-//W3C//DTD SVG 1.1//EN" "http://www.w3.org/Graphics/SVG/1.1/DTD/svg11.dtd">
<!-- Creator: CorelDRAW -->
<svg xmlns="http://www.w3.org/2000/svg" xml:space="preserve" width="1in" height="0.872679in" version="1.1" style="shape-rendering:geometricPrecision; text-rendering:geometricPrecision; image-rendering:optimizeQuality; fill-rule:evenodd; clip-rule:evenodd"
viewBox="0 0 232.52 202.92"
 xmlns:xlink="http://www.w3.org/1999/xlink"
 xmlns:xodm="http://www.corel.com/coreldraw/odm/2003">
 <defs>
  <style type="text/css">
   <![CDATA[
    .str0 {stroke:#373435;stroke-width:7.77;stroke-miterlimit:2.61313}
    .fil0 {fill:none}
    .fil16 {fill:#373435}
    .fil1 {fill:#373435}
    .fil15 {fill:#383637}
    .fil14 {fill:#3A3939}
    .fil13 {fill:#3B3A3B}
    .fil12 {fill:#3E3D3E}
    .fil11 {fill:#3F3F40}
    .fil10 {fill:#414143}
    .fil9 {fill:#434345}
    .fil8 {fill:#444648}
    .fil7 {fill:#464749}
    .fil6 {fill:#484A4C}
    .fil5 {fill:#484B4D}
    .fil4 {fill:#4B4E50}
    .fil3 {fill:#4C4F52}
    .fil2 {fill:#4E5154}
    .fil17 {fill:#4F5356}
    .fil18 {fill:#505558}
    .fil19 {fill:#51565A}
    .fil20 {fill:#53595C}
    .fil21 {fill:#545A5E}
    .fil22 {fill:#565C60}
    .fil23 {fill:#565E61}
    .fil24 {fill:#586063}
    .fil25 {fill:#596165}
    .fil26 {fill:#5A6367}
    .fil27 {fill:#5B6469}
    .fil28 {fill:#5D666B}
    .fil29 {fill:#5D686C}
    .fil30 {fill:#5F6A6E}
    .fil31 {fill:#606B70}
    .fil32 {fill:#616D72}
    .fil33 {fill:#616E73}
    .fil34 {fill:#637075}
    .fil35 {fill:#637177}
    .fil36 {fill:#647379}
    .fil37 {fill:#65747A}
    .fil38 {fill:#66767C}
    .fil39 {fill:#66777D}
    .fil40 {fill:#68787F}
    .fil41 {fill:#687980}
    .fil42 {fill:#697B82}
    .fil43 {fill:#6A7C84}
    .fil44 {fill:#6A7E86}
    .fil45 {fill:#6B7F86}
    .fil46 {fill:#6C8188}
    .fil47 {fill:#6C828A}
    .fil48 {fill:#6D848C}
    .fil49 {fill:#6E858D}
    .fil50 {fill:#6E868F}
    .fil51 {fill:#6F8790}
    .fil52 {fill:#708992}
    .fil55 {fill:#718B95}
    .fil54 {fill:#708B94}
    .fil53 {fill:#708A93}
    .fil57 {fill:#718D96}
    .fil56 {fill:#718C95}
    .fil59 {fill:#728E98}
    .fil58 {fill:#718D97}
    .fil60 {fill:#728E98}
    .fil61 {fill:#728F99}
    .fil63 {fill:#73909A}
    .fil62 {fill:#728F99}
    .fil66 {fill:#73919B}
    .fil65 {fill:#72909B}
    .fil64 {fill:#72909A}
    .fil69 {fill:#73929D}
    .fil68 {fill:#73919C}
    .fil67 {fill:#72919B}
    .fil71 {fill:#73939D}
    .fil70 {fill:#73929D}
    .fil73 {fill:#74949F}
    .fil72 {fill:#73939E}
    .fil75 {fill:#7495A0}
    .fil74 {fill:#73949F}
    .fil77 {fill:#7496A1}
    .fil76 {fill:#7495A1}
    .fil78 {fill:#7496A2}
    .fil80 {fill:#7597A2}
    .fil79 {fill:#7496A1}
    .fil82 {fill:#7598A4}
    .fil81 {fill:#7597A3}
    .fil85 {fill:#7699A5}
    .fil84 {fill:#7599A4}
    .fil83 {fill:#7598A4}
    .fil88 {fill:#769AA6}
    .fil87 {fill:#769AA6}
    .fil86 {fill:#7599A5}
    .fil90 {fill:#769BA7}
    .fil89 {fill:#769AA6}
    .fil92 {fill:#769CA9}
    .fil91 {fill:#769BA8}
    .fil94 {fill:#769DAA}
    .fil93 {fill:#769CA9}
    .fil95 {fill:#769DAB}
    .fil96 {fill:#779EAB}
    .fil98 {fill:#779FAC}
    .fil97 {fill:#769EAC}
    .fil100 {fill:#77A0AE}
    .fil99 {fill:#77A0AD}
    .fil103 {fill:#77A1AF}
    .fil102 {fill:#77A1AE}
    .fil101 {fill:#76A0AE}
    .fil106 {fill:#78A2B0}
    .fil105 {fill:#77A2B0}
    .fil104 {fill:#77A1AF}
    .fil108 {fill:#77A3B1}
    .fil107 {fill:#77A2B0}
    .fil110 {fill:#78A4B2}
    .fil109 {fill:#77A3B2}
    .fil112 {fill:#78A5B4}
    .fil111 {fill:#77A5B3}
    .fil113 {fill:#78A6B5}
    .fil115 {fill:#78A6B5}
    .fil114 {fill:#78A6B4}
    .fil117 {fill:#78A7B6}
    .fil116 {fill:#78A7B5}
    .fil119 {fill:#78A8B7}
    .fil118 {fill:#78A8B7}
    .fil122 {fill:#78A9B9}
    .fil121 {fill:#78A9B8}
    .fil120 {fill:#78A8B7}
    .fil125 {fill:#78ABBA}
    .fil124 {fill:#78AAB9}
    .fil123 {fill:#78A9B9}
    .fil127 {fill:#78ABBB}
    .fil126 {fill:#78AABA}
    .fil129 {fill:#78ACBC}
    .fil128 {fill:#78ABBC}
    .fil131 {fill:#78ADBE}
    .fil130 {fill:#78ACBD}
    .fil132 {fill:#78ADBD}
    .fil134 {fill:#78AEBF}
    .fil133 {fill:#78ADBE}
    .fil136 {fill:#78AFC0}
    .fil135 {fill:#78AEBF}
    .fil138 {fill:#78B0C1}
    .fil137 {fill:#78B0C1}
    .fil141 {fill:#78B1C3}
    .fil140 {fill:#78B1C2}
    .fil139 {fill:#78B0C1}
    .fil144 {fill:#79B2C4}
    .fil143 {fill:#78B2C3}
    .fil142 {fill:#78B1C3}
    .fil146 {fill:#78B3C5}
    .fil145 {fill:#78B2C4}
    .fil148 {fill:#78B4C6}
    .fil147 {fill:#77B3C5}
    .fil149 {fill:#77B4C7}
    .fil150 {fill:#78B5C7}
    .fil152 {fill:#78B6C8}
    .fil151 {fill:#77B5C7}
    .fil154 {fill:#78B7C9}
    .fil153 {fill:#77B6C9}
    .fil156 {fill:#77B8CB}
    .fil155 {fill:#77B7CA}
    .fil158 {fill:#77B8CC}
    .fil157 {fill:#77B8CB}
    .fil160 {fill:#77B9CD}
    .fil159 {fill:#77B9CD}
    .fil162 {fill:#77BACE}
    .fil161 {fill:#76BACE}
    .fil163 {fill:#76BBCF}
    .fil164 {fill:#76BBCF}
    .fil166 {fill:#76BCD0}
    .fil165 {fill:#76BCD0}
    .fil169 {fill:#76BDD2}
    .fil168 {fill:#76BDD1}
    .fil167 {fill:#75BCD0}
    .fil172 {fill:#76BED3}
    .fil171 {fill:#75BED2}
    .fil170 {fill:#75BDD2}
    .fil174 {fill:#75BED4}
    .fil173 {fill:#75BED3}
    .fil175 {fill:url(#id1)}
   ]]>
  </style>
    <clipPath id="id0">
     <path d="M129.21 162.08c1.11,-10.37 12.35,-50.54 16.05,-66.11 0.82,-3.47 0.94,-6.24 2.91,-9.21 3.52,5.25 5.64,13.7 7.96,20.1 3.26,9.02 -0.99,11.63 -5.41,19.28 -2.25,3.9 -17.76,32.86 -21.5,35.94zm-32.85 -27.26c2.49,3.1 6.9,24.14 7.48,27.55 -3.13,-2.03 -6.4,-9.2 -8.12,-12.51l-17.16 -29.65c-5.67,-10.49 -4.21,-5.96 -0.4,-17.26 1.31,-3.88 4.41,-14.16 6.64,-16.38 1.76,3.59 11.68,44.25 11.56,48.24zm29.18 4.58l-8.54 35.18c-2.36,-2.13 -3.27,-6.82 -3.38,-10.24l-4.89 -17.95 -4.63 -20.49 -13.54 -52.51c3.73,-2.75 7.26,-4.12 11.49,-5.26 1.8,-1.36 13.52,-7.75 15.52,-5.75 4.79,1.12 20.76,8.18 24.6,10.6l-16.64 66.43zm2.5 -82.86l5.33 -2.75c2.59,2.02 3.05,3.88 3.89,7.06l-6.75 -2.46c-0.2,-0.12 -0.47,-0.25 -0.66,-0.37l-1.81 -1.48zm-32.68 4.61l3.14 -7.66c3.18,1.1 3.84,0.84 6.34,3.04l-3.62 2.26c-2.23,1.04 -3.34,1.47 -5.86,2.35zm60.94 -17.06c3.3,-3.93 24.01,12.78 25.04,14.42l-8.07 2.45 -13.86 2.94 -10.15 1.77 -7.63 -16.2 14.67 -5.39zm-73.06 21.41c-5.96,-0.82 -27.78,-4.73 -31.72,-6.99 2.61,-3.24 14.28,-10.49 17.74,-12.84 6.25,-4.25 4.73,-4.04 21.52,3.99l-7.54 15.84zm33.86 -44.18c3.02,2.65 11.78,19.83 12.48,24.37 -2.81,1.85 -11.98,7.4 -15.22,4.63l-11.55 -4.33 12.98 -26.86c2.97,1.21 0.78,-0.23 1.32,2.19zm11.7 1.18l19 12.68 1.35 1.63 -11.78 4.98 -8.57 -19.3zm-33.91 19.21c-3.72,-0.72 -8.99,-2.98 -11.46,-5.01 1.82,-2.82 17.44,-13.05 20.86,-14.23 -1.45,4.89 -6.65,14.59 -9.4,19.24zm-30.44 -2.6c-7.07,3.97 -17.76,13.05 -23.75,15.23 -2.87,-4.92 -19.33,-31.89 -19.62,-35.84 6.16,2.83 41.22,17.4 43.37,20.61zm103.69 -1.17l43.53 -19.6c-0.21,2.63 -17.67,33.34 -20.09,35.9 -2.86,-1.23 -21.54,-13.68 -23.44,-16.3zm-34.78 -23.76c-1.44,-1.11 -2.27,0.25 -0.98,-1.56 8.42,-0.42 64.13,-0.86 68.23,0.52l-39.55 18.79 -27.69 -17.75zm-71.48 13.3l-28.22 -13.2c-2.18,-1.2 -2.14,1.13 -1.67,-1.69 8.62,-0.33 64.89,-0.93 68.81,0.54 -1.82,2.76 -15.16,11.19 -18.22,13.32 -10.8,7.48 -8.01,6.61 -20.7,1.02zm-53.09 -10.45l25.34 44.72c2.54,1.58 1.56,1.52 3.53,2.57 4.43,2.37 34.05,7.68 41.5,9.16l-11.82 34.64 -0.76 7.14 47.13 83.71 5.04 -0.93 46.44 -80.74c1.92,-4.25 1.45,-3.57 0.85,-8.12 -2.28,-4.99 -12.36,-31.55 -12.69,-35.69 5.21,-1.29 11.89,-3.23 16.63,-2.8 2.03,-1.43 1.5,-0.98 4.71,-1.69 5.17,-0.85 19.68,-2.49 22.54,-6.83 11.42,-17.34 21.12,-38.58 30.11,-57.29l-220.26 -0.62c-5.4,3.52 0.68,7.61 1.72,12.75z"/>
    </clipPath>
  <linearGradient id="id1" gradientUnits="userSpaceOnUse" x1="101.25" y1="112.32" x2="134.04" y2="85.62">
   <stop offset="0" style="stop-opacity:1; stop-color:#59DEF6"/>
   <stop offset="0.741176" style="stop-opacity:1; stop-color:#34707C"/>
   <stop offset="1" style="stop-opacity:1; stop-color:#0F0202"/>
  </linearGradient>
 </defs>
 <g id="Layer_x0020_1">
  <metadata id="CorelCorpID_0Corel-Layer"/>
  <g>
   <path class="fil0 str0" d="M128.23 161.69c1.11,-10.37 12.35,-50.54 16.05,-66.11 0.82,-3.47 0.94,-6.24 2.91,-9.21 3.52,5.25 5.64,13.7 7.96,20.11 3.26,9.02 -0.99,11.63 -5.41,19.28 -2.25,3.9 -17.76,32.86 -21.5,35.94zm-32.85 -27.26c2.49,3.1 6.9,24.14 7.48,27.55 -3.13,-2.03 -6.4,-9.2 -8.12,-12.51l-17.16 -29.64c-5.67,-10.49 -4.21,-5.96 -0.4,-17.26 1.31,-3.88 4.41,-14.16 6.64,-16.38 1.76,3.59 11.68,44.25 11.56,48.24zm29.18 4.58l-8.54 35.18c-2.37,-2.13 -3.27,-6.82 -3.38,-10.24l-4.89 -17.95 -4.63 -20.49 -13.54 -52.51c3.73,-2.75 7.26,-4.12 11.49,-5.26 1.8,-1.35 13.52,-7.75 15.53,-5.75 4.79,1.12 20.76,8.18 24.6,10.6l-16.64 66.43zm2.5 -82.86l5.33 -2.75c2.59,2.02 3.05,3.88 3.89,7.06l-6.75 -2.47c-0.2,-0.12 -0.47,-0.24 -0.66,-0.37l-1.81 -1.48zm-32.68 4.61l3.14 -7.65c3.18,1.1 3.84,0.84 6.34,3.04l-3.62 2.26c-2.23,1.04 -3.34,1.47 -5.86,2.35zm60.94 -17.06c3.3,-3.93 24.01,12.78 25.04,14.42l-8.07 2.45 -13.86 2.94 -10.15 1.77 -7.63 -16.19 14.67 -5.39zm-73.06 21.41c-5.96,-0.82 -27.78,-4.73 -31.72,-6.99 2.61,-3.24 14.28,-10.49 17.74,-12.84 6.25,-4.25 4.73,-4.04 21.52,3.99l-7.54 15.84zm33.86 -44.18c3.02,2.65 11.78,19.83 12.48,24.37 -2.81,1.85 -11.98,7.4 -15.22,4.63l-11.55 -4.33 12.98 -26.86c2.97,1.21 0.78,-0.23 1.32,2.19zm11.7 1.18l19 12.68 1.35 1.63 -11.78 4.98 -8.57 -19.3zm-33.91 19.2c-3.72,-0.72 -8.99,-2.98 -11.46,-5.01 1.82,-2.82 17.44,-13.05 20.86,-14.23 -1.45,4.89 -6.65,14.59 -9.4,19.24zm-30.44 -2.6c-7.07,3.97 -17.76,13.05 -23.75,15.23 -2.87,-4.92 -19.33,-31.89 -19.62,-35.84 6.16,2.83 41.22,17.4 43.37,20.61zm103.69 -1.17l43.53 -19.6c-0.21,2.63 -17.67,33.34 -20.09,35.9 -2.86,-1.23 -21.54,-13.68 -23.44,-16.3zm-34.78 -23.76c-1.44,-1.11 -2.27,0.25 -0.98,-1.56 8.42,-0.42 64.13,-0.86 68.23,0.52l-39.55 18.79 -27.69 -17.75zm-71.48 13.3l-28.22 -13.2c-2.18,-1.19 -2.14,1.13 -1.67,-1.69 8.62,-0.33 64.89,-0.93 68.81,0.54 -1.82,2.76 -15.16,11.19 -18.23,13.32 -10.8,7.48 -8.01,6.61 -20.7,1.02zm-53.09 -10.45l25.34 44.72c2.54,1.58 1.56,1.52 3.53,2.57 4.43,2.37 34.05,7.68 41.5,9.16l-11.82 34.64 -0.76 7.14 47.13 83.71 5.04 -0.93 46.44 -80.74c1.92,-4.25 1.45,-3.57 0.85,-8.12 -2.28,-4.99 -12.36,-31.55 -12.69,-35.69 5.21,-1.29 11.89,-3.23 16.63,-2.8 2.03,-1.43 1.5,-0.98 4.71,-1.69 5.17,-0.85 19.68,-2.5 22.54,-6.83 11.42,-17.34 21.12,-38.58 30.11,-57.29l-220.26 -0.62c-5.4,3.52 0.68,7.61 1.72,12.75z"/>
   <path id="_1" class="fil1" d="M128.23 161.69c1.11,-10.37 12.35,-50.54 16.05,-66.11 0.82,-3.47 0.94,-6.24 2.91,-9.21 3.52,5.25 5.64,13.7 7.96,20.11 3.26,9.02 -0.99,11.63 -5.41,19.28 -2.25,3.9 -17.76,32.86 -21.5,35.94zm-32.85 -27.26c2.49,3.1 6.9,24.14 7.48,27.55 -3.13,-2.03 -6.4,-9.2 -8.12,-12.51l-17.16 -29.64c-5.67,-10.49 -4.21,-5.96 -0.4,-17.26 1.31,-3.88 4.41,-14.16 6.64,-16.38 1.76,3.59 11.68,44.25 11.56,48.24zm29.18 4.58l-8.54 35.18c-2.37,-2.13 -3.27,-6.82 -3.38,-10.24l-4.89 -17.95 -4.63 -20.49 -13.54 -52.51c3.73,-2.75 7.26,-4.12 11.49,-5.26 1.8,-1.35 13.52,-7.75 15.53,-5.75 4.79,1.12 20.76,8.18 24.6,10.6l-16.64 66.43zm2.5 -82.86l5.33 -2.75c2.59,2.02 3.05,3.88 3.89,7.06l-6.75 -2.47c-0.2,-0.12 -0.47,-0.24 -0.66,-0.37l-1.81 -1.48zm-32.68 4.61l3.14 -7.65c3.18,1.1 3.84,0.84 6.34,3.04l-3.62 2.26c-2.23,1.04 -3.34,1.47 -5.86,2.35zm60.94 -17.06c3.3,-3.93 24.01,12.78 25.04,14.42l-8.07 2.45 -13.86 2.94 -10.15 1.77 -7.63 -16.19 14.67 -5.39zm-73.06 21.41c-5.96,-0.82 -27.78,-4.73 -31.72,-6.99 2.61,-3.24 14.28,-10.49 17.74,-12.84 6.25,-4.25 4.73,-4.04 21.52,3.99l-7.54 15.84zm33.86 -44.18c3.02,2.65 11.78,19.83 12.48,24.37 -2.81,1.85 -11.98,7.4 -15.22,4.63l-11.55 -4.33 12.98 -26.86c2.97,1.21 0.78,-0.23 1.32,2.19zm11.7 1.18l19 12.68 1.35 1.63 -11.78 4.98 -8.57 -19.3zm-33.91 19.2c-3.72,-0.72 -8.99,-2.98 -11.46,-5.01 1.82,-2.82 17.44,-13.05 20.86,-14.23 -1.45,4.89 -6.65,14.59 -9.4,19.24zm-30.44 -2.6c-7.07,3.97 -17.76,13.05 -23.75,15.23 -2.87,-4.92 -19.33,-31.89 -19.62,-35.84 6.16,2.83 41.22,17.4 43.37,20.61zm103.69 -1.17l43.53 -19.6c-0.21,2.63 -17.67,33.34 -20.09,35.9 -2.86,-1.23 -21.54,-13.68 -23.44,-16.3zm-34.78 -23.76c-1.44,-1.11 -2.27,0.25 -0.98,-1.56 8.42,-0.42 64.13,-0.86 68.23,0.52l-39.55 18.79 -27.69 -17.75zm-71.48 13.3l-28.22 -13.2c-2.18,-1.19 -2.14,1.13 -1.67,-1.69 8.62,-0.33 64.89,-0.93 68.81,0.54 -1.82,2.76 -15.16,11.19 -18.23,13.32 -10.8,7.48 -8.01,6.61 -20.7,1.02zm-53.09 -10.45l25.34 44.72c2.54,1.58 1.56,1.52 3.53,2.57 4.43,2.37 34.05,7.68 41.5,9.16l-11.82 34.64 -0.76 7.14 47.13 83.71 5.04 -0.93 46.44 -80.74c1.92,-4.25 1.45,-3.57 0.85,-8.12 -2.28,-4.99 -12.36,-31.55 -12.69,-35.69 5.21,-1.29 11.89,-3.23 16.63,-2.8 2.03,-1.43 1.5,-0.98 4.71,-1.69 5.17,-0.85 19.68,-2.5 22.54,-6.83 11.42,-17.34 21.12,-38.58 30.11,-57.29l-220.26 -0.62c-5.4,3.52 0.68,7.61 1.72,12.75z"/>
  </g>
  <g>
   <g style="clip-path:url(#id0)">
    <polygon class="fil2" points="49.92,-86.19 50.48,-85.9 -52.08,113.86 -52.64,113.58 "/>
    <polygon id="_1_0" class="fil3" points="50.08,-86.11 51.28,-85.49 -51.28,114.27 -52.48,113.66 "/>
    <polygon id="_2" class="fil4" points="50.88,-85.69 52.08,-85.08 -50.48,114.68 -51.68,114.07 "/>
    <polygon id="_3" class="fil5" points="51.68,-85.28 52.88,-84.67 -49.68,115.1 -50.88,114.48 "/>
    <polygon id="_4" class="fil6" points="52.48,-84.87 53.68,-84.26 -48.88,115.51 -50.08,114.89 "/>
    <polygon id="_5" class="fil7" points="53.28,-84.46 54.48,-83.84 -48.08,115.92 -49.28,115.3 "/>
    <polygon id="_6" class="fil8" points="54.08,-84.05 55.29,-83.43 -47.28,116.33 -48.48,115.71 "/>
    <polygon id="_7" class="fil9" points="54.88,-83.64 56.09,-83.02 -46.48,116.74 -47.68,116.12 "/>
    <polygon id="_8" class="fil10" points="55.69,-83.23 56.89,-82.61 -45.68,117.15 -46.88,116.53 "/>
    <polygon id="_9" class="fil11" points="56.49,-82.82 57.69,-82.2 -44.88,117.56 -46.08,116.95 "/>
    <polygon id="_10" class="fil12" points="57.29,-82.41 58.49,-81.79 -44.07,117.97 -45.28,117.36 "/>
    <polygon id="_11" class="fil13" points="58.09,-81.99 59.29,-81.38 -43.27,118.38 -44.48,117.77 "/>
    <polygon id="_12" class="fil14" points="58.89,-81.58 60.09,-80.97 -42.47,118.8 -43.67,118.18 "/>
    <polygon id="_13" class="fil15" points="59.69,-81.17 60.89,-80.56 -41.67,119.21 -42.87,118.59 "/>
    <polygon id="_14" class="fil16" points="60.49,-80.76 61.69,-80.14 -40.87,119.62 -42.07,119 "/>
    <polygon id="_15" class="fil15" points="61.29,-80.35 62.49,-79.73 -40.07,120.03 -41.27,119.41 "/>
    <polygon id="_16" class="fil14" points="62.09,-79.94 63.29,-79.32 -39.27,120.44 -40.47,119.82 "/>
    <polygon id="_17" class="fil13" points="62.89,-79.53 64.09,-78.91 -38.47,120.85 -39.67,120.24 "/>
    <polygon id="_18" class="fil12" points="63.69,-79.12 64.89,-78.5 -37.67,121.26 -38.87,120.65 "/>
    <polygon id="_19" class="fil11" points="64.49,-78.7 65.7,-78.09 -36.87,121.67 -38.07,121.06 "/>
    <polygon id="_20" class="fil10" points="65.3,-78.29 66.5,-77.68 -36.07,122.09 -37.27,121.47 "/>
    <polygon id="_21" class="fil9" points="66.1,-77.88 67.3,-77.27 -35.27,122.5 -36.47,121.88 "/>
    <polygon id="_22" class="fil8" points="66.9,-77.47 68.1,-76.85 -34.47,122.91 -35.67,122.29 "/>
    <polygon id="_23" class="fil7" points="67.7,-77.06 68.9,-76.44 -33.66,123.32 -34.86,122.7 "/>
    <polygon id="_24" class="fil6" points="68.5,-76.65 69.7,-76.03 -32.86,123.73 -34.06,123.11 "/>
    <polygon id="_25" class="fil5" points="69.3,-76.24 70.5,-75.62 -32.06,124.14 -33.26,123.52 "/>
    <polygon id="_26" class="fil4" points="70.1,-75.83 71.3,-75.21 -31.26,124.55 -32.46,123.94 "/>
    <polygon id="_27" class="fil3" points="70.9,-75.42 72.1,-74.8 -30.46,124.96 -31.66,124.35 "/>
    <polygon id="_28" class="fil2" points="71.7,-75 72.9,-74.39 -29.66,125.38 -30.86,124.76 "/>
    <polygon id="_29" class="fil17" points="72.5,-74.59 73.7,-73.98 -28.86,125.79 -30.06,125.17 "/>
    <polygon id="_30" class="fil18" points="73.3,-74.18 74.51,-73.56 -28.06,126.2 -29.26,125.58 "/>
    <polygon id="_31" class="fil19" points="74.11,-73.77 75.31,-73.15 -27.26,126.61 -28.46,125.99 "/>
    <polygon id="_32" class="fil20" points="74.91,-73.36 76.11,-72.74 -26.46,127.02 -27.66,126.4 "/>
    <polygon id="_33" class="fil21" points="75.71,-72.95 76.91,-72.33 -25.66,127.43 -26.86,126.81 "/>
    <polygon id="_34" class="fil22" points="76.51,-72.54 77.71,-71.92 -24.85,127.84 -26.06,127.23 "/>
    <polygon id="_35" class="fil23" points="77.31,-72.13 78.51,-71.51 -24.05,128.25 -25.25,127.64 "/>
    <polygon id="_36" class="fil24" points="78.11,-71.71 79.31,-71.1 -23.25,128.67 -24.45,128.05 "/>
    <polygon id="_37" class="fil25" points="78.91,-71.3 80.11,-70.69 -22.45,129.08 -23.65,128.46 "/>
    <polygon id="_38" class="fil26" points="79.71,-70.89 80.91,-70.27 -21.65,129.49 -22.85,128.87 "/>
    <polygon id="_39" class="fil27" points="80.51,-70.48 81.71,-69.86 -20.85,129.9 -22.05,129.28 "/>
    <polygon id="_40" class="fil28" points="81.31,-70.07 82.51,-69.45 -20.05,130.31 -21.25,129.69 "/>
    <polygon id="_41" class="fil29" points="82.11,-69.66 83.32,-69.04 -19.25,130.72 -20.45,130.1 "/>
    <polygon id="_42" class="fil30" points="82.91,-69.25 84.12,-68.63 -18.45,131.13 -19.65,130.52 "/>
    <polygon id="_43" class="fil31" points="83.71,-68.84 84.92,-68.22 -17.65,131.54 -18.85,130.93 "/>
    <polygon id="_44" class="fil32" points="84.52,-68.42 85.72,-67.81 -16.85,131.95 -18.05,131.34 "/>
    <polygon id="_45" class="fil33" points="85.32,-68.01 86.52,-67.4 -16.04,132.37 -17.25,131.75 "/>
    <polygon id="_46" class="fil34" points="86.12,-67.6 87.32,-66.99 -15.24,132.78 -16.45,132.16 "/>
    <polygon id="_47" class="fil35" points="86.92,-67.19 88.12,-66.57 -14.44,133.19 -15.64,132.57 "/>
    <polygon id="_48" class="fil36" points="87.72,-66.78 88.92,-66.16 -13.64,133.6 -14.84,132.98 "/>
    <polygon id="_49" class="fil37" points="88.52,-66.37 89.72,-65.75 -12.84,134.01 -14.04,133.39 "/>
    <polygon id="_50" class="fil38" points="89.32,-65.96 90.52,-65.34 -12.04,134.42 -13.24,133.8 "/>
    <polygon id="_51" class="fil39" points="90.12,-65.55 91.32,-64.93 -11.24,134.83 -12.44,134.22 "/>
    <polygon id="_52" class="fil40" points="90.92,-65.14 92.12,-64.52 -10.44,135.24 -11.64,134.63 "/>
    <polygon id="_53" class="fil41" points="91.72,-64.72 92.92,-64.11 -9.64,135.65 -10.84,135.04 "/>
    <polygon id="_54" class="fil42" points="92.52,-64.31 93.73,-63.7 -8.84,136.07 -10.04,135.45 "/>
    <polygon id="_55" class="fil43" points="93.33,-63.9 94.53,-63.29 -8.04,136.48 -9.24,135.86 "/>
    <polygon id="_56" class="fil44" points="94.13,-63.49 95.33,-62.87 -7.24,136.89 -8.44,136.27 "/>
    <polygon id="_57" class="fil45" points="94.93,-63.08 96.13,-62.46 -6.44,137.3 -7.64,136.68 "/>
    <polygon id="_58" class="fil46" points="95.73,-62.67 96.93,-62.05 -5.63,137.71 -6.84,137.09 "/>
    <polygon id="_59" class="fil47" points="96.53,-62.26 97.73,-61.64 -4.83,138.12 -6.03,137.5 "/>
    <polygon id="_60" class="fil48" points="97.33,-61.85 98.53,-61.23 -4.03,138.53 -5.23,137.92 "/>
    <polygon id="_61" class="fil49" points="98.13,-61.44 99.33,-60.82 -3.23,138.94 -4.43,138.33 "/>
    <polygon id="_62" class="fil50" points="98.93,-61.02 100.13,-60.41 -2.43,139.35 -3.63,138.74 "/>
    <polygon id="_63" class="fil51" points="99.73,-60.61 100.93,-60 -1.63,139.77 -2.83,139.15 "/>
    <polygon id="_64" class="fil52" points="100.53,-60.2 101.73,-59.59 -0.83,140.18 -2.03,139.56 "/>
    <polygon id="_65" class="fil53" points="101.33,-59.79 102.54,-59.17 -0.03,140.59 -1.23,139.97 "/>
    <polygon id="_66" class="fil54" points="102.13,-59.38 103.34,-58.76 0.77,141 -0.43,140.38 "/>
    <polygon id="_67" class="fil55" points="102.93,-58.97 104.14,-58.35 1.57,141.41 0.37,140.79 "/>
    <polygon id="_68" class="fil55" points="103.74,-58.56 104.94,-57.94 2.37,141.82 1.17,141.21 "/>
    <polygon id="_69" class="fil56" points="104.54,-58.15 105.74,-57.53 3.18,142.23 1.97,141.62 "/>
    <polygon id="_70" class="fil57" points="105.34,-57.73 106.54,-57.12 3.98,142.64 2.77,142.03 "/>
    <polygon id="_71" class="fil57" points="106.14,-57.32 107.34,-56.71 4.78,143.06 3.58,142.44 "/>
    <polygon id="_72" class="fil58" points="106.94,-56.91 108.14,-56.3 5.58,143.47 4.38,142.85 "/>
    <polygon id="_73" class="fil58" points="107.74,-56.5 108.94,-55.88 6.38,143.88 5.18,143.26 "/>
    <polygon id="_74" class="fil59" points="108.54,-56.09 109.74,-55.47 7.18,144.29 5.98,143.67 "/>
    <polygon id="_75" class="fil60" points="109.34,-55.68 110.54,-55.06 7.98,144.7 6.78,144.08 "/>
    <polygon id="_76" class="fil60" points="110.14,-55.27 111.34,-54.65 8.78,145.11 7.58,144.5 "/>
    <polygon id="_77" class="fil61" points="110.94,-54.86 112.15,-54.24 9.58,145.52 8.38,144.91 "/>
    <polygon id="_78" class="fil62" points="111.74,-54.45 112.95,-53.83 10.38,145.93 9.18,145.32 "/>
    <polygon id="_79" class="fil62" points="112.55,-54.03 113.75,-53.42 11.18,146.35 9.98,145.73 "/>
    <polygon id="_80" class="fil63" points="113.35,-53.62 114.55,-53.01 11.99,146.76 10.78,146.14 "/>
    <polygon id="_81" class="fil64" points="114.15,-53.21 115.35,-52.59 12.79,147.17 11.58,146.55 "/>
    <polygon id="_82" class="fil65" points="114.95,-52.8 116.15,-52.18 13.59,147.58 12.38,146.96 "/>
    <polygon id="_83" class="fil66" points="115.75,-52.39 116.95,-51.77 14.39,147.99 13.19,147.37 "/>
    <polygon id="_84" class="fil67" points="116.55,-51.98 117.75,-51.36 15.19,148.4 13.99,147.78 "/>
    <polygon id="_85" class="fil68" points="117.35,-51.57 118.55,-50.95 15.99,148.81 14.79,148.2 "/>
    <polygon id="_86" class="fil69" points="118.15,-51.16 119.35,-50.54 16.79,149.22 15.59,148.61 "/>
    <polygon id="_87" class="fil70" points="118.95,-50.74 120.15,-50.13 17.59,149.64 16.39,149.02 "/>
    <polygon id="_88" class="fil71" points="119.75,-50.33 120.95,-49.72 18.39,150.05 17.19,149.43 "/>
    <polygon id="_89" class="fil71" points="120.55,-49.92 121.76,-49.3 19.19,150.46 17.99,149.84 "/>
    <polygon id="_90" class="fil72" points="121.36,-49.51 122.56,-48.89 19.99,150.87 18.79,150.25 "/>
    <polygon id="_91" class="fil73" points="122.16,-49.1 123.36,-48.48 20.79,151.28 19.59,150.66 "/>
    <polygon id="_92" class="fil73" points="122.96,-48.69 124.16,-48.07 21.59,151.69 20.39,151.07 "/>
    <polygon id="_93" class="fil74" points="123.76,-48.28 124.96,-47.66 22.4,152.1 21.19,151.48 "/>
    <polygon id="_94" class="fil75" points="124.56,-47.87 125.76,-47.25 23.2,152.51 22,151.9 "/>
    <polygon id="_95" class="fil75" points="125.36,-47.45 126.56,-46.84 24,152.92 22.8,152.31 "/>
    <polygon id="_96" class="fil76" points="126.16,-47.04 127.36,-46.43 24.8,153.33 23.6,152.72 "/>
    <polygon id="_97" class="fil76" points="126.96,-46.63 128.16,-46.02 25.6,153.75 24.4,153.13 "/>
    <polygon id="_98" class="fil77" points="127.76,-46.22 128.96,-45.6 26.4,154.16 25.2,153.54 "/>
    <polygon id="_99" class="fil78" points="128.56,-45.81 129.76,-45.19 27.2,154.57 26,153.95 "/>
    <polygon id="_100" class="fil79" points="129.36,-45.4 130.56,-44.78 28,154.98 26.8,154.36 "/>
    <polygon id="_101" class="fil80" points="130.16,-44.99 131.37,-44.37 28.8,155.39 27.6,154.77 "/>
    <polygon id="_102" class="fil81" points="130.96,-44.58 132.17,-43.96 29.6,155.8 28.4,155.18 "/>
    <polygon id="_103" class="fil81" points="131.77,-44.17 132.97,-43.55 30.4,156.21 29.2,155.6 "/>
    <polygon id="_104" class="fil82" points="132.57,-43.75 133.77,-43.14 31.21,156.62 30,156.01 "/>
    <polygon id="_105" class="fil83" points="133.37,-43.34 134.57,-42.73 32.01,157.04 30.8,156.42 "/>
    <polygon id="_106" class="fil84" points="134.17,-42.93 135.37,-42.32 32.81,157.45 31.6,156.83 "/>
    <polygon id="_107" class="fil85" points="134.97,-42.52 136.17,-41.9 33.61,157.86 32.41,157.24 "/>
    <polygon id="_108" class="fil86" points="135.77,-42.11 136.97,-41.49 34.41,158.27 33.21,157.65 "/>
    <polygon id="_109" class="fil87" points="136.57,-41.7 137.77,-41.08 35.21,158.68 34.01,158.06 "/>
    <polygon id="_110" class="fil88" points="137.37,-41.29 138.57,-40.67 36.01,159.09 34.81,158.47 "/>
    <polygon id="_111" class="fil89" points="138.17,-40.88 139.37,-40.26 36.81,159.5 35.61,158.89 "/>
    <polygon id="_112" class="fil90" points="138.97,-40.47 140.17,-39.85 37.61,159.91 36.41,159.3 "/>
    <polygon id="_113" class="fil90" points="139.77,-40.05 140.98,-39.44 38.41,160.32 37.21,159.71 "/>
    <polygon id="_114" class="fil91" points="140.58,-39.64 141.78,-39.03 39.21,160.74 38.01,160.12 "/>
    <polygon id="_115" class="fil92" points="141.38,-39.23 142.58,-38.62 40.01,161.15 38.81,160.53 "/>
    <polygon id="_116" class="fil92" points="142.18,-38.82 143.38,-38.2 40.81,161.56 39.61,160.94 "/>
    <polygon id="_117" class="fil93" points="142.98,-38.41 144.18,-37.79 41.62,161.97 40.41,161.35 "/>
    <polygon id="_118" class="fil94" points="143.78,-38 144.98,-37.38 42.42,162.38 41.22,161.76 "/>
    <polygon id="_119" class="fil94" points="144.58,-37.59 145.78,-36.97 43.22,162.79 42.02,162.18 "/>
    <polygon id="_120" class="fil95" points="145.38,-37.18 146.58,-36.56 44.02,163.2 42.82,162.59 "/>
    <polygon id="_121" class="fil95" points="146.18,-36.76 147.38,-36.15 44.82,163.61 43.62,163 "/>
    <polygon id="_122" class="fil96" points="146.98,-36.35 148.18,-35.74 45.62,164.03 44.42,163.41 "/>
    <polygon id="_123" class="fil97" points="147.78,-35.94 148.98,-35.33 46.42,164.44 45.22,163.82 "/>
    <polygon id="_124" class="fil97" points="148.58,-35.53 149.78,-34.91 47.22,164.85 46.02,164.23 "/>
    <polygon id="_125" class="fil98" points="149.39,-35.12 150.59,-34.5 48.02,165.26 46.82,164.64 "/>
    <polygon id="_126" class="fil99" points="150.19,-34.71 151.39,-34.09 48.82,165.67 47.62,165.05 "/>
    <polygon id="_127" class="fil99" points="150.99,-34.3 152.19,-33.68 49.62,166.08 48.42,165.47 "/>
    <polygon id="_128" class="fil100" points="151.79,-33.89 152.99,-33.27 50.43,166.49 49.22,165.88 "/>
    <polygon id="_129" class="fil101" points="152.59,-33.47 153.79,-32.86 51.23,166.9 50.03,166.29 "/>
    <polygon id="_130" class="fil102" points="153.39,-33.06 154.59,-32.45 52.03,167.32 50.83,166.7 "/>
    <polygon id="_131" class="fil103" points="154.19,-32.65 155.39,-32.04 52.83,167.73 51.63,167.11 "/>
    <polygon id="_132" class="fil104" points="154.99,-32.24 156.19,-31.62 53.63,168.14 52.43,167.52 "/>
    <polygon id="_133" class="fil105" points="155.79,-31.83 156.99,-31.21 54.43,168.55 53.23,167.93 "/>
    <polygon id="_134" class="fil106" points="156.59,-31.42 157.79,-30.8 55.23,168.96 54.03,168.34 "/>
    <polygon id="_135" class="fil107" points="157.39,-31.01 158.59,-30.39 56.03,169.37 54.83,168.75 "/>
    <polygon id="_136" class="fil108" points="158.19,-30.6 159.4,-29.98 56.83,169.78 55.63,169.17 "/>
    <polygon id="_137" class="fil108" points="158.99,-30.19 160.2,-29.57 57.63,170.19 56.43,169.58 "/>
    <polygon id="_138" class="fil109" points="159.8,-29.77 161,-29.16 58.43,170.6 57.23,169.99 "/>
    <polygon id="_139" class="fil110" points="160.6,-29.36 161.8,-28.75 59.23,171.02 58.03,170.4 "/>
    <polygon id="_140" class="fil110" points="161.4,-28.95 162.6,-28.33 60.04,171.43 58.83,170.81 "/>
    <polygon id="_141" class="fil111" points="162.2,-28.54 163.4,-27.92 60.84,171.84 59.63,171.22 "/>
    <polygon id="_142" class="fil112" points="163,-28.13 164.2,-27.51 61.64,172.25 60.44,171.63 "/>
    <polygon id="_143" class="fil112" points="163.8,-27.72 165,-27.1 62.44,172.66 61.24,172.04 "/>
    <polygon id="_144" class="fil113" points="164.6,-27.31 165.8,-26.69 63.24,173.07 62.04,172.45 "/>
    <polygon id="_145" class="fil114" points="165.4,-26.9 166.6,-26.28 64.04,173.48 62.84,172.87 "/>
    <polygon id="_146" class="fil115" points="166.2,-26.48 167.4,-25.87 64.84,173.89 63.64,173.28 "/>
    <polygon id="_147" class="fil116" points="167,-26.07 168.2,-25.46 65.64,174.3 64.44,173.69 "/>
    <polygon id="_148" class="fil116" points="167.8,-25.66 169,-25.05 66.44,174.72 65.24,174.1 "/>
    <polygon id="_149" class="fil117" points="168.61,-25.25 169.81,-24.63 67.24,175.13 66.04,174.51 "/>
    <polygon id="_150" class="fil118" points="169.41,-24.84 170.61,-24.22 68.04,175.54 66.84,174.92 "/>
    <polygon id="_151" class="fil118" points="170.21,-24.43 171.41,-23.81 68.84,175.95 67.64,175.33 "/>
    <polygon id="_152" class="fil119" points="171.01,-24.02 172.21,-23.4 69.64,176.36 68.44,175.74 "/>
    <polygon id="_153" class="fil120" points="171.81,-23.61 173.01,-22.99 70.45,176.77 69.25,176.15 "/>
    <polygon id="_154" class="fil121" points="172.61,-23.2 173.81,-22.58 71.25,177.18 70.05,176.57 "/>
    <polygon id="_155" class="fil122" points="173.41,-22.78 174.61,-22.17 72.05,177.59 70.85,176.98 "/>
    <polygon id="_156" class="fil123" points="174.21,-22.37 175.41,-21.76 72.85,178.01 71.65,177.39 "/>
    <polygon id="_157" class="fil124" points="175.01,-21.96 176.21,-21.35 73.65,178.42 72.45,177.8 "/>
    <polygon id="_158" class="fil125" points="175.81,-21.55 177.01,-20.93 74.45,178.83 73.25,178.21 "/>
    <polygon id="_159" class="fil126" points="176.61,-21.14 177.81,-20.52 75.25,179.24 74.05,178.62 "/>
    <polygon id="_160" class="fil127" points="177.41,-20.73 178.62,-20.11 76.05,179.65 74.85,179.03 "/>
    <polygon id="_161" class="fil127" points="178.22,-20.32 179.42,-19.7 76.85,180.06 75.65,179.44 "/>
    <polygon id="_162" class="fil128" points="179.02,-19.91 180.22,-19.29 77.65,180.47 76.45,179.86 "/>
    <polygon id="_163" class="fil129" points="179.82,-19.5 181.02,-18.88 78.45,180.88 77.25,180.27 "/>
    <polygon id="_164" class="fil129" points="180.62,-19.08 181.82,-18.47 79.26,181.3 78.05,180.68 "/>
    <polygon id="_165" class="fil130" points="181.42,-18.67 182.62,-18.06 80.06,181.71 78.86,181.09 "/>
    <polygon id="_166" class="fil131" points="182.22,-18.26 183.42,-17.65 80.86,182.12 79.66,181.5 "/>
    <polygon id="_167" class="fil132" points="183.02,-17.85 184.22,-17.23 81.66,182.53 80.46,181.91 "/>
    <polygon id="_168" class="fil133" points="183.82,-17.44 185.02,-16.82 82.46,182.94 81.26,182.32 "/>
    <polygon id="_169" class="fil133" points="184.62,-17.03 185.82,-16.41 83.26,183.35 82.06,182.73 "/>
    <polygon id="_170" class="fil134" points="185.42,-16.62 186.62,-16 84.06,183.76 82.86,183.15 "/>
    <polygon id="_171" class="fil135" points="186.22,-16.21 187.43,-15.59 84.86,184.17 83.66,183.56 "/>
    <polygon id="_172" class="fil135" points="187.02,-15.79 188.23,-15.18 85.66,184.58 84.46,183.97 "/>
    <polygon id="_173" class="fil136" points="187.83,-15.38 189.03,-14.77 86.46,185 85.26,184.38 "/>
    <polygon id="_174" class="fil137" points="188.63,-14.97 189.83,-14.36 87.26,185.41 86.06,184.79 "/>
    <polygon id="_175" class="fil137" points="189.43,-14.56 190.63,-13.94 88.07,185.82 86.86,185.2 "/>
    <polygon id="_176" class="fil138" points="190.23,-14.15 191.43,-13.53 88.87,186.23 87.66,185.61 "/>
    <polygon id="_177" class="fil139" points="191.03,-13.74 192.23,-13.12 89.67,186.64 88.47,186.02 "/>
    <polygon id="_178" class="fil140" points="191.83,-13.33 193.03,-12.71 90.47,187.05 89.27,186.44 "/>
    <polygon id="_179" class="fil141" points="192.63,-12.92 193.83,-12.3 91.27,187.46 90.07,186.85 "/>
    <polygon id="_180" class="fil142" points="193.43,-12.5 194.63,-11.89 92.07,187.87 90.87,187.26 "/>
    <polygon id="_181" class="fil143" points="194.23,-12.09 195.43,-11.48 92.87,188.29 91.67,187.67 "/>
    <polygon id="_182" class="fil144" points="195.03,-11.68 196.23,-11.07 93.67,188.7 92.47,188.08 "/>
    <polygon id="_183" class="fil145" points="195.83,-11.27 197.03,-10.65 94.47,189.11 93.27,188.49 "/>
    <polygon id="_184" class="fil146" points="196.63,-10.86 197.84,-10.24 95.27,189.52 94.07,188.9 "/>
    <polygon id="_185" class="fil146" points="197.44,-10.45 198.64,-9.83 96.07,189.93 94.87,189.31 "/>
    <polygon id="_186" class="fil147" points="198.24,-10.04 199.44,-9.42 96.87,190.34 95.67,189.72 "/>
    <polygon id="_187" class="fil148" points="199.04,-9.63 200.24,-9.01 97.67,190.75 96.47,190.14 "/>
    <polygon id="_188" class="fil148" points="199.84,-9.22 201.04,-8.6 98.48,191.16 97.27,190.55 "/>
    <polygon id="_189" class="fil149" points="200.64,-8.8 201.84,-8.19 99.28,191.57 98.08,190.96 "/>
    <polygon id="_190" class="fil150" points="201.44,-8.39 202.64,-7.78 100.08,191.99 98.88,191.37 "/>
    <polygon id="_191" class="fil150" points="202.24,-7.98 203.44,-7.37 100.88,192.4 99.68,191.78 "/>
    <polygon id="_192" class="fil151" points="203.04,-7.57 204.24,-6.95 101.68,192.81 100.48,192.19 "/>
    <polygon id="_193" class="fil151" points="203.84,-7.16 205.04,-6.54 102.48,193.22 101.28,192.6 "/>
    <polygon id="_194" class="fil152" points="204.64,-6.75 205.84,-6.13 103.28,193.63 102.08,193.01 "/>
    <polygon id="_195" class="fil153" points="205.44,-6.34 206.65,-5.72 104.08,194.04 102.88,193.42 "/>
    <polygon id="_196" class="fil153" points="206.24,-5.93 207.45,-5.31 104.88,194.45 103.68,193.84 "/>
    <polygon id="_197" class="fil154" points="207.05,-5.52 208.25,-4.9 105.68,194.86 104.48,194.25 "/>
    <polygon id="_198" class="fil155" points="207.85,-5.1 209.05,-4.49 106.48,195.27 105.28,194.66 "/>
    <polygon id="_199" class="fil155" points="208.65,-4.69 209.85,-4.08 107.29,195.69 106.08,195.07 "/>
    <polygon id="_200" class="fil156" points="209.45,-4.28 210.65,-3.67 108.09,196.1 106.88,195.48 "/>
    <polygon id="_201" class="fil156" points="210.25,-3.87 211.45,-3.25 108.89,196.51 107.69,195.89 "/>
    <polygon id="_202" class="fil157" points="211.05,-3.46 212.25,-2.84 109.69,196.92 108.49,196.3 "/>
    <polygon id="_203" class="fil158" points="211.85,-3.05 213.05,-2.43 110.49,197.33 109.29,196.71 "/>
    <polygon id="_204" class="fil158" points="212.65,-2.64 213.85,-2.02 111.29,197.74 110.09,197.12 "/>
    <polygon id="_205" class="fil159" points="213.45,-2.23 214.65,-1.61 112.09,198.15 110.89,197.54 "/>
    <polygon id="_206" class="fil160" points="214.25,-1.82 215.45,-1.2 112.89,198.56 111.69,197.95 "/>
    <polygon id="_207" class="fil160" points="215.05,-1.4 216.26,-0.79 113.69,198.98 112.49,198.36 "/>
    <polygon id="_208" class="fil161" points="215.85,-0.99 217.06,-0.38 114.49,199.39 113.29,198.77 "/>
    <polygon id="_209" class="fil161" points="216.66,-0.58 217.86,0.04 115.29,199.8 114.09,199.18 "/>
    <polygon id="_210" class="fil162" points="217.46,-0.17 218.66,0.45 116.1,200.21 114.89,199.59 "/>
    <polygon id="_211" class="fil163" points="218.26,0.24 219.46,0.86 116.9,200.62 115.69,200 "/>
    <polygon id="_212" class="fil163" points="219.06,0.65 220.26,1.27 117.7,201.03 116.49,200.41 "/>
    <polygon id="_213" class="fil164" points="219.86,1.06 221.06,1.68 118.5,201.44 117.3,200.83 "/>
    <polygon id="_214" class="fil165" points="220.66,1.47 221.86,2.09 119.3,201.85 118.1,201.24 "/>
    <polygon id="_215" class="fil165" points="221.46,1.89 222.66,2.5 120.1,202.27 118.9,201.65 "/>
    <polygon id="_216" class="fil166" points="222.26,2.3 223.46,2.91 120.9,202.68 119.7,202.06 "/>
    <polygon id="_217" class="fil167" points="223.06,2.71 224.26,3.33 121.7,203.09 120.5,202.47 "/>
    <polygon id="_218" class="fil168" points="223.86,3.12 225.06,3.74 122.5,203.5 121.3,202.88 "/>
    <polygon id="_219" class="fil169" points="224.66,3.53 225.87,4.15 123.3,203.91 122.1,203.29 "/>
    <polygon id="_220" class="fil170" points="225.47,3.94 226.67,4.56 124.1,204.32 122.9,203.7 "/>
    <polygon id="_221" class="fil171" points="226.27,4.35 227.47,4.97 124.9,204.73 123.7,204.12 "/>
    <polygon id="_222" class="fil172" points="227.07,4.76 228.27,5.38 125.7,205.14 124.5,204.53 "/>
    <polygon id="_223" class="fil173" points="227.87,5.18 229.07,5.79 126.51,205.55 125.3,204.94 "/>
    <polygon id="_224" class="fil174" points="228.67,5.59 229.87,6.2 127.31,205.97 126.11,205.35 "/>
    <polygon id="_225" class="fil174" points="229.47,6 228.77,5.64 126.21,205.4 126.91,205.76 "/>
   </g>
  </g>
  <path class="fil175" d="M130.03 97.11l-9.09 -0.27 -0.02 -9.57 -4.33 0.02c-0.62,1.28 -10.16,13.13 -11.63,15.11 -1.39,1.87 -0.86,5.47 -0.89,8.35l10.66 -0 0.03 3.73 6.21 0.01 0.06 -4.48c3.06,-1.38 2.94,-1.8 4.38,-4.86l-14.95 -0.06 5 -6.64 0.08 5.09c8.96,0.1 11.54,1.43 14.49,-6.43z"/>
 </g>
</svg>
