<svg width="24" height="24" viewBox="0 0 24 24" fill="none" xmlns="http://www.w3.org/2000/svg">
<rect width="24" height="24" rx="12" fill="#878787"/>
<path d="M12.3033 5.01181C13.0565 5 13.8054 5.007 14.5534 5C14.5987 5.89299 14.9155 6.8026 15.5604 7.43394C16.204 8.08104 17.1143 8.37724 18 8.47744V10.8265C17.17 10.7989 16.336 10.6239 15.5828 10.2617C15.2548 10.1111 14.9492 9.91733 14.6501 9.71913C14.6462 11.4237 14.657 13.1261 14.6393 14.8237C14.5944 15.6393 14.3289 16.4509 13.8611 17.1229C13.1083 18.2416 11.8017 18.971 10.4598 18.9937C9.63664 19.0414 8.81437 18.8139 8.11297 18.3948C6.95057 17.7 6.13262 16.4281 6.01349 15.063C5.99968 14.7712 5.99493 14.4798 6.00659 14.195C6.11018 13.085 6.65188 12.0231 7.49271 11.3008C8.44576 10.4594 9.7808 10.0586 11.0308 10.2958C11.0425 11.1599 11.0084 12.0231 11.0084 12.8872C10.4373 12.7 9.77001 12.7525 9.27104 13.1038C8.90674 13.3431 8.63006 13.7098 8.4859 14.1245C8.36677 14.4203 8.40087 14.7489 8.40777 15.063C8.5446 16.0203 9.45276 16.8249 10.4222 16.7379C11.0649 16.7309 11.6809 16.3529 12.0158 15.7994C12.1242 15.6056 12.2454 15.4074 12.2519 15.1794C12.3085 14.1359 12.286 13.0968 12.2929 12.0533C12.2977 9.70163 12.286 7.3565 12.3037 5.01225L12.3033 5.01181Z" fill="black"/>
</svg>
