<?xml version="1.0" encoding="UTF-8"?>
<!DOCTYPE svg PUBLIC "-//W3C//DTD SVG 1.1//EN" "http://www.w3.org/Graphics/SVG/1.1/DTD/svg11.dtd">
<!-- Creator: CorelDRAW -->
<svg xmlns="http://www.w3.org/2000/svg" xml:space="preserve" width="1475px" height="1500px" version="1.1" style="shape-rendering:geometricPrecision; text-rendering:geometricPrecision; image-rendering:optimizeQuality; fill-rule:evenodd; clip-rule:evenodd"
viewBox="0 0 1190.75 1211.01"
 xmlns:xlink="http://www.w3.org/1999/xlink"
 xmlns:xodm="http://www.corel.com/coreldraw/odm/2003"
 xmlns:svgjs="http://svgjs.com/svgjs">
 <defs>
  <style type="text/css">
   <![CDATA[
    .fil0 {fill:#54C4D8;fill-rule:nonzero}
   ]]>
  </style>
 </defs>
 <g id="Layer_x0020_1">
  <metadata id="CorelCorpID_0Corel-Layer"/>
  <g id="_1898970785328">
   <g>
    <path class="fil0" d="M317.67 531.22c-0.74,-0.01 -1.59,-0.01 -2.34,-0.01 -72.73,0 -142.87,27.29 -196.49,76.36 -83.4,80.54 -120.23,219.82 -85.72,323.9 17.53,51.48 50.29,96.58 93.87,129.18 146.44,113.79 351.8,143.01 461.16,150.32l1.34 -0.02c11.14,-0.01 20.16,-9.04 20.16,-20.18 0,-6.58 -3.21,-12.76 -8.6,-16.53 -40.06,-28.05 -80.32,-55.58 -123.11,-84.18 -27.39,-15.15 -48.45,-39.69 -59.18,-69.1 -1.46,-5.91 -2.21,-12 -2.21,-18.09 0,-21.06 8.87,-41.16 24.42,-55.36 11.69,-9.16 24.62,-16.76 38.34,-22.51 16.07,-6.88 31.27,-15.81 45.13,-26.47 23.59,-19.93 41.43,-45.86 51.6,-75.03 7.26,-19.03 11,-39.3 11,-59.68 0,-34.61 -10.73,-68.41 -30.69,-96.65l46.07 -46.08 12.27 -8.38c109.94,-75.02 208.49,-166.69 290.86,-271.17l180.01 -228.06c2.75,-3.61 4.28,-8.02 4.28,-12.56 0,-5.35 -2.13,-10.49 -5.91,-14.28l-80.73 -80.72c-3.79,-3.79 -8.92,-5.92 -14.28,-5.92 -4.53,0 -8.95,1.53 -12.5,4.34l-213.94 168.89c-113.24,89.44 -211.42,197.22 -289.57,318.46l-51.14 51.14c-31.17,-7.77 -63.24,-11.71 -95.4,-11.71 -2.89,0 -5.87,0.05 -8.7,0.1l0 0zm220.39 278.69c-7.75,22.28 -21.3,42.19 -39.19,57.57 -11.31,8.5 -23.66,15.62 -36.68,21.15 -17.1,7.25 -33.14,16.88 -47.56,28.54 -24.38,21.82 -38.33,53.01 -38.33,85.73 0,9.65 1.22,19.27 3.61,28.61 13.04,38.96 40.02,71.82 75.71,92.15 19.9,13.32 39.26,26.38 58.29,39.39 -147.98,-19.65 -274.64,-66.34 -362.09,-134.27 -37.2,-27.74 -65.25,-66.13 -80.33,-110.02 -29.46,-88.8 3.68,-212.82 75.47,-282.25 46.11,-41.78 106.24,-64.95 168.49,-64.95 1.01,0 2.08,0.03 3.06,0.03 2.76,-0.07 5.77,-0.11 8.61,-0.11 30.6,0 61.08,3.99 90.65,11.86l3.37 3.37c-56.31,1.52 -111.28,18.11 -159.09,47.9 -88.8,59.33 -156.03,180.75 -115.04,281.26l37.38 -15.26c-32.78,-80.33 26.42,-183.2 100.06,-232.44 53.46,-35.74 118.17,-41.88 175.73,-42.38l54.49 54.49c20.78,22.8 32.33,52.57 32.33,83.44 0,15.82 -3.06,31.52 -8.94,46.19l0 0zm249.45 -604.92l199.8 -157.76 55.34 55.34 -168.76 213.91c-79.85,101.26 -175.28,190.16 -281.9,262.9l-77.5 -77.5c74.5,-112.78 166.84,-213.03 272.98,-296.83l0.04 -0.06zm-298.93 328.18l72.37 72.38 -32.01 32.01 -72.37 -72.38 32.01 -32.01z" data-original="#000000"/>
    <polygon class="fil0" points="171.44,962.84 199.98,934.3 240.33,974.65 211.79,1003.19 " data-original="#000000"/>
    <path class="fil0" d="M1049.48 1170.65l-363.28 0 0 40.36 363.28 0c33.43,0 60.54,-27.11 60.54,-60.55 0,-33.43 -27.11,-60.54 -60.54,-60.54l-121.1 0c-11.14,0 -20.18,-9.04 -20.18,-20.19 0,-11.14 9.04,-20.18 20.18,-20.18l60.55 0c33.43,0 60.55,-27.11 60.55,-60.54 0,-33.44 -27.12,-60.55 -60.55,-60.55l-312.82 0c-27.86,0 -50.46,22.59 -50.46,50.46 0,5.57 -4.52,10.09 -10.09,10.09l-80.73 0c-27.86,0 -50.45,22.59 -50.45,50.45l0 30.27 40.36 0.01 0 -30.28c0,-5.57 4.52,-10.09 10.09,-10.09l80.73 0c27.86,0 50.46,-22.59 50.46,-50.45 0,-5.58 4.51,-10.1 10.09,-10.1l312.82 0.01c11.14,-0.01 20.18,9.03 20.18,20.18 0,11.14 -9.04,20.18 -20.18,20.18l-60.55 0c-33.43,0 -60.54,27.11 -60.54,60.54 0,33.44 27.11,60.55 60.54,60.55l121.1 0c11.14,0 20.18,9.04 20.18,20.18 0,11.15 -9.04,20.19 -20.18,20.19l0 0z" data-original="#000000"/>
    <path class="fil0" d="M1069.66 989.01c0,33.43 27.11,60.54 60.54,60.54 33.44,0 60.55,-27.11 60.55,-60.54 0,-33.44 -27.11,-60.55 -60.55,-60.55 -33.43,0 -60.54,27.11 -60.54,60.55l0 0zm60.54 -20.18c11.15,-0.01 20.19,9.03 20.19,20.18 0,11.14 -9.04,20.18 -20.19,20.18 -11.14,0 -20.18,-9.04 -20.18,-20.18 0,-11.15 9.04,-20.19 20.18,-20.19l0 0.01z" data-original="#000000"/>
    <path class="fil0" d="M988.93 827.55c0,33.43 27.11,60.55 60.55,60.55 33.43,0 60.54,-27.12 60.54,-60.55 0,-33.43 -27.11,-60.55 -60.54,-60.55 -33.44,0 -60.55,27.12 -60.55,60.55l0 0zm80.73 0c0,11.14 -9.04,20.18 -20.18,20.18 -11.15,0 -20.19,-9.04 -20.19,-20.18 0,-11.15 9.04,-20.18 20.19,-20.18 11.14,0 20.18,9.03 20.18,20.18l0 0z" data-original="#000000"/>
    <path class="fil0" d="M686.2 888.1l201.82 0c33.43,0 60.54,-27.12 60.54,-60.55 0,-33.43 -27.11,-60.55 -60.54,-60.55l-201.82 0c-33.44,0 -60.55,27.12 -60.55,60.55 0,33.43 27.11,60.55 60.55,60.55l0 0zm0 -80.73l201.82 0c11.14,0 20.18,9.03 20.18,20.18 0,11.14 -9.04,20.18 -20.18,20.18l-201.82 0c-11.15,0 -20.18,-9.04 -20.18,-20.18 0,-11.15 9.03,-20.18 20.18,-20.18l0 0z" data-original="#000000"/>
    <path class="fil0" d="M30.46 409.54l51.22 8.86 7.73 73.52c1.51,15.65 12.92,28.55 28.26,31.97 2.74,0.61 5.55,0.93 8.36,0.93 0.05,0 0.11,0 0.16,0 0,0 0.02,0 0.03,0 12.65,0 24.39,-6.63 30.93,-17.46l41.91 -67.83 77.56 18.43c2.78,0.65 5.65,0.99 8.51,0.99 20.27,0 36.71,-16.44 36.71,-36.71 0,-8.4 -2.88,-16.54 -8.16,-23.07l-46.42 -57.5 30.01 -42.39c4.37,-6.19 6.72,-13.6 6.72,-21.18 0,-20.28 -16.45,-36.73 -36.73,-36.73 -4.8,0 -9.57,0.95 -14.01,2.78l-57.28 23.63 -55.6 -60.29c-6.95,-7.53 -16.74,-11.82 -26.99,-11.82 -20.27,0 -36.71,16.44 -36.71,36.71 0,0.48 0.01,0.98 0.03,1.45l3.21 81.94 -57.2 23.66c-13.74,5.67 -22.71,19.07 -22.71,33.93 0,17.86 12.87,33.14 30.46,36.18l0 0zm67.25 -57.44c13.71,-5.72 22.65,-19.13 22.65,-33.99 0,-0.45 -0.02,-0.92 -0.03,-1.37l-2.91 -74.67 50.6 54.85c6.99,7.52 16.8,11.81 27.07,11.81 4.78,0 9.54,-0.94 13.96,-2.74l47.92 -19.82 -24.22 34.31c-4.35,6.2 -6.68,13.59 -6.68,21.17 0,8.39 2.86,16.54 8.11,23.08l41.48 51.35 -69.79 -16.39c-2.78,-0.65 -5.61,-0.99 -8.46,-0.99 -12.73,0 -24.57,6.59 -31.26,17.42l-37.72 60.95 -6.89 -65.63c-1.78,-16.3 -14.12,-29.46 -30.27,-32.29l-41.51 -7.17 47.95 -19.88z" data-original="#000000"/>
    <polygon class="fil0" points="343.1,100.99 383.47,100.99 383.47,141.36 343.1,141.36 " data-original="#000000"/>
    <polygon class="fil0" points="302.74,141.36 343.1,141.36 343.1,181.72 302.74,181.72 " data-original="#000000"/>
    <polygon class="fil0" points="383.47,141.36 423.83,141.36 423.83,181.72 383.47,181.72 " data-original="#000000"/>
    <polygon class="fil0" points="343.1,181.72 383.47,181.72 383.47,222.09 343.1,222.09 " data-original="#000000"/>
    <polygon class="fil0" points="383.47,343.18 423.83,343.18 423.83,383.54 383.47,383.54 " data-original="#000000"/>
    <path class="fil0" d="M423.83 827.55l0 40.36c55.71,-0.06 100.85,-45.2 100.91,-100.91l-40.36 0c0,33.44 -27.12,60.55 -60.55,60.55l0 0z" data-original="#000000"/>
   </g>
  </g>
 </g>
</svg>
