<?xml version="1.0" encoding="UTF-8"?>
<!DOCTYPE svg PUBLIC "-//W3C//DTD SVG 1.1//EN" "http://www.w3.org/Graphics/SVG/1.1/DTD/svg11.dtd">
<!-- Creator: CorelDRAW -->
<svg xmlns="http://www.w3.org/2000/svg" xml:space="preserve" width="1600px" height="1601px" version="1.1" style="shape-rendering:geometricPrecision; text-rendering:geometricPrecision; image-rendering:optimizeQuality; fill-rule:evenodd; clip-rule:evenodd"
viewBox="0 0 869.15 869.53"
 xmlns:xlink="http://www.w3.org/1999/xlink"
 xmlns:xodm="http://www.corel.com/coreldraw/odm/2003"
 xmlns:svgjs="http://svgjs.com/svgjs">
 <defs>
  <style type="text/css">
   <![CDATA[
    .fil0 {fill:#54C4D8;fill-rule:nonzero}
   ]]>
  </style>
 </defs>
 <g id="Layer_x0020_1">
  <metadata id="CorelCorpID_0Corel-Layer"/>
  <g id="_1899232395232">
   <g>
    <g id="Digital">
     <path class="fil0" d="M434.57 760.89c-14.99,-0.01 -27.16,-12.17 -27.16,-27.17l0 -162.96c0,-15 12.17,-27.16 27.16,-27.16 15,0 27.16,12.16 27.16,27.16l0 162.96c0,15 -12.16,27.16 -27.16,27.16l0 0.01z" data-original="#9f85ec"/>
     <path class="fil0" d="M244.45 760.89l-108.65 0c-14.99,-0.01 -27.16,-12.17 -27.16,-27.17 0,-14.99 12.17,-27.16 27.16,-27.16l108.65 0c15,0 27.16,-12.16 27.16,-27.16l0 -162.96c0,-15 12.16,-27.16 27.16,-27.16 15,0 27.16,12.16 27.16,27.16l0 162.96c0,45 -36.49,81.48 -81.48,81.48l0 0.01z" data-original="#9f85ec"/>
     <path class="fil0" d="M733.34 760.89l-108.64 0c-44.99,-0.01 -81.48,-36.49 -81.48,-81.49l0 -162.96c0,-15 12.16,-27.16 27.16,-27.16 15,0 27.16,12.16 27.16,27.16l0 162.96c0,15 12.16,27.16 27.16,27.16l108.64 0c15,0 27.16,12.17 27.16,27.16 0,15 -12.16,27.16 -27.16,27.16l0 0.01z" data-original="#9f85ec"/>
     <g>
      <path class="fil0" d="M434.57 869.53c-44.99,0 -81.48,-36.49 -81.48,-81.48 0,-45 36.49,-81.49 81.48,-81.49 45,0 81.49,36.49 81.49,81.49 0,44.99 -36.49,81.48 -81.49,81.48l0 0zm0 -108.64c-14.99,-0.01 -27.16,12.16 -27.16,27.16 0,14.99 12.17,27.16 27.16,27.16 15,0 27.16,-12.17 27.16,-27.16 0,-15 -12.16,-27.17 -27.16,-27.17l0 0.01z" data-original="#38004d"/>
      <path class="fil0" d="M81.48 815.21c-44.99,0 -81.48,-36.49 -81.48,-81.49 0,-44.99 36.49,-81.48 81.48,-81.48 45,0 81.49,36.49 81.49,81.48 0,45 -36.49,81.49 -81.49,81.49l0 0zm0 -108.65c-15,0 -27.16,12.17 -27.16,27.16 0,15 12.16,27.16 27.16,27.16 15,0 27.16,-12.16 27.16,-27.16 0,-14.99 -12.16,-27.16 -27.16,-27.16l0 0z" data-original="#38004d"/>
      <path class="fil0" d="M787.67 815.21c-45,0 -81.49,-36.49 -81.49,-81.49 0,-44.99 36.49,-81.48 81.49,-81.48 44.99,0 81.48,36.49 81.48,81.48 0,45 -36.49,81.49 -81.48,81.49l0 0zm0 -108.65c-15,0 -27.17,12.17 -27.17,27.16 0,15 12.17,27.16 27.17,27.16 14.99,0 27.16,-12.16 27.16,-27.16 0,-14.99 -12.17,-27.16 -27.16,-27.16z" data-original="#38004d"/>
      <path class="fil0" d="M679.02 462.11c-15,0 -27.16,-12.16 -27.16,-27.16l0 -271.6c0,-15 12.16,-27.17 27.16,-27.17 15,0 27.16,12.17 27.16,27.17l0 271.6c0,15 -12.16,27.16 -27.16,27.16l0 0z" data-original="#38004d"/>
      <path class="fil0" d="M434.57 326.31c-10.05,0 7.88,8.15 -257.75,-139.33 -8.51,-4.83 -13.77,-13.86 -13.77,-23.63 0,-9.78 5.26,-18.81 13.77,-23.63l90.99 -50.52c4.13,-2.38 8.81,-3.63 13.58,-3.63 15.05,0 27.25,12.21 27.25,27.26 0,9.75 -5.22,18.77 -13.67,23.63l-48.89 26.89 188.49 104.84 188.5 -104.84 -188.5 -104.85 -45.9 25.54c-3.73,1.84 -7.84,2.79 -12.01,2.79 -9.73,0 -18.73,-5.21 -23.57,-13.66 -2.16,-3.98 -3.29,-8.44 -3.29,-12.97 0,-9.83 5.31,-18.9 13.89,-23.7l57.85 -32.86c4.12,-2.38 8.81,-3.64 13.58,-3.64 4.76,0 9.45,1.26 13.58,3.64l244.45 135.8c8.5,4.83 13.76,13.85 13.76,23.63 0,9.78 -5.26,18.81 -13.76,23.63 -267.54,148.57 -248.52,139.61 -258.57,139.61l-0.01 0z" data-original="#38004d"/>
      <path class="fil0" d="M434.57 597.92c-10.05,0 7.88,8.15 -257.75,-139.34 -8.46,-4.85 -13.68,-13.87 -13.68,-23.63 0,-15.05 12.21,-27.25 27.26,-27.25 4.76,0 9.45,1.25 13.58,3.62l230.59 128.47 231.14 -128.47c4.13,-2.37 8.82,-3.62 13.58,-3.62 15.05,0 27.26,12.2 27.26,27.25 0,9.76 -5.22,18.78 -13.68,23.63 -267.26,148.3 -248.25,139.34 -258.3,139.34l0 0z" data-original="#38004d"/>
      <path class="fil0" d="M190.13 462.11c-15,0 -27.16,-12.16 -27.16,-27.16l0 -271.6c0,-15 12.16,-27.17 27.16,-27.17 14.99,0 27.16,12.17 27.16,27.17l0 271.6c0,15 -12.17,27.16 -27.16,27.16l0 0z" data-original="#38004d"/>
      <path class="fil0" d="M679.02 462.11c-15,0 -27.16,-12.16 -27.16,-27.16l0 -271.6c0,-15 12.16,-27.17 27.16,-27.17 15,0 27.16,12.17 27.16,27.17l0 271.6c0,15 -12.16,27.16 -27.16,27.16l0 0z" data-original="#38004d"/>
      <path class="fil0" d="M434.57 597.92c-14.99,0 -27.16,-12.16 -27.16,-27.16l0 -271.61c0,-15 12.17,-27.16 27.16,-27.16 15,0 27.16,12.16 27.16,27.16l0 271.61c0,15 -12.16,27.16 -27.16,27.16l0 0z" data-original="#38004d"/>
     </g>
    </g>
   </g>
  </g>
 </g>
</svg>
