<?xml version="1.0" encoding="UTF-8"?>
<!DOCTYPE svg PUBLIC "-//W3C//DTD SVG 1.1//EN" "http://www.w3.org/Graphics/SVG/1.1/DTD/svg11.dtd">
<!-- Creator: CorelDRAW -->
<svg xmlns="http://www.w3.org/2000/svg" xml:space="preserve" width="1600px" height="1375px" version="1.1" style="shape-rendering:geometricPrecision; text-rendering:geometricPrecision; image-rendering:optimizeQuality; fill-rule:evenodd; clip-rule:evenodd"
viewBox="0 0 2032.89 1747.01"
 xmlns:xlink="http://www.w3.org/1999/xlink"
 xmlns:xodm="http://www.corel.com/coreldraw/odm/2003"
 xmlns:svgjs="http://svgjs.com/svgjs">
 <defs>
  <style type="text/css">
   <![CDATA[
    .fil0 {fill:#54C4D8;fill-rule:nonzero}
   ]]>
  </style>
 </defs>
 <g id="Layer_x0020_1">
  <metadata id="CorelCorpID_0Corel-Layer"/>
  <g id="_1898964588208">
   <g>
    <g>
     <path class="fil0" d="M2005.48 370.08c-15.44,-16.84 -35.89,-28.82 -60.75,-35.57l-352.57 -87.67 0 -127.74c0,-65.67 -53.44,-119.1 -119.12,-119.1l-913.2 0c-65.68,0 -119.12,53.43 -119.12,119.1l0 127.76 -351.79 87.46c-0.26,0.06 -0.52,0.13 -0.78,0.2 -55.2,14.92 -88.15,55.35 -88.15,108.16 0,14.05 2.57,30.16 2.87,31.95 0.18,1.1 0.41,2.19 0.68,3.27l296.52 1177.37c15.35,64.13 80.53,104.53 143.67,87.73l572.72 -137.99 572.68 137.97c59.77,17.66 130.11,-24.82 143.65,-87.69l0 -0.05 95.1 -377.5c5.05,-18.35 -6.77,-43.13 -28.83,-48.2 -18.25,-5.49 -43.86,7.81 -48.17,28.83l-95.17 377.86c-4.56,19.2 -25.3,36.66 -48,29.58l-257.01 -61.94 122.33 0c65.68,0 119.12,-53.42 119.12,-119.1l0 -569.23 43.91 -9.25c13.62,-2.87 24.74,-12.64 29.32,-25.78l91.32 -262.02c4.75,-13.63 1.73,-28.76 -7.89,-39.52l-156.66 -175.29 0 -75 332.28 82.61c25.2,6.93 32.83,22 27.6,48.28l-113.91 452.3c-5.36,21.24 7.58,42.88 28.83,48.2 18.22,5.59 43.89,-7.8 48.2,-28.78l114.19 -453.38 0.43 -2.14c2.03,-10.32 3.07,-21.76 3.1,-33.07 0.24,-27.2 -9.73,-53.68 -27.4,-72.62l0 0zm-1564.76 464.31l-5.62 -1.18 -76.24 -218.77 81.86 -91.6 0 311.55zm-15.57 831.41c-18.71,6.55 -42.46,-7.12 -47.99,-29.58l-296.16 -1175.93c-0.89,-19.69 -10.41,-36 27.52,-49.02l332.2 -82.59 0 75 -156.66 175.29c-9.61,10.76 -12.64,25.89 -7.88,39.52l91.32 262.02c4.57,13.13 15.7,22.92 29.31,25.78l43.91 9.25 0 569.24c0,65.67 53.44,119.09 119.12,119.09l122.34 0.01 -257.03 61.92zm1248.87 -1051.36l-76.25 218.77 -5.61 1.19 0 -311.56 81.86 91.6zm-161.27 870.34c0,21.89 -17.81,39.7 -39.71,39.7l-913.2 0c-21.9,0 -39.71,-17.81 -39.71,-39.7l0 -1365.68c0,-21.89 17.81,-39.7 39.71,-39.7l913.21 0c21.89,0 39.7,17.81 39.7,39.7l0 1365.68 0 0z" data-original="#000000"/>
     <path class="fil0" d="M1842.7 1056.46c-3.18,-0.83 -6.43,-1.23 -9.69,-1.23 -18.22,0 -34.06,12.35 -38.51,30.02 -5.32,21.24 7.58,42.84 28.83,48.2 3.17,0.79 6.47,1.23 9.72,1.23 18.19,0 34.03,-12.34 38.47,-30.02 5.32,-21.24 -7.58,-42.88 -28.82,-48.2l0 0z" data-original="#000000"/>
     <path class="fil0" d="M798.07 1008.5c-21.93,0 -39.71,17.78 -39.71,39.7l0 152.5 -83.5 -169.46c-8.15,-16.55 -26.66,-25.3 -44.62,-21.11 -17.98,4.18 -30.69,20.21 -30.69,38.66l0 317.05c0,21.92 17.78,39.7 39.7,39.7 21.92,0 39.7,-17.78 39.7,-39.7l0 -146.64 77.65 157.58c10.82,21.89 31.92,27.88 48.02,24.12 15.29,-3.57 33.16,-17.71 33.16,-45.76l0 -306.94c-0.01,-21.92 -17.79,-39.7 -39.72,-39.7l0.01 0z" data-original="#000000"/>
     <path class="fil0" d="M1076 1087.91c21.92,0 39.7,-17.78 39.7,-39.71 0,-21.92 -17.78,-39.7 -39.7,-39.7l-119.12 0c-21.92,0 -39.7,17.78 -39.7,39.7l0 317.64c0,21.93 17.78,39.71 39.7,39.71 21.93,0 39.71,-17.78 39.71,-39.71l0 -122.12 69.95 0c21.92,0 39.7,-17.78 39.7,-39.71 0,-21.92 -17.78,-39.7 -39.7,-39.7l-69.95 0 0 -76.4 79.41 0z" data-original="#000000"/>
     <path class="fil0" d="M1393.64 1008.5l-158.82 0c-21.93,0 -39.71,17.78 -39.71,39.7 0,21.93 17.78,39.71 39.71,39.71l39.38 0 0 277.93c0,21.93 17.78,39.71 39.71,39.71 21.92,0 39.7,-17.78 39.7,-39.71l0 -277.93 40.03 0c21.92,0 39.7,-17.78 39.7,-39.71 0,-21.92 -17.78,-39.7 -39.7,-39.7l0 0z" data-original="#000000"/>
     <path class="fil0" d="M722.56 749.03l273.97 158.82c6.16,3.57 13.03,5.36 19.91,5.36 6.89,0 13.76,-1.79 19.92,-5.36l273.96 -158.82c12.25,-7.1 19.79,-20.19 19.79,-34.35l0 -317.63c0,-14.16 -7.54,-27.25 -19.79,-34.35l-273.96 -158.82c-12.32,-7.14 -27.52,-7.14 -39.83,0l-273.96 158.82c-12.25,7.1 -19.79,20.19 -19.79,34.35l0 317.63c0,14.16 7.54,27.25 19.79,34.35l-0.01 0zm59.62 -329.11l234.26 -135.8 234.26 135.8 0 271.89 -234.26 135.8 -234.26 -135.8 0 -271.89z" data-original="#000000"/>
    </g>
   </g>
  </g>
 </g>
</svg>
