<?xml version="1.0" encoding="UTF-8"?>
<!DOCTYPE svg PUBLIC "-//W3C//DTD SVG 1.1//EN" "http://www.w3.org/Graphics/SVG/1.1/DTD/svg11.dtd">
<!-- Creator: CorelDRAW -->
<svg xmlns="http://www.w3.org/2000/svg" xml:space="preserve" width="1600px" height="1372px" version="1.1" style="shape-rendering:geometricPrecision; text-rendering:geometricPrecision; image-rendering:optimizeQuality; fill-rule:evenodd; clip-rule:evenodd"
viewBox="0 0 1880.97 1613.35"
 xmlns:xlink="http://www.w3.org/1999/xlink"
 xmlns:xodm="http://www.corel.com/coreldraw/odm/2003"
 xmlns:svgjs="http://svgjs.com/svgjs">
 <defs>
  <style type="text/css">
   <![CDATA[
    .fil0 {fill:#54C4D8;fill-rule:nonzero}
   ]]>
  </style>
 </defs>
 <g id="Layer_x0020_1">
  <metadata id="CorelCorpID_0Corel-Layer"/>
  <g id="_1899232402288">
   <g>
    <path class="fil0" d="M1006.76 812.54c-21.85,-4.33 -44.07,-6.48 -66.34,-6.43 -14.01,-0.02 -28.01,0.9 -41.9,2.72 -115.77,14.63 -215.68,88.22 -263.98,194.44 -19.91,43.53 -30.14,90.86 -30,138.71 0.12,176.85 137.32,323.32 313.77,334.96 176.47,11.63 331.73,-115.54 355.05,-290.82 23.34,-175.3 -93.23,-338.67 -266.6,-373.58l0 0zm67.45 426.55c0.33,3.05 0.23,6.12 -0.31,9.14 0,1.11 -0.26,2.18 -0.54,3.36 -1.05,3.95 -2.81,7.69 -5.2,11.02l0 0.23 -100.76 134.35c-6.35,8.46 -16.31,13.43 -26.87,13.43 -10.57,0 -20.53,-4.97 -26.88,-13.43l-100.76 -134.35 0 -0.23c-2.38,-3.33 -4.15,-7.07 -5.2,-11.02 -0.28,-1.09 -0.38,-2.15 -0.54,-3.36 -0.54,-3.02 -0.64,-6.09 -0.29,-9.14 0,-0.74 -0.22,-1.44 0,-2.18 0.14,-0.51 0.34,-1 0.55,-1.48 0,-0.83 0,-1.67 0.35,-2.49l100.76 -335.88c4.25,-14.22 17.34,-23.94 32.18,-23.94 14.84,0 27.91,9.72 32.17,23.94l100.77 335.88c0.23,0.82 0.16,1.66 0.33,2.49 0.22,0.48 0.41,0.97 0.57,1.48 -0.13,0.9 -0.39,1.61 -0.33,2.49l0 -0.31zm0 0z" data-original="#000000"/>
    <path class="fil0" d="M1377.67 970.13c-1.94,-5.01 -3.83,-10.09 -5.97,-15.06 -5.15,-11.82 -10.7,-23.5 -16.8,-34.72 -0.47,-0.85 -0.83,-1.75 -1.28,-2.59 -6.72,-12.5 -14.23,-24.55 -22.1,-36.34 -2.48,-3.69 -5.27,-7.25 -7.86,-10.92 -5.41,-7.58 -10.87,-15.08 -16.79,-22.29 -3.37,-4.1 -6.71,-8.04 -10.07,-12.01 -5.94,-6.92 -12.07,-13.62 -18.42,-20.14 -3.12,-3.36 -6.25,-6.52 -9.46,-9.67 -8.84,-8.68 -17.98,-17.07 -27.47,-25.03 -0.92,-0.74 -1.76,-1.57 -2.63,-2.31 -10.74,-8.81 -21.88,-17.12 -33.39,-24.96 -2.85,-1.95 -5.77,-3.72 -8.66,-5.61 -8.67,-5.69 -17.53,-11.07 -26.6,-16.15 -3.87,-2.19 -7.76,-4.33 -11.69,-6.42 -9.14,-4.82 -18.47,-9.3 -27.98,-13.43 -3.36,-1.49 -6.48,-3.1 -9.84,-4.48 -12.86,-5.38 -25.98,-10.18 -39.36,-14.43 -1.95,-0.61 -3.9,-1.08 -5.86,-1.66 -11.21,-3.36 -22.6,-6.28 -34.14,-8.79 -4.07,-0.91 -8.1,-1.75 -12.2,-2.55 -11.83,-2.25 -23.82,-4.14 -35.94,-5.52 -2.33,-0.22 -4.64,-0.6 -6.95,-0.83 -14.99,-1.61 -30.29,-2.46 -45.79,-2.46l-3.35 0.64 -1.47 -0.3c-1.92,0 -3.84,0 -5.76,0.2 -10.51,0.23 -20.96,0.67 -31.29,1.57 -4.38,0.38 -8.71,0.86 -13.07,1.35 -11.73,1.38 -23.31,3.13 -34.77,5.35 -3.56,0.67 -7.09,1.41 -10.64,2.21 -10.35,2.25 -20.52,4.94 -30.64,7.89 -7.66,2.23 -15.17,4.77 -22.66,7.36 -7.5,2.59 -14.14,4.94 -21.1,7.73 -6.08,2.41 -12.07,5.06 -18.04,7.72 -8.26,3.76 -16.43,7.63 -24.45,11.83 -4.46,2.31 -8.87,4.74 -13.23,7.18 -9.2,5.21 -18.24,10.64 -26.87,16.43 -3.16,2.08 -6.31,4.17 -9.41,6.31 -9.46,6.57 -18.66,13.44 -27.57,20.62 -2.49,2.02 -5,4 -7.5,6.08 -8.72,7.32 -17.15,15.08 -25.35,23.05 -2.63,2.57 -5.31,5.06 -7.89,7.72 -7.1,7.18 -13.81,14.78 -20.43,22.43 -3.35,4.1 -7.12,8.09 -10.48,12.32 -4.66,5.79 -8.99,11.89 -13.44,17.91 -4.87,6.72 -9.84,13.43 -14.36,20.45 -4.55,7.02 -9.17,14.65 -13.45,22.17 -2.79,4.84 -5.64,9.65 -8.25,14.55 -5.58,10.51 -10.76,21.26 -15.56,32.21 -2,4.63 -3.79,9.33 -5.65,14.04 -3.14,7.86 -6.06,15.84 -8.75,23.91 -2.02,5.99 -3.97,11.99 -5.71,18.08 -57.89,197.34 19.19,409.43 190.28,523.54 171.1,114.13 396.52,103.82 556.49,-25.45 159.95,-129.27 217.35,-347.49 141.68,-538.73l-0.06 0zm-437.25 574.91c-222.49,-0.23 -402.81,-180.55 -403.05,-403.06 -0.17,-57.43 12.1,-114.21 35.98,-166.46 82.84,-182.66 287.38,-276.62 479.93,-220.45 192.56,56.15 314.51,245.36 286.14,443.92 -28.37,198.56 -198.43,346.05 -399,346.05zm0 0z" data-original="#000000"/>
    <path class="fil0" d="M887.86 1251.01l52.56 70.1 52.58 -70.1 -52.58 -35.06 -52.56 35.06zm0 0z" data-original="#000000"/>
    <path class="fil0" d="M442.62 905.46c-6.48,-0.43 -12.92,-0.8 -19.32,-1.54 -6.98,-0.81 -13.79,-2.02 -20.65,-3.15 -6.28,-1.08 -12.59,-2.08 -18.77,-3.36 -6.73,-1.48 -13.44,-3.36 -19.91,-5.15 -6.09,-1.64 -12.17,-3.35 -18.14,-5.17 -5.99,-1.8 -12.74,-4.56 -19.06,-6.99 -6.31,-2.41 -11.71,-4.36 -17.38,-6.7 -5.69,-2.37 -12.11,-5.76 -18.11,-8.75 -6.02,-2.98 -11.18,-5.44 -16.6,-8.46 -5.41,-3.02 -11.41,-6.72 -17.02,-10.35 -5.61,-3.62 -10.58,-6.44 -15.69,-10.07 -5.1,-3.62 -10.65,-7.9 -15.96,-11.92 -5.3,-4.03 -9.84,-7.36 -14.53,-11.28 -4.71,-3.94 -9.91,-8.94 -14.81,-13.45 -4.91,-4.49 -9.07,-8.15 -13.45,-12.53 -4.36,-4.36 -9.07,-9.87 -13.43,-14.91 -4.04,-4.49 -8.2,-8.9 -12.02,-13.59 -4.3,-5.28 -8.2,-10.83 -12.24,-16.34 -3.56,-4.84 -7.25,-9.53 -10.61,-14.53 -3.82,-5.72 -7.22,-11.76 -10.74,-17.68 -3.05,-5.1 -6.28,-10.07 -9.1,-15.32 -3.37,-6.2 -6.19,-12.69 -9.2,-19.1 -2.53,-5.27 -5.25,-10.45 -7.5,-15.84 -2.82,-6.73 -5.1,-13.75 -7.59,-20.67 -1.87,-5.35 -4.07,-10.58 -5.74,-16.02 -2.28,-7.43 -4,-15.07 -5.84,-22.67 -1.28,-5.21 -2.85,-10.31 -3.94,-15.59 -1.77,-8.7 -2.85,-17.6 -4.06,-26.49 -0.61,-4.41 -1.51,-8.68 -1.96,-13.1 -1.39,-13.6 -2.1,-27.24 -2.11,-40.92 0,-222.6 180.45,-403.06 403.05,-403.06 222.6,0 403.05,180.46 403.05,403.06 -0.11,16.56 -1.23,33.09 -3.34,49.51 -0.64,5.1 -1.63,10.09 -2.46,15.15 -1.81,11.42 -4.12,22.73 -6.92,33.92 -0.71,2.75 -0.94,5.64 -1.71,8.43 5.97,-0.94 11.92,-1.41 17.86,-2.12 4.48,-0.52 8.87,-1.16 13.45,-1.57 13.02,-1.22 26.06,-1.99 39.05,-2.15 0.21,-0.87 0.44,-1.75 0.64,-2.62 3.1,-14.27 5.41,-28.72 7.11,-43.27 0.41,-3.34 0.71,-6.71 1.05,-10.07 1.45,-14.97 2.45,-29.99 2.45,-45.21 0.2,-63.1 -12.47,-125.56 -37.25,-183.59 -89.93,-212.19 -320.41,-327.91 -544.3,-273.32 -223.92,54.58 -375.26,263.4 -357.45,493.17 17.8,229.77 199.51,412.77 429.15,432.22 4.06,-12.23 8.66,-24.28 13.59,-36.17 1.55,-3.66 3.37,-7.22 4.87,-10.84 2.76,-6.22 5.38,-12.5 8.37,-18.62 -5,-0.16 -9.84,-0.87 -14.78,-1.21l0 0zm0 0z" data-original="#000000"/>
    <path class="fil0" d="M940.42 1141.98c6.64,0 13.12,1.97 18.65,5.65l23.14 15.41 -41.79 -139.29 -41.77 139.29 23.14 -15.41c5.51,-3.68 12,-5.65 18.63,-5.65zm0 0z" data-original="#000000"/>
    <path class="fil0" d="M1410.65 0c-196.4,0.02 -372.09,122.09 -440.63,306.13 2.85,7.12 4.97,14.51 7.48,21.73 2.52,7.22 5.12,13.94 7.23,21.03 3.05,10.06 5.4,20.15 7.82,30.45 1.58,6.72 3.37,13.24 4.81,19.99 2.25,11.42 3.72,23.04 5.23,34.67 0.74,5.71 1.86,11.32 2.4,17.06 1.7,17.43 2.6,35 2.6,52.76 0,15.6 -0.93,31.14 -2.28,46.59 -0.32,4.13 -0.8,8.27 -1.24,12.4 -1.48,13.15 -3.41,26.22 -5.81,39.19 -0.33,1.88 -0.47,3.79 -0.83,5.65 3.01,0.32 6,1.06 9,1.44 9.5,1.13 18.88,2.66 28.21,4.3 -62.47,-164.81 -10.5,-351.1 128.3,-459.75 138.79,-108.64 332.1,-114.38 477.1,-14.17 144.99,100.22 207.94,283.1 155.36,451.32 -52.6,168.23 -208.48,282.7 -384.75,282.49 -1.67,0 -3.35,-0.23 -5.04,-0.23 1.76,3.02 3.37,6.18 4.97,9.24 1.63,3.06 3.36,6.15 4.91,9.2 6.1,11.51 11.74,23.22 16.97,35.14 1.35,3.09 2.82,6.1 4.12,9.24 0.54,1.27 1.18,2.5 1.69,3.78 253.92,-14.89 449.97,-228.98 442.49,-483.23 -7.46,-254.24 -215.74,-456.47 -470.11,-456.42l0 0zm0 0z" data-original="#000000"/>
    <path class="fil0" d="M1132.45 640.35c4.74,1.85 9.53,3.58 14.23,5.51 1.25,0.54 2.56,1.02 3.84,1.56 6.35,2.71 12.5,5.77 18.73,8.69 4.38,2.08 8.81,4 13.1,6.19 3.37,1.73 6.73,3.59 10.09,5.41 3.35,1.8 6.31,3.52 9.5,5.29l3.8 2.12c3.35,1.95 6.91,3.74 10.27,5.74 6.72,4.07 13.27,8.43 19.83,12.78 2.28,1.51 4.56,2.88 6.7,4.42 12.44,8.5 24.59,17.41 36.31,26.87l2.92 2.42 0.31 0.27c2.15,1.78 4.17,3.74 6.29,5.54 6.7,5.61 13.08,11.18 19.36,17.11 2.94,2.78 5.76,5.67 8.61,8.52 2.86,2.86 4.87,4.84 7.29,7.28 3.75,3.88 7.56,7.7 11.21,11.67 3.66,3.95 7.25,8.23 10.86,12.39 1.9,2.22 3.92,4.37 5.81,6.71 1.27,1.51 2.65,2.92 3.88,4.43l0.51 0.61c18.11,2.88 36.42,4.29 54.74,4.23 151.38,-0.2 283.86,-101.75 323.39,-247.86 39.52,-146.13 -23.72,-300.62 -154.36,-377.08 -130.65,-76.45 -296.31,-55.95 -404.37,50.06 -108.05,105.99 -131.73,271.24 -57.76,403.31 5.07,1.79 9.94,3.91 14.91,5.81l0 0zm311.78 -136.53l-67.17 0c-55.65,0 -100.76,-45.1 -100.76,-100.77 0,-55.64 45.11,-100.76 100.76,-100.76l0 -33.59 67.17 0 0 33.59c55.67,0 100.77,45.12 100.77,100.77l-67.18 -0.01c0,-18.54 -15.02,-33.58 -33.59,-33.58l-67.17 0c-18.55,0 -33.59,15.04 -33.59,33.59 0,18.55 15.04,33.58 33.59,33.58l67.17 0c55.67,0 100.77,45.12 100.77,100.77 0,55.66 -45.1,100.76 -100.77,100.76l0 33.59 -67.17 0 0 -33.59c-55.65,0 -100.76,-45.1 -100.76,-100.76l67.17 0c0,18.55 15.04,33.58 33.59,33.58l67.17 0c18.57,0 33.59,-15.03 33.59,-33.58 0,-18.55 -15.02,-33.59 -33.59,-33.59zm0 0z" data-original="#000000"/>
    <path class="fil0" d="M537.37 436.64c0,-18.55 -15.02,-33.59 -33.59,-33.59l-100.76 0 0 67.18 100.76 0c18.57,0 33.59,-15.04 33.59,-33.59zm0 0z" data-original="#000000"/>
    <path class="fil0" d="M497.71 837.92c18.42,-26.89 39.26,-52.03 62.31,-75.09 0.8,-0.82 1.67,-1.56 2.47,-2.36 11.09,-11.03 22.62,-21.51 34.61,-31.48 1.57,-1.31 3.36,-2.59 4.83,-3.88 11.19,-9.12 22.75,-17.76 34.66,-25.93l7.59 -5.15c11.07,-7.28 22.36,-14.14 33.9,-20.58 3.56,-2.02 7.05,-4.04 10.65,-5.96 10.67,-5.64 21.63,-10.84 32.7,-15.78 4.54,-2.01 8.97,-4.23 13.45,-6.14 10.74,-4.4 21.76,-8.27 32.84,-12.03 4.6,-1.59 9.07,-3.36 13.73,-4.97 1.48,-3.64 3,-7.26 4.33,-10.92 1.62,-4.46 3.36,-8.94 4.67,-13.43 2.09,-6.72 3.81,-13.27 5.45,-19.96 1.03,-4.23 2.21,-8.4 3.08,-12.63 1.51,-7.48 2.59,-15.1 3.63,-22.7 0.47,-3.62 1.18,-7.18 1.55,-10.85 1.1,-11.32 1.78,-22.7 1.78,-34.26 0,-185.51 -150.41,-335.9 -335.92,-335.88 -185.51,0.03 -335.89,150.45 -335.84,335.98 0.05,185.52 150.51,335.86 336.01,335.77 9.28,0 18.38,-1 27.52,-1.77l0 0zm-61.11 -132.57l-67.17 0 0 -33.59c-18.55,0 -33.59,-15.04 -33.59,-33.59l0 -268.7c0,-18.55 15.04,-33.59 33.59,-33.59l0 -33.59 67.17 0 0 33.59 33.59 0 0 -33.59 67.18 0 0 39.77c31.78,10.99 55.87,37.25 64.14,69.84 8.25,32.58 -0.46,67.14 -23.16,91.92 22.7,24.8 31.41,59.35 23.16,91.94 -8.27,32.58 -32.36,58.83 -64.14,69.83l0 39.75 -67.18 0.01 0 -33.59 -33.59 0 0 33.59zm0 0z" data-original="#000000"/>
    <path class="fil0" d="M537.37 570.99c0,-18.54 -15.02,-33.58 -33.59,-33.58l-100.76 0 0 67.17 100.76 0c18.57,0 33.59,-15.04 33.59,-33.59zm0 0z" data-original="#000000"/>
   </g>
  </g>
 </g>
</svg>
