<?xml version="1.0" encoding="UTF-8"?>
<!DOCTYPE svg PUBLIC "-//W3C//DTD SVG 1.1//EN" "http://www.w3.org/Graphics/SVG/1.1/DTD/svg11.dtd">
<!-- Creator: CorelDRAW -->
<svg xmlns="http://www.w3.org/2000/svg" xml:space="preserve" width="1600px" height="1600px" version="1.1" style="shape-rendering:geometricPrecision; text-rendering:geometricPrecision; image-rendering:optimizeQuality; fill-rule:evenodd; clip-rule:evenodd"
viewBox="0 0 1237.08 1237.08"
 xmlns:xlink="http://www.w3.org/1999/xlink"
 xmlns:xodm="http://www.corel.com/coreldraw/odm/2003"
 xmlns:svgjs="http://svgjs.com/svgjs">
 <defs>
  <style type="text/css">
   <![CDATA[
    .fil0 {fill:#54C4D8;fill-rule:nonzero}
   ]]>
  </style>
 </defs>
 <g id="Layer_x0020_1">
  <metadata id="CorelCorpID_0Corel-Layer"/>
  <g id="_1899201864016">
   <g>
    <g id="surface1">
     <path class="fil0" d="M1030.9 218.43l0 -115.34c-0.07,-56.91 -46.19,-103.02 -103.09,-103.09l-824.72 0c-56.91,0.07 -103.02,46.18 -103.09,103.09l0 453.6c0.16,52.65 40.07,96.68 92.45,102.02l77.5 201.19c20.48,53.12 80.14,79.58 133.26,59.14l483.98 -186.44c-33.44,87.35 -23.92,185.34 25.68,264.63l11.85 18.95 0 200.28c0,11.39 9.22,20.62 20.62,20.62l371.12 0c11.39,0 20.62,-9.23 20.62,-20.62l0 -680.57c-0.2,-71.31 -28.58,-139.62 -79,-190.05l-127.18 -127.41zm0 123.3l62.57 162.44c12.27,31.89 -3.63,67.66 -35.51,79.94l-35.76 13.81c5.71,-13 8.67,-27.05 8.7,-41.23l0 -214.96zm-989.66 214.96l0 -453.6c0,-34.15 27.7,-61.85 61.85,-61.85l824.72 0c34.15,0 61.85,27.7 61.85,61.85l0 131.05 -0.18 0 0.18 0.47 0 322.08c-0.16,3.59 -0.63,7.16 -1.4,10.67l-188.86 -188.88c-42.45,-41.47 -110.13,-41.79 -152.97,-0.75 -42.84,41.07 -45.41,108.69 -5.79,152.87l80.51 87.94 -618.06 0c-34.15,0 -61.85,-27.7 -61.85,-61.85zm264.13 103.08l-146.61 56.45 -21.69 -56.45 168.3 0zm-16.99 220.78c-31.87,12.28 -67.67,-3.61 -79.95,-35.48l-34.79 -90.45 246.12 -94.85 0 -0.12 339.19 0 26.79 29.22 -497.36 191.68zm907.46 315.29l-329.89 0 0 -164.94 329.89 0 0 164.94zm0 -206.18l-339.06 0 -8.94 -14.29c-50.28,-80.33 -52.28,-181.81 -5.23,-264.05 4.46,-7.78 3.36,-17.56 -2.7,-24.16l-168.96 -184.33c-25.19,-27.58 -23.77,-70.21 3.2,-96.04 26.98,-25.83 69.64,-25.41 96.09,0.94l328.55 328.47 29.16 -29.15 -76.29 -76.28 21.15 -8.25c53.09,-20.48 79.54,-80.09 59.12,-133.2l-69.79 -181.21 66.79 66.93c42.68,42.67 66.75,100.49 66.91,160.85l0 453.77zm0 0z" data-original="#000000"/>
     <path class="fil0" d="M235.04 288.65c29.61,0 53.61,-24 53.61,-53.61l0 -98.96c0,-29.61 -24,-53.61 -53.61,-53.61l-98.96 0c-29.61,0 -53.61,24 -53.61,53.61l0 98.96c0,29.61 24,53.61 53.61,53.61l98.96 0zm-111.33 -53.61l0 -28.86 41.23 0 0 -41.24 -41.23 0 0 -28.86c0,-6.83 5.54,-12.37 12.37,-12.37l98.96 0c6.83,0 12.38,5.54 12.38,12.37l0 28.86 -41.24 0 0 41.24 41.24 0 0 28.86c0,6.83 -5.55,12.38 -12.38,12.38l-98.96 0c-6.83,0 -12.37,-5.55 -12.37,-12.38zm0 0z" data-original="#000000"/>
     <path class="fil0" d="M103.09 350.51l82.47 0 0 41.23 -82.47 0 0 -41.23zm0 0z" data-original="#000000"/>
     <path class="fil0" d="M103.09 474.21l82.47 0 0 41.24 -82.47 0 0 -41.24zm0 0z" data-original="#000000"/>
     <path class="fil0" d="M474.21 474.21l82.48 0 0 41.24 -82.48 0 0 -41.24zm0 0z" data-original="#000000"/>
     <path class="fil0" d="M226.8 350.51l82.47 0 0 41.23 -82.47 0 0 -41.23zm0 0z" data-original="#000000"/>
     <path class="fil0" d="M350.51 350.51l82.47 0 0 41.23 -82.47 0 0 -41.23zm0 0z" data-original="#000000"/>
     <path class="fil0" d="M474.21 350.51l82.48 0 0 41.23 -82.48 0 0 -41.23zm0 0z" data-original="#000000"/>
     <path class="fil0" d="M865.95 103.09l41.24 0 0 61.85 -41.24 0 0 -61.85zm0 0z" data-original="#000000"/>
     <path class="fil0" d="M783.48 103.09l41.24 0 0 61.85 -41.24 0 0 -61.85zm0 0z" data-original="#000000"/>
     <path class="fil0" d="M701.01 103.09l41.24 0 0 61.85 -41.24 0 0 -61.85zm0 0z" data-original="#000000"/>
     <path class="fil0" d="M618.54 103.09l41.23 0 0 61.85 -41.23 0 0 -61.85zm0 0z" data-original="#000000"/>
     <path class="fil0" d="M907.19 1072.13l41.24 0 0 41.24 -41.24 0 0 -41.24zm0 0z" data-original="#000000"/>
    </g>
   </g>
  </g>
 </g>
</svg>
