<?xml version="1.0" encoding="UTF-8"?>
<!DOCTYPE svg PUBLIC "-//W3C//DTD SVG 1.1//EN" "http://www.w3.org/Graphics/SVG/1.1/DTD/svg11.dtd">
<!-- Creator: CorelDRAW -->
<svg xmlns="http://www.w3.org/2000/svg" xml:space="preserve" width="1393px" height="1600px" version="1.1" style="shape-rendering:geometricPrecision; text-rendering:geometricPrecision; image-rendering:optimizeQuality; fill-rule:evenodd; clip-rule:evenodd"
viewBox="0 0 1172.04 1346.3"
 xmlns:xlink="http://www.w3.org/1999/xlink"
 xmlns:xodm="http://www.corel.com/coreldraw/odm/2003"
 xmlns:svgjs="http://svgjs.com/svgjs">
 <defs>
  <style type="text/css">
   <![CDATA[
    .fil0 {fill:#54C4D8;fill-rule:nonzero}
   ]]>
  </style>
 </defs>
 <g id="Layer_x0020_1">
  <metadata id="CorelCorpID_0Corel-Layer"/>
  <g id="_1899226221040">
   <g>
    <g>
     <g>
      <path class="fil0" d="M799.84 734.59l122.55 24.32c4.31,68.87 63.63,121.21 132.5,116.9 68.87,-4.3 121.2,-63.62 116.9,-132.49 -4.31,-68.87 -63.63,-121.21 -132.5,-116.9 -44.65,2.79 -84.39,29.24 -104.21,69.34l-126.83 -25.17c-1.37,-48.03 -19.96,-93.98 -52.37,-129.46l170.96 -241.51c79.17,34.33 171.18,-2.01 205.51,-81.17 34.33,-79.17 -2.01,-171.18 -81.17,-205.51 -79.17,-34.33 -171.18,2.01 -205.51,81.17 -24.64,56.8 -13.41,122.79 28.63,168.25l-168.94 238.65c-80.82,-45.36 -182.19,-29.5 -245.29,38.39l-221.37 -171.92c29.23,-62.66 2.12,-137.16 -60.54,-166.39 -62.67,-29.23 -137.16,-2.12 -166.39,60.54 -29.23,62.67 -2.13,137.16 60.54,166.39 40.65,18.97 88.35,14.73 125.02,-11.11l226.8 176.13c-36.44,79.57 -17.15,173.57 47.69,232.36l-135.86 192.12c-80.2,-44.71 -181.46,-15.94 -226.17,64.26 -44.71,80.2 -15.95,181.46 64.25,226.17 80.2,44.72 181.47,15.95 226.18,-64.25 32.78,-58.8 26.87,-131.57 -14.98,-184.31l140.58 -198.82c48.98,21.73 104.62,22.95 154.51,3.4l168.05 248.25c-51.39,58.53 -45.6,147.64 12.93,199.03 58.53,51.39 147.64,45.6 199.02,-12.93 51.4,-58.53 45.61,-147.64 -12.92,-199.03 -40.25,-35.34 -97.03,-44.83 -146.58,-24.5l-164.96 -243.68c30.3,-25.24 52.53,-58.79 63.97,-96.52zm247.19 -44c33.41,0 60.5,27.08 60.5,60.49 0,33.41 -27.09,60.5 -60.5,60.5 -33.41,0 -60.49,-27.09 -60.49,-60.5 0.02,-33.4 27.09,-60.47 60.49,-60.49zm-58.44 -625.42c50.48,0 91.4,40.93 91.4,91.41 0,50.48 -40.93,91.4 -91.41,91.4 -50.48,0 -91.4,-40.93 -91.4,-91.4 0.06,-50.47 40.95,-91.35 91.41,-91.41zm-863.13 310.16c-33.4,-0.04 -60.46,-27.11 -60.5,-60.5 0,-33.41 27.09,-60.5 60.5,-60.5 33.41,0 60.49,27.09 60.49,60.5 0,33.41 -27.08,60.5 -60.49,60.5zm129.96 888.43c-56,0 -101.39,-45.4 -101.39,-101.4 0.01,-56 45.4,-101.39 101.4,-101.39 56,0 101.39,45.4 101.39,101.4 -0.06,55.97 -45.42,101.33 -101.4,101.39zm698.91 -135.1c42.43,0.05 76.81,34.43 76.86,76.85 0,42.45 -34.41,76.86 -76.86,76.86 -42.45,0 -76.85,-34.41 -76.85,-76.86 0,-42.44 34.41,-76.85 76.85,-76.85zm-347.19 -315.27c-75.54,-0.08 -136.75,-61.3 -136.84,-136.84l0 0c0,-75.57 61.27,-136.84 136.84,-136.84 75.58,0 136.84,61.27 136.84,136.84 0,75.58 -61.26,136.84 -136.84,136.84z" data-original="#000000"/>
     </g>
    </g>
    <g>
    </g>
    <g>
    </g>
    <g>
    </g>
    <g>
    </g>
    <g>
    </g>
    <g>
    </g>
    <g>
    </g>
    <g>
    </g>
    <g>
    </g>
    <g>
    </g>
    <g>
    </g>
    <g>
    </g>
    <g>
    </g>
    <g>
    </g>
    <g>
    </g>
   </g>
  </g>
 </g>
</svg>
