<?xml version="1.0" encoding="UTF-8"?>
<!DOCTYPE svg PUBLIC "-//W3C//DTD SVG 1.1//EN" "http://www.w3.org/Graphics/SVG/1.1/DTD/svg11.dtd">
<!-- Creator: CorelDRAW -->
<svg xmlns="http://www.w3.org/2000/svg" xml:space="preserve" width="1543px" height="1550px" version="1.1" style="shape-rendering:geometricPrecision; text-rendering:geometricPrecision; image-rendering:optimizeQuality; fill-rule:evenodd; clip-rule:evenodd"
viewBox="0 0 301.74 303.2"
 xmlns:xlink="http://www.w3.org/1999/xlink"
 xmlns:xodm="http://www.corel.com/coreldraw/odm/2003"
 xmlns:svgjs="http://svgjs.com/svgjs">
 <defs>
  <style type="text/css">
   <![CDATA[
    .fil0 {fill:#54C4D8;fill-rule:nonzero}
   ]]>
  </style>
 </defs>
 <g id="Layer_x0020_1">
  <metadata id="CorelCorpID_0Corel-Layer"/>
  <g id="_1899007717312">
   <g>
    <g>
     <path class="fil0" d="M112.48 205.4l-5.79 0c0.55,-1.54 0.9,-3.17 0.9,-4.89l0 -9.79c0,-8.08 -6.58,-14.67 -14.67,-14.67l-78.25 0c-8.09,0 -14.67,6.59 -14.67,14.67l0 9.79c0,8.08 6.58,14.67 14.67,14.67l5.79 0c-0.55,1.53 -0.9,3.17 -0.9,4.89l0 9.78c0,1.72 0.35,3.35 0.9,4.89l-5.79 0c-8.09,0 -14.67,6.58 -14.67,14.67l0 9.78c0,8.09 6.58,14.67 14.67,14.67l5.79 0c-0.55,1.54 -0.9,3.17 -0.9,4.89l0 9.78c0,8.09 6.58,14.67 14.67,14.67l78.25 0c8.09,0 14.67,-6.58 14.67,-14.67l0 -9.78c0,-8.09 -6.58,-14.67 -14.67,-14.67l-5.79 0c0.55,-1.54 0.9,-3.17 0.9,-4.89l0 -9.78c0,-1.72 -0.35,-3.36 -0.9,-4.89l5.79 0c8.09,0 14.67,-6.58 14.67,-14.67l0 -9.78c0,-8.09 -6.58,-14.67 -14.67,-14.67l0 0zm-102.7 -4.89l0 -9.79c0,-2.69 2.19,-4.89 4.89,-4.89l4.89 0 0 9.78 9.78 0 0 -9.78 9.78 0 0 9.78 9.78 0 0 -9.78 9.78 0 0 9.78 9.79 0 0 -9.78 9.78 0 0 9.78 9.78 0 0 -9.78 4.89 0c2.7,0 4.89,2.2 4.89,4.89l0 9.79c0,2.69 -2.19,4.89 -4.89,4.89l-58.69 0 -19.56 0c-2.7,0 -4.89,-2.2 -4.89,-4.89l0 0zm107.59 78.24l0 9.78c0,2.7 -2.19,4.89 -4.89,4.89l-78.25 0c-2.7,0 -4.89,-2.19 -4.89,-4.89l0 -9.78c0,-2.7 2.19,-4.89 4.89,-4.89l4.89 0 0 9.78 9.78 0 0 -9.78 9.78 0 0 9.78 9.79 0 0 -9.78 9.78 0 0 9.78 9.78 0 0 -9.78 4.89 0 4.89 0 0 9.78 9.78 0 0 -9.78 4.89 0c2.7,0 4.89,2.19 4.89,4.89l0 0zm-19.56 -29.34l0 9.78c0,2.7 -2.19,4.89 -4.89,4.89l-58.69 0 -19.56 0c-2.7,0 -4.89,-2.19 -4.89,-4.89l0 -9.78c0,-2.7 2.19,-4.89 4.89,-4.89l4.89 0 0 9.78 9.78 0 0 -9.78 4.89 0 4.89 0 0 9.78 9.78 0 0 -9.78 9.78 0 0 9.78 9.79 0 0 -9.78 9.78 0 0 9.78 9.78 0 0 -9.78 4.89 0c2.7,0 4.89,2.19 4.89,4.89l0 0zm19.56 -19.56c0,2.7 -2.19,4.89 -4.89,4.89l-19.56 0 -58.69 0c-2.7,0 -4.89,-2.19 -4.89,-4.89l0 -9.78c0,-2.7 2.19,-4.89 4.89,-4.89l4.89 0 0 9.78 9.78 0 0 -9.78 9.78 0 0 9.78 9.79 0 0 -9.78 9.78 0 0 9.78 9.78 0 0 -9.78 4.89 0 4.89 0 0 9.78 9.78 0 0 -9.78 4.89 0c2.7,0 4.89,2.19 4.89,4.89l0 9.78z" data-original="#000000"/>
     <path class="fil0" d="M274.8 138.02c12.01,-12.01 18.62,-27.98 18.62,-45.1 0,-35.06 -28.52,-63.58 -63.57,-63.58 -35.06,0 -63.58,28.52 -63.58,63.72 0,16.98 6.62,32.94 18.63,44.95l1.78 1.78c4.83,4.83 7.81,11.01 8.66,17.69 -5.54,2.1 -9.51,7.42 -9.51,13.68 0,6.47 4.23,11.91 10.05,13.86 0.95,7.94 4.62,15.06 10.05,20.38l-15.21 0c-8.08,0 -14.67,6.58 -14.67,14.67l0 9.78c0,1.72 0.36,3.35 0.9,4.89l-5.79 0c-8.09,0 -14.67,6.58 -14.67,14.67l0 9.78c0,8.09 6.58,14.67 14.67,14.67l5.79 0c-0.54,1.54 -0.9,3.17 -0.9,4.89l0 9.78c0,8.09 6.59,14.67 14.67,14.67l78.25 0c8.09,0 14.67,-6.58 14.67,-14.67l0 -9.78c0,-8.09 -6.58,-14.67 -14.67,-14.67l-5.79 0c0.55,-1.54 0.9,-3.17 0.9,-4.89l0 -9.78c0,-1.72 -0.35,-3.36 -0.9,-4.89l5.79 0c8.09,0 14.67,-6.58 14.67,-14.67l0 -9.78c0,-8.09 -6.58,-14.67 -14.67,-14.67l-15.21 0c5.44,-5.33 9.11,-12.44 10.05,-20.38 5.82,-1.95 10.05,-7.39 10.05,-13.86 0,-6.26 -3.97,-11.58 -9.51,-13.68 0.85,-6.68 3.83,-12.85 8.67,-17.68l1.78 -1.78zm-0.94 140.73l0 9.78c0,2.7 -2.19,4.89 -4.89,4.89l-78.25 0c-2.7,0 -4.89,-2.19 -4.89,-4.89l0 -9.78c0,-2.7 2.19,-4.89 4.89,-4.89l4.89 0 0 9.78 9.79 0 0 -9.78 9.78 0 0 9.78 9.78 0 0 -9.78 9.78 0 0 9.78 9.78 0 0 -9.78 4.89 0 4.89 0 0 9.78 9.78 0 0 -9.78 4.89 0c2.7,0 4.89,2.19 4.89,4.89l0 0zm-19.56 -29.34l0 9.78c0,2.7 -2.19,4.89 -4.89,4.89l-58.69 0 -19.56 0c-2.7,0 -4.89,-2.19 -4.89,-4.89l0 -9.78c0,-2.7 2.19,-4.89 4.89,-4.89l4.89 0 0 9.78 9.78 0 0 -9.78 4.89 0 4.89 0 0 9.78 9.79 0 0 -9.78 9.78 0 0 9.78 9.78 0 0 -9.78 9.78 0 0 9.78 9.78 0 0 -9.78 4.89 0c2.7,0 4.89,2.19 4.89,4.89l0 0zm19.56 -29.34l0 9.78c0,2.7 -2.19,4.89 -4.89,4.89l-19.56 0 -58.69 0c-2.7,0 -4.89,-2.19 -4.89,-4.89l0 -9.78c0,-2.7 2.19,-4.89 4.89,-4.89l4.89 0 0 9.78 9.79 0 0 -9.78 9.78 0 0 9.78 9.78 0 0 -9.78 9.78 0 0 9.78 9.78 0 0 -9.78 9.78 0 0 9.78 9.78 0 0 -9.78 4.89 0c2.7,0 4.89,2.19 4.89,4.89l0 0zm-67.97 -34.24l47.92 0c-2.28,11.15 -12.15,19.57 -23.96,19.57 -11.81,0 -21.69,-8.42 -23.96,-19.57l0 0zm53.3 -9.78l-58.68 0c-2.7,0 -4.9,-2.19 -4.9,-4.89 0,-2.7 2.2,-4.89 4.9,-4.89l58.68 0c2.7,0 4.89,2.19 4.89,4.89 0,2.7 -2.19,4.89 -4.89,4.89l0 0zm6.91 -43.17c-6.44,6.45 -10.4,14.7 -11.47,23.61l-49.56 0c-1.07,-8.91 -5.03,-17.16 -11.48,-23.61l-1.78 -1.78c-10.16,-10.17 -15.76,-23.67 -15.76,-38.18 0,-29.66 24.14,-53.8 53.8,-53.8 29.66,0 53.79,24.14 53.79,53.94 0,14.37 -5.6,27.87 -15.76,38.04l-1.78 1.78z" data-original="#000000"/>
     <polygon class="fil0" points="224.96,0 234.74,0 234.74,19.56 224.96,19.56 " data-original="#000000"/>
     <polygon class="fil0" points="157.9,27.93 164.82,21.01 179.49,35.68 172.57,42.6 " data-original="#000000"/>
     <polygon class="fil0" points="280.15,35.69 294.82,21.02 301.74,27.94 287.07,42.61 " data-original="#000000"/>
     <path class="fil0" d="M234.74 64.15l0 -10.36 -9.78 0 0 10.36c-8.39,2.01 -14.67,9.52 -14.67,18.53 0,8.23 5.24,15.51 13.06,18.12l9.9 3.3c3.82,1.27 6.38,4.82 6.38,8.84 0,5.14 -4.18,9.32 -9.32,9.32l-0.92 0c-5.15,0 -9.32,-4.18 -9.32,-9.32l0 -10.24 -9.78 0 0 10.24c0,9 6.28,16.52 14.67,18.53l0 10.35 9.78 0 0 -10.35c8.39,-2.01 14.67,-9.53 14.67,-18.53 0,-8.24 -5.25,-15.51 -13.06,-18.12l-9.91 -3.31c-3.82,-1.26 -6.37,-4.82 -6.37,-8.83 0,-5.14 4.17,-9.32 9.31,-9.32l0.93 0c5.14,0 9.32,4.18 9.32,9.32l0 5.35 9.78 0 0 -5.35c0,-9.01 -6.28,-16.53 -14.67,-18.53z" data-original="#000000"/>
     <path class="fil0" d="M127.15 19.56l-9.78 0 0 97.81 11.65 0 -18.73 37.45c-1.03,2.06 -4.37,2.06 -5.4,0l-18.73 -37.45 11.65 0 0 -68.47 -9.78 0 0 58.69 -17.7 0 25.8 51.61c2.19,4.36 6.58,7.07 11.46,7.07 4.87,0 9.27,-2.71 11.45,-7.07l25.8 -51.61 -17.69 0 0 -88.03z" data-original="#000000"/>
     <polygon class="fil0" points="88.03,29.34 97.81,29.34 97.81,39.12 88.03,39.12 " data-original="#000000"/>
     <polygon class="fil0" points="48.9,9.78 58.68,9.78 58.68,19.56 48.9,19.56 " data-original="#000000"/>
     <path class="fil0" d="M39.12 136.93c4.88,0 9.27,-2.71 11.46,-7.08l25.8 -51.6 -17.7 0 0 -48.91 -9.78 0 0 58.69 11.65 0 -18.72 37.45c-1.03,2.07 -4.38,2.06 -5.41,0l-18.73 -37.45 11.65 0 0 -88.03 -9.78 0 0 78.25 -17.69 0 25.8 51.6c2.19,4.37 6.57,7.08 11.45,7.08l0 0z" data-original="#000000"/>
    </g>
   </g>
  </g>
 </g>
</svg>
