<?xml version="1.0" encoding="UTF-8"?>
<!DOCTYPE svg PUBLIC "-//W3C//DTD SVG 1.1//EN" "http://www.w3.org/Graphics/SVG/1.1/DTD/svg11.dtd">
<!-- Creator: CorelDRAW -->
<svg xmlns="http://www.w3.org/2000/svg" xml:space="preserve" width="1500px" height="1500px" version="1.1" style="shape-rendering:geometricPrecision; text-rendering:geometricPrecision; image-rendering:optimizeQuality; fill-rule:evenodd; clip-rule:evenodd"
viewBox="0 0 274.53 274.53"
 xmlns:xlink="http://www.w3.org/1999/xlink"
 xmlns:xodm="http://www.corel.com/coreldraw/odm/2003"
 xmlns:svgjs="http://svgjs.com/svgjs">
 <defs>
  <style type="text/css">
   <![CDATA[
    .fil0 {fill:#54C4D8;fill-rule:nonzero}
   ]]>
  </style>
 </defs>
 <g id="Layer_x0020_1">
  <metadata id="CorelCorpID_0Corel-Layer"/>
  <g id="_1898993631984">
   <g>
    <g>
     <path class="fil0" d="M260.81 114.39c7.56,0 13.72,-6.16 13.72,-13.73 0,-7.57 -6.16,-13.72 -13.72,-13.72 -5.96,0 -10.99,3.83 -12.89,9.15l-18.89 0c-4.68,-10.37 -11.1,-19.94 -19.03,-28.26l7.16 -8.35 12.46 0c1.89,5.31 6.93,9.15 12.88,9.15 7.57,0 13.73,-6.16 13.73,-13.72 0,-7.57 -6.16,-13.73 -13.73,-13.73 -5.95,0 -10.99,3.84 -12.88,9.15l-14.57 0c-1.34,0 -2.6,0.58 -3.48,1.6l-8.2 9.58c-2.47,-2.16 -5.02,-4.23 -7.72,-6.16 -2.05,-1.47 -4.91,-0.99 -6.38,1.06 -1.47,2.06 -1,4.92 1.06,6.38 24.07,17.21 38.45,45.05 38.45,74.48 0,29.53 -14.38,57.38 -38.44,74.51 -2.06,1.46 -2.54,4.32 -1.07,6.38 0.89,1.26 2.3,1.92 3.73,1.92 0.92,0 1.84,-0.27 2.65,-0.84 2.71,-1.93 5.28,-4.01 7.76,-6.18l8.17 9.54c0.87,1.02 2.13,1.6 3.47,1.6l14.57 0c1.89,5.31 6.93,9.15 12.88,9.15 7.57,0 13.73,-6.16 13.73,-13.72 0,-7.57 -6.16,-13.73 -13.73,-13.73 -5.95,0 -10.99,3.84 -12.88,9.15l-12.46 0 -7.12 -8.31c7.93,-8.32 14.37,-17.9 19.03,-28.29l18.85 0c1.9,5.31 6.93,9.15 12.89,9.15 7.56,0 13.72,-6.16 13.72,-13.73 0,-7.57 -6.16,-13.73 -13.72,-13.73 -5.96,0 -10.99,3.84 -12.89,9.15l-15.29 0c3.44,-10.2 5.3,-21 5.3,-32.02 0,-11.02 -1.87,-21.82 -5.33,-32.03l15.33 0c1.89,5.31 6.92,9.15 12.88,9.15l0 0zm-18.31 -64.06c2.53,0 4.58,2.06 4.58,4.58 0,2.52 -2.05,4.57 -4.58,4.57 -2.52,0 -4.57,-2.05 -4.57,-4.57 0,-2.52 2.05,-4.58 4.57,-4.58zm0 164.72c2.53,0 4.58,2.05 4.58,4.58 0,2.52 -2.05,4.57 -4.58,4.57 -2.52,0 -4.57,-2.05 -4.57,-4.57 0,-2.53 2.05,-4.58 4.57,-4.58zm18.31 -45.76c2.52,0 4.57,2.06 4.57,4.58 0,2.52 -2.05,4.58 -4.57,4.58 -2.53,0 -4.58,-2.06 -4.58,-4.58 0,-2.52 2.05,-4.58 4.58,-4.58zm0 -73.2c2.52,0 4.57,2.05 4.57,4.57 0,2.52 -2.05,4.58 -4.57,4.58 -2.53,0 -4.58,-2.06 -4.58,-4.58 0,-2.52 2.05,-4.57 4.58,-4.57z" data-original="#000000"/>
     <path class="fil0" d="M260.81 247.08c-5.96,0 -10.99,3.84 -12.89,9.15l-58.04 0 -18.28 -24.35c2.51,-0.91 5,-1.9 7.46,-3.01 2.3,-1.05 3.32,-3.76 2.27,-6.06 -1.05,-2.3 -3.75,-3.32 -6.06,-2.27 -12.02,5.46 -24.8,8.24 -38,8.24 -50.46,0 -91.51,-41.06 -91.51,-91.51 0,-50.46 41.05,-91.51 91.51,-91.51 13.18,0 25.94,2.8 37.94,8.31 2.29,1.07 5.02,0.05 6.06,-2.24 1.06,-2.29 0.06,-5.01 -2.24,-6.07 -2.46,-1.13 -4.96,-2.12 -7.48,-3.05l18.33 -24.41 58.04 0c1.9,5.31 6.93,9.15 12.89,9.15 7.56,0 13.72,-6.16 13.72,-13.72 0,-7.57 -6.16,-13.73 -13.72,-13.73 -5.96,0 -10.99,3.84 -12.89,9.15l-60.32 0c-1.44,0 -2.79,0.68 -3.66,1.83l-21.65 28.83c-8.14,-2.11 -16.5,-3.21 -25.02,-3.21 -8.65,0 -17.04,1.1 -25.06,3.16l-21.61 -28.78c-0.87,-1.15 -2.23,-1.83 -3.66,-1.83l-60.33 0c-1.89,-5.31 -6.93,-9.15 -12.88,-9.15 -7.57,0 -13.73,6.16 -13.73,13.73 0,7.56 6.16,13.72 13.73,13.72 5.95,0 10.99,-3.84 12.88,-9.15l58.04 0 18.28 24.34c-11.79,4.29 -22.53,10.73 -31.8,18.83l-8.18 -9.54c-0.86,-1.02 -2.13,-1.6 -3.47,-1.6l-14.57 0c-1.89,-5.31 -6.92,-9.15 -12.88,-9.15 -7.57,0 -13.73,6.16 -13.73,13.73 0,7.56 6.16,13.72 13.73,13.72 5.96,0 10.99,-3.84 12.88,-9.15l12.47 0 7.13 8.33c-7.86,8.23 -14.33,17.77 -19.06,28.28l-18.84 0c-1.89,-5.32 -6.93,-9.15 -12.88,-9.15 -7.57,0 -13.73,6.15 -13.73,13.72 0,7.57 6.16,13.73 13.73,13.73 5.95,0 10.99,-3.84 12.88,-9.15l15.25 0c-3.39,10.07 -5.26,20.83 -5.26,32.03 0,11.19 1.87,21.95 5.26,32.02l-15.25 0c-1.89,-5.31 -6.93,-9.15 -12.88,-9.15 -7.57,0 -13.73,6.16 -13.73,13.73 0,7.57 6.16,13.73 13.73,13.73 5.95,0 10.99,-3.84 12.88,-9.15l18.84 0c4.73,10.5 11.2,20.05 19.06,28.27l-7.13 8.33 -12.47 0c-1.89,-5.31 -6.92,-9.15 -12.88,-9.15 -7.57,0 -13.73,6.16 -13.73,13.73 0,7.56 6.16,13.72 13.73,13.72 5.96,0 10.99,-3.84 12.88,-9.15l14.57 0c1.34,0 2.61,-0.58 3.48,-1.6l8.17 -9.54c9.27,8.09 20.01,14.54 31.8,18.83l-18.28 24.34 -58.04 0c-1.89,-5.31 -6.93,-9.15 -12.88,-9.15 -7.57,0 -13.73,6.16 -13.73,13.73 0,7.56 6.16,13.72 13.73,13.72 5.95,0 10.99,-3.84 12.88,-9.15l60.33 0c1.43,0 2.79,-0.68 3.66,-1.82l21.62 -28.79c8.01,2.06 16.4,3.16 25.05,3.16 8.53,0 16.9,-1.09 25.04,-3.17l21.63 28.8c0.87,1.14 2.22,1.82 3.66,1.82l60.32 0c1.9,5.31 6.93,9.15 12.89,9.15 7.56,0 13.72,-6.16 13.72,-13.72 0,-7.57 -6.16,-13.73 -13.72,-13.73zm0 -237.93c2.52,0 4.57,2.06 4.57,4.58 0,2.52 -2.05,4.57 -4.57,4.57 -2.53,0 -4.58,-2.05 -4.58,-4.57 0,-2.52 2.05,-4.58 4.58,-4.58zm-247.08 9.15c-2.52,0 -4.58,-2.05 -4.58,-4.57 0,-2.52 2.06,-4.58 4.58,-4.58 2.52,0 4.57,2.06 4.57,4.58 0,2.52 -2.05,4.57 -4.57,4.57zm18.3 41.18c-2.52,0 -4.58,-2.05 -4.58,-4.57 0,-2.52 2.06,-4.58 4.58,-4.58 2.52,0 4.57,2.06 4.57,4.58 0,2.52 -2.05,4.57 -4.57,4.57zm-18.3 45.76c-2.52,0 -4.58,-2.06 -4.58,-4.58 0,-2.52 2.06,-4.57 4.58,-4.57 2.52,0 4.57,2.05 4.57,4.57 0,2.52 -2.05,4.58 -4.57,4.58zm0 73.21c-2.52,0 -4.58,-2.06 -4.58,-4.58 0,-2.52 2.06,-4.58 4.58,-4.58 2.52,0 4.57,2.06 4.57,4.58 0,2.52 -2.05,4.58 -4.57,4.58zm18.3 45.75c-2.52,0 -4.58,-2.05 -4.58,-4.57 0,-2.53 2.06,-4.58 4.58,-4.58 2.52,0 4.57,2.05 4.57,4.58 0,2.52 -2.05,4.57 -4.57,4.57zm-18.3 41.18c-2.52,0 -4.58,-2.05 -4.58,-4.57 0,-2.53 2.06,-4.58 4.58,-4.58 2.52,0 4.57,2.05 4.57,4.58 0,2.52 -2.05,4.57 -4.57,4.57zm247.08 0c-2.53,0 -4.58,-2.05 -4.58,-4.57 0,-2.53 2.05,-4.58 4.58,-4.58 2.52,0 4.57,2.05 4.57,4.58 0,2.52 -2.05,4.57 -4.57,4.57z" data-original="#000000"/>
     <circle class="fil0" cx="77.78" cy="137.27" r="4.58" data-original="#000000"/>
     <circle class="fil0" cx="196.75" cy="137.27" r="4.58" data-original="#000000"/>
     <path class="fil0" d="M85.57 195.48c-1.57,1.99 -1.23,4.86 0.76,6.43 14.69,11.59 32.3,17.72 50.94,17.72 45.41,0 82.36,-36.95 82.36,-82.36 0,-45.42 -36.95,-82.36 -82.36,-82.36 -45.42,0 -82.36,36.94 -82.36,82.36 0,18.63 6.12,36.24 17.72,50.94 1.57,1.99 4.45,2.32 6.43,0.76 1.98,-1.57 2.32,-4.45 0.76,-6.43 -10.32,-13.06 -15.76,-28.72 -15.76,-45.27 0,-40.37 32.84,-73.21 73.21,-73.21 40.36,0 73.21,32.84 73.21,73.21 0,40.36 -32.85,73.21 -73.21,73.21 -16.56,0 -32.22,-5.45 -45.27,-15.76 -1.99,-1.56 -4.87,-1.22 -6.43,0.76l0 0z" data-original="#000000"/>
     <path class="fil0" d="M95.03 114.51c-2.06,0.49 -3.52,2.33 -3.52,4.45l0 36.61c0,2.52 2.05,4.57 4.58,4.57 2.52,0 4.57,-2.05 4.57,-4.57l0 -17.22 9.63 19.26c0.8,1.58 2.39,2.53 4.1,2.53 0.35,0 0.7,-0.04 1.05,-0.12 2.06,-0.48 3.52,-2.33 3.52,-4.45l0 -36.61c0,-2.52 -2.05,-4.57 -4.57,-4.57 -2.53,0 -4.58,2.05 -4.58,4.57l0 17.23 -9.63 -19.27c-0.95,-1.9 -3.06,-2.89 -5.15,-2.41l0 0z" data-original="#000000"/>
     <path class="fil0" d="M150.99 123.54c2.53,0 4.58,-2.05 4.58,-4.58 0,-2.52 -2.05,-4.57 -4.58,-4.57l-18.3 0c-2.53,0 -4.58,2.05 -4.58,4.57l0 36.61c0,2.52 2.05,4.57 4.58,4.57 2.53,0 4.58,-2.05 4.58,-4.57l0 -13.73 9.15 0c2.53,0 4.57,-2.05 4.57,-4.57 0,-2.53 -2.04,-4.58 -4.57,-4.58l-9.15 0 0 -9.15 13.72 0z" data-original="#000000"/>
     <path class="fil0" d="M187.6 114.39l-18.31 0c-2.53,0 -4.57,2.05 -4.57,4.57 0,2.53 2.04,4.58 4.57,4.58l4.58 0 0 32.03c0,2.52 2.05,4.57 4.58,4.57 2.53,0 4.57,-2.05 4.57,-4.57l0 -32.03 4.58 0c2.53,0 4.57,-2.05 4.57,-4.58 0,-2.52 -2.04,-4.57 -4.57,-4.57l0 0z" data-original="#000000"/>
     <path class="fil0" d="M139.81 78.55c-1.54,-1.02 -3.54,-1.02 -5.08,0l-27.45 18.3c-2.1,1.41 -2.67,4.25 -1.27,6.35 1.4,2.1 4.24,2.67 6.35,1.27l24.91 -16.61 24.91 16.61c0.78,0.52 1.67,0.77 2.53,0.77 1.48,0 2.94,-0.72 3.82,-2.04 1.4,-2.1 0.83,-4.94 -1.27,-6.35l-27.45 -18.3z" data-original="#000000"/>
     <path class="fil0" d="M106.01 171.33c-1.4,2.1 -0.84,4.95 1.26,6.35l27.46 18.3c0.77,0.51 1.65,0.77 2.54,0.77 0.88,0 1.77,-0.26 2.54,-0.77l27.45 -18.3c2.1,-1.4 2.67,-4.24 1.27,-6.35 -1.4,-2.1 -4.25,-2.68 -6.35,-1.27l-24.91 16.61 -24.92 -16.61c-2.11,-1.41 -4.94,-0.83 -6.34,1.27z" data-original="#000000"/>
    </g>
   </g>
  </g>
 </g>
</svg>
