<?xml version="1.0" encoding="UTF-8"?>
<!DOCTYPE svg PUBLIC "-//W3C//DTD SVG 1.1//EN" "http://www.w3.org/Graphics/SVG/1.1/DTD/svg11.dtd">
<!-- Creator: CorelDRAW -->
<svg xmlns="http://www.w3.org/2000/svg" xml:space="preserve" width="1600px" height="1600px" version="1.1" style="shape-rendering:geometricPrecision; text-rendering:geometricPrecision; image-rendering:optimizeQuality; fill-rule:evenodd; clip-rule:evenodd"
viewBox="0 0 343.5 343.5"
 xmlns:xlink="http://www.w3.org/1999/xlink"
 xmlns:xodm="http://www.corel.com/coreldraw/odm/2003"
 xmlns:svgjs="http://svgjs.com/svgjs">
 <defs>
  <style type="text/css">
   <![CDATA[
    .fil0 {fill:#54C4D8;fill-rule:nonzero}
   ]]>
  </style>
 </defs>
 <g id="Layer_x0020_1">
  <metadata id="CorelCorpID_0Corel-Layer"/>
  <g id="_1901813721072">
   <g>
    <path class="fil0" d="M341.29 327.85c-0.06,-0.11 -0.13,-0.21 -0.2,-0.32l-57.58 -87.81c15.77,-28.14 26.32,-59.25 31.35,-92.55 5.43,-35.93 4.09,-72.43 -3.97,-108.46 -0.43,-1.93 -1.68,-3.57 -3.43,-4.5 -40.61,-21.51 -93.3,-33.66 -148.36,-34.19 -56.84,-0.57 -109.67,11.64 -148.73,34.32 -1.63,0.95 -2.8,2.53 -3.21,4.37 -13.46,60.23 -7.82,123.37 15.88,177.79 22.48,51.62 59.62,92.06 105.07,114.68 -0.76,2.18 -1.14,4.98 0.46,7.75 2.63,4.57 8.04,4.57 10.08,4.57l193.66 -0.1c2.04,0 7.44,0 10.07,-4.55 2.63,-4.55 -0.08,-9.23 -1.09,-11l0 0zm-321.57 -283.29c74.12,-41.4 197.57,-41.33 278.65,0.15 13.3,62.71 4.83,128.29 -23.28,182.17l-14.47 -22.07c2.07,-4.57 4,-9.23 5.76,-13.91 14.86,-39.63 19.16,-83.55 12.46,-127 -0.36,-2.31 -1.88,-4.27 -4.03,-5.19 -33.1,-14.07 -74.27,-22.07 -115.94,-22.5 -42.95,-0.46 -84.04,7.32 -115.68,21.85 -2.05,0.95 -3.5,2.86 -3.86,5.09 -6.24,39.68 -3.24,80.19 8.67,117.16 1.15,3.56 4.95,5.51 8.51,4.37 3.55,-1.15 5.5,-4.96 4.36,-8.51 -10.91,-33.85 -13.91,-70.87 -8.73,-107.31 59.9,-26.03 148.48,-25.69 213.89,0.84 5.55,39.94 1.31,80.12 -12.3,116.45 -0.64,1.7 -1.31,3.41 -2,5.1l-7.37 -11.24c-1.08,-1.86 -3.76,-6.22 -8.84,-6.23 -0.01,0 -0.01,0 -0.01,0 -5.1,0 -7.82,4.43 -8.91,6.3l-71.44 108.96c-5.97,-2.7 -11.8,-5.81 -17.4,-9.28 -19.34,-12.04 -36.22,-28.45 -50.19,-48.76 -2.11,-3.08 -6.32,-3.86 -9.39,-1.74 -3.08,2.11 -3.86,6.31 -1.74,9.39 15.02,21.86 33.25,39.55 54.19,52.58 5.49,3.42 11.2,6.5 17.04,9.23l-12.53 19.12c-90.5,-44.32 -139.66,-160.95 -115.42,-275.02l0 0zm124.76 285.42l91.02 -138.83 34.3 52.3c0.06,0.1 0.12,0.2 0.19,0.29l56.49 86.15 -182 0.09zm0 0z" data-original="#000000"/>
    <path class="fil0" d="M235.48 233.69c-3.74,0 -6.76,3.02 -6.76,6.75l0 44.34c0,3.74 3.02,6.76 6.76,6.76 3.73,0 6.75,-3.02 6.75,-6.76l0 -44.34c0,-3.73 -3.02,-6.75 -6.75,-6.75zm0 0z" data-original="#000000"/>
    <path class="fil0" d="M235.48 302.83c-3.74,0 -6.76,3.03 -6.76,6.76l0 0.35c0,3.73 3.02,6.75 6.76,6.75 3.73,0 6.75,-3.02 6.75,-6.75l0 -0.35c0,-3.73 -3.02,-6.76 -6.75,-6.76zm0 0z" data-original="#000000"/>
    <path class="fil0" d="M71.96 204.01c-1.67,-3.34 -5.73,-4.68 -9.07,-3 -3.33,1.67 -4.68,5.73 -3,9.07l0.06 0.11c1.19,2.36 3.57,3.73 6.04,3.73 1.02,0 2.06,-0.24 3.03,-0.73 3.33,-1.67 4.68,-5.73 3,-9.07l-0.06 -0.11zm0 0z" data-original="#000000"/>
   </g>
  </g>
 </g>
</svg>
