<?xml version="1.0" encoding="UTF-8"?>
<!DOCTYPE svg PUBLIC "-//W3C//DTD SVG 1.1//EN" "http://www.w3.org/Graphics/SVG/1.1/DTD/svg11.dtd">
<!-- Creator: CorelDRAW -->
<svg xmlns="http://www.w3.org/2000/svg" xml:space="preserve" width="1600px" height="1600px" version="1.1" style="shape-rendering:geometricPrecision; text-rendering:geometricPrecision; image-rendering:optimizeQuality; fill-rule:evenodd; clip-rule:evenodd"
viewBox="0 0 202.73 202.73"
 xmlns:xlink="http://www.w3.org/1999/xlink"
 xmlns:xodm="http://www.corel.com/coreldraw/odm/2003"
 xmlns:svgjs="http://svgjs.com/svgjs">
 <defs>
  <style type="text/css">
   <![CDATA[
    .fil0 {fill:#54C4D8}
   ]]>
  </style>
 </defs>
 <g id="Layer_x0020_1">
  <metadata id="CorelCorpID_0Corel-Layer"/>
  <g id="_1899226215760">
   <g>
    <path class="fil0" d="M136.56 68.29l18.26 18.27 -8.68 8.68 -16.45 -16.45 -43.47 0.68 0 12.08 -33.97 -19.61 33.97 -19.61 0 14.91 45.9 -0.73c0.03,0 0.07,0 0.1,0 1.62,0 3.18,0.65 4.32,1.8l0.02 -0.02zm-20.05 54.97l-43.46 0.69 -16.45 -16.46 -8.69 8.69 18.26 18.26 0.02 -0.01c1.15,1.14 2.71,1.79 4.33,1.79 0.03,0 0.06,0 0.1,0l45.89 -0.72 0 14.91 33.98 -19.61 -33.98 -19.61 0 12.07zm56.53 -93.57c19,18.99 29.69,44.8 29.69,71.68 0,55.97 -45.39,101.36 -101.36,101.36 -55.98,0 -101.37,-45.39 -101.37,-101.36 0,-55.98 45.39,-101.37 101.37,-101.37 0,0 0,0 0,0 0.03,0 0.09,0 0.13,0 26.84,0 52.59,10.7 71.54,29.69l0 0zm17.02 71.68c0,-48.98 -39.72,-88.7 -88.69,-88.7 -48.98,0 -88.7,39.72 -88.7,88.7 0,48.98 39.72,88.7 88.7,88.7 23.51,0 46.09,-9.36 62.71,-25.98 16.62,-16.59 25.98,-39.12 25.98,-62.61 0,-0.03 0,-0.08 0,-0.12l0 0.01z" data-original="#000000"/>
   </g>
  </g>
 </g>
</svg>
