<?xml version="1.0" encoding="UTF-8"?>
<!DOCTYPE svg PUBLIC "-//W3C//DTD SVG 1.1//EN" "http://www.w3.org/Graphics/SVG/1.1/DTD/svg11.dtd">
<!-- Creator: CorelDRAW -->
<svg xmlns="http://www.w3.org/2000/svg" xml:space="preserve" width="1418px" height="1473px" version="1.1" style="shape-rendering:geometricPrecision; text-rendering:geometricPrecision; image-rendering:optimizeQuality; fill-rule:evenodd; clip-rule:evenodd"
viewBox="0 0 598.2 621.65"
 xmlns:xlink="http://www.w3.org/1999/xlink"
 xmlns:xodm="http://www.corel.com/coreldraw/odm/2003"
 xmlns:svgjs="http://svgjs.com/svgjs">
 <defs>
  <style type="text/css">
   <![CDATA[
    .fil0 {fill:#54C4D8;fill-rule:nonzero}
   ]]>
  </style>
 </defs>
 <g id="Layer_x0020_1">
  <metadata id="CorelCorpID_0Corel-Layer"/>
  <g id="_1898622030064">
   <g>
    <g id="layer1">
     <path id="circle2847" class="fil0" d="M284.89 0c-98.22,0 -178.57,80.4 -178.57,178.62 0,60.06 30.13,113.24 75.93,145.6 -106.62,42.74 -182.24,147.02 -182.24,268.66 -0.85,38.35 57.11,38.35 56.26,0 0,-129.12 104.11,-233.17 233.23,-233.17 45.07,0 86.91,12.85 122.52,34.89 32.02,19.63 61.47,-28.39 29.45,-48.02 -16.03,-9.92 -33.4,-17.66 -51.31,-24.34 44.21,-32.52 73.12,-84.76 73.12,-143.62 0,-98.22 -80.17,-178.62 -178.39,-178.62zm0 56.32c67.81,0 122.13,54.48 122.13,122.3 0,67.81 -54.32,122.08 -122.13,122.08 -67.82,0 -122.31,-54.27 -122.31,-122.08 0,-67.82 54.49,-122.3 122.31,-122.3zm172.57 478.66l0 56.26c0.82,36.68 55.45,36.68 56.26,0l0 -56.26 56.32 0c37.54,0 37.54,-56.32 0,-56.32l-56.32 0 0 -56.26c0.19,-15.77 -12.63,-28.62 -28.4,-28.46 -15.56,0.1 -28.04,12.9 -27.86,28.46l0 56.26 -57.61 0c-38.89,1.8 -36.19,58.11 1.35,56.32l56.26 0z" font-variant-ligatures="normal" font-variant-position="normal" font-variant-caps="normal" font-variant-numeric="normal" font-variant-alternates="normal" font-feature-settings="normal" text-indent="0" text-decoration-line="none" text-decoration-style="solid" text-decoration-color="rgb(0,0,0)" text-transform="none" text-orientation="mixed" white-space="normal" shape-padding="0" isolation="auto" mix-blend-mode="normal" solid-color="rgb(0,0,0)" solid-opacity="1" vector-effect="none" paint-order="stroke fill markers" data-original="#000000"/>
    </g>
   </g>
  </g>
 </g>
</svg>
