<?xml version="1.0" encoding="UTF-8"?>
<!DOCTYPE svg PUBLIC "-//W3C//DTD SVG 1.1//EN" "http://www.w3.org/Graphics/SVG/1.1/DTD/svg11.dtd">
<!-- Creator: CorelDRAW -->
<svg xmlns="http://www.w3.org/2000/svg" xml:space="preserve" width="1513px" height="1600px" version="1.1" style="shape-rendering:geometricPrecision; text-rendering:geometricPrecision; image-rendering:optimizeQuality; fill-rule:evenodd; clip-rule:evenodd"
viewBox="0 0 343.07 362.91"
 xmlns:xlink="http://www.w3.org/1999/xlink"
 xmlns:xodm="http://www.corel.com/coreldraw/odm/2003"
 xmlns:svgjs="http://svgjs.com/svgjs">
 <defs>
  <style type="text/css">
   <![CDATA[
    .fil0 {fill:#54C4D8;fill-rule:nonzero}
   ]]>
  </style>
 </defs>
 <g id="Layer_x0020_1">
  <metadata id="CorelCorpID_0Corel-Layer"/>
  <g id="_1901811700000">
   <g>
    <path class="fil0" d="M134.15 330.33c3.94,0 7.14,-3.2 7.14,-7.14 0,-3.95 -3.2,-7.14 -7.14,-7.14l-35.29 0c-3.95,0 -7.14,3.19 -7.14,7.14 0,3.94 3.19,7.14 7.14,7.14l35.29 0z" data-original="#000000"/>
    <path class="fil0" d="M343.01 239.05c-0.62,-13.19 -6.43,-25.92 -16.34,-35.85l-2.85 -2.85c-2.79,-2.79 -7.31,-2.79 -10.1,0 -2.79,2.79 -2.79,7.31 0,10.09l2.85 2.85c15.04,15.06 16.44,37.24 3.19,50.5l-40.07 40.1c-3.68,3.68 -12.74,6.72 -24.68,5.21l-93.03 -11.65c-9.51,-1.19 -14.07,-8.98 -13.53,-15.7 0.23,-2.8 1.76,-9.25 11.01,-8.93l25.34 0.9c7.16,0.26 16.07,0.57 18.91,-6.13 2.26,-5.35 -1.68,-10 -2.97,-11.52 -1.78,-2.1 -4.23,-4.45 -7.33,-7.43 -1.83,-1.77 -3.92,-3.77 -6.12,-5.97l-72.65 -72.7c-2.26,-2.26 -3.37,-4.65 -3.29,-7.11 0.06,-2.08 1.02,-4.2 2.64,-5.82 1.61,-1.61 3.73,-2.57 5.81,-2.63 2.46,-0.08 4.84,1.03 7.09,3.29l72 72.04c2.78,2.78 7.3,2.79 10.09,0 2.79,-2.79 2.79,-7.31 0,-10.1l-27.67 -27.69c-0.1,-0.12 -0.21,-0.23 -0.32,-0.34 -2.26,-2.25 -3.36,-4.64 -3.29,-7.09 0.07,-2.08 1.03,-4.2 2.64,-5.81 1.62,-1.62 3.74,-2.58 5.82,-2.65 2.44,-0.08 4.83,1.03 7.09,3.28l8.97 8.98c0.17,0.19 0.36,0.37 0.54,0.56 0.09,0.09 0.17,0.17 0.26,0.25l18.22 18.24c2.78,2.79 7.3,2.79 10.09,0 2.79,-2.78 2.79,-7.3 0.01,-10.09l-18.87 -18.9c-2,-2.14 -2.98,-4.39 -2.91,-6.7 0.07,-2.09 1.03,-4.21 2.65,-5.82 1.61,-1.62 3.73,-2.58 5.81,-2.64 1.5,-0.05 2.98,0.36 4.43,1.2 0.01,0.01 0.02,0.02 0.04,0.02 0.89,0.53 1.76,1.21 2.62,2.07l9.45 9.45c0.02,0.02 0.04,0.05 0.06,0.07 0.01,0.01 0.02,0.02 0.03,0.03l8.94 8.94c2.79,2.79 7.31,2.79 10.1,0.01 2.79,-2.79 2.79,-7.31 0,-10.1l-9.01 -9.01c-6.31,-6.36 -1.59,-11.72 -0.58,-12.73 2.86,-2.85 7.95,-4.44 12.87,0.49l11.8 11.81c2.79,2.79 7.31,2.79 10.1,0 2.79,-2.79 2.79,-7.31 0,-10.09l-11.8 -11.81c-10.89,-10.9 -25.16,-8.39 -33.06,-0.5 -0.35,0.35 -0.68,0.71 -1,1.08l0 -35.48c20.88,-8.3 35.69,-28.63 35.69,-52.35 0,-31.05 -25.39,-56.32 -56.6,-56.32 -1.36,0 -2.71,0.07 -4.05,0.16l-170.17 0c-20.89,0 -37.88,17 -37.88,37.9l0 286.95c0,20.9 16.99,37.9 37.88,37.9l27.07 0c3.94,0 7.13,-3.2 7.13,-7.14 0,-3.94 -3.19,-7.14 -7.13,-7.14l-27.07 0c-13.02,0 -23.6,-10.59 -23.6,-23.62l0 -27.27 124 0c4.17,7.01 11.5,12.57 21.93,13.88l58.52 7.32 0 6.07c0,13.03 -10.59,23.62 -23.6,23.62l-66.6 0c-3.94,0 -7.14,3.2 -7.14,7.14 0,3.94 3.2,7.14 7.14,7.14l66.6 0c20.88,0 37.88,-17 37.88,-37.89l0 -4.29 20.21 2.53c2.66,0.34 5.28,0.5 7.85,0.5 11.87,0 22.45,-3.52 28.72,-9.78l40.07 -40.09c9.11,-9.13 13.78,-21.5 13.15,-34.84zm-88.59 -182.72c0,23.19 -18.98,42.07 -42.32,42.07 -23.34,0 -42.32,-18.88 -42.32,-42.07 0,-23.19 18.98,-42.05 42.32,-42.05 23.34,0 42.32,18.86 42.32,42.05zm-240.14 227.13l0 -245.4c0,-13.03 10.58,-23.62 23.6,-23.62l136.43 0c-11.53,10.32 -18.81,25.27 -18.81,41.89 0,31.07 25.39,56.34 56.6,56.34 2.25,0 4.45,-0.14 6.63,-0.4l0 36.68c-0.4,-0.01 -0.78,-0.01 -1.14,0 -5.76,0.18 -11.25,2.59 -15.47,6.81 -2.4,2.4 -4.3,5.32 -5.48,8.53 -4.12,-2.12 -7.99,-2.59 -10.93,-2.5 -5.76,0.18 -11.25,2.61 -15.47,6.83 -2.14,2.14 -3.82,4.61 -4.97,7.28l-28.28 -28.29c-6.41,-6.42 -14.66,-8.87 -22.65,-6.73 -7.91,2.12 -14.39,8.6 -16.52,16.51 -2.14,7.99 0.31,16.26 6.72,22.68l72.66 72.69c2.3,2.31 4.43,4.36 6.32,6.17 0.16,0.16 0.33,0.32 0.5,0.48l-24.05 -0.86c-14.07,-0.5 -24.67,8.57 -25.75,22.05 -0.08,0.95 -0.1,1.9 -0.07,2.86l-119.87 0 0 0z" data-original="#000000"/>
    <path class="fil0" d="M77.59 130.74c1.4,1.39 3.23,2.09 5.05,2.09 1.83,0 3.65,-0.7 5.05,-2.09 2.79,-2.79 2.79,-7.31 0,-10.09l-15.09 -15.1c-2.78,-2.79 -7.3,-2.79 -10.09,-0.01 -2.79,2.79 -2.79,7.31 -0.01,10.1l15.09 15.1z" data-original="#000000"/>
    <path class="fil0" d="M110.95 121.49c3.95,0 7.14,-3.2 7.14,-7.14l0 -21.36c0,-3.95 -3.19,-7.14 -7.14,-7.14 -3.94,0 -7.13,3.19 -7.13,7.14l0 21.36c0,3.94 3.19,7.14 7.13,7.14z" data-original="#000000"/>
    <path class="fil0" d="M78.44 154.02c0,-3.94 -3.19,-7.14 -7.13,-7.14l-21.33 0c-3.95,0 -7.14,3.2 -7.14,7.14 0,3.94 3.19,7.14 7.14,7.14l21.33 0c3.94,0 7.13,-3.2 7.13,-7.14l0 0z" data-original="#000000"/>
    <path class="fil0" d="M78.24 176.66l-15.09 15.1c-2.79,2.79 -2.79,7.31 0,10.09 1.39,1.4 3.22,2.09 5.05,2.09 1.82,0 3.65,-0.69 5.04,-2.09l15.09 -15.1c2.79,-2.79 2.79,-7.31 0,-10.09 -2.79,-2.79 -7.31,-2.79 -10.09,0z" data-original="#000000"/>
    <path class="fil0" d="M138.62 133.47c1.83,0 3.66,-0.69 5.05,-2.09l15.11 -15.09c2.79,-2.79 2.79,-7.31 0,-10.1 -2.78,-2.79 -7.3,-2.79 -10.09,0l-15.11 15.09c-2.79,2.79 -2.79,7.31 0,10.1 1.39,1.39 3.22,2.09 5.04,2.09l0 0z" data-original="#000000"/>
    <path class="fil0" d="M196.92 48.92c-2.65,-2.92 -7.17,-3.14 -10.08,-0.49 -2.92,2.66 -3.14,7.17 -0.49,10.09l13.09 14.39c1.4,1.55 3.34,2.34 5.28,2.34 1.63,0 3.27,-0.56 4.61,-1.69l27.87 -23.55c3.01,-2.54 3.39,-7.04 0.84,-10.06 -2.54,-3.01 -7.05,-3.39 -10.06,-0.84l-22.61 19.1 -8.45 -9.29z" data-original="#000000"/>
    <path class="fil0" d="M290.76 187.43c1.41,1.76 3.49,2.68 5.58,2.68 1.56,0 3.14,-0.51 4.45,-1.56 3.08,-2.47 3.58,-6.96 1.12,-10.04l-0.08 -0.1c-2.46,-3.08 -6.95,-3.58 -10.03,-1.11 -3.08,2.46 -3.58,6.95 -1.12,10.03l0.08 0.1z" data-original="#000000"/>
    <path class="fil0" d="M96.81 348.63l-0.14 0c-3.94,0 -7.14,3.2 -7.14,7.14 0,3.94 3.2,7.14 7.14,7.14l0.14 0c3.94,0 7.14,-3.2 7.14,-7.14 0,-3.94 -3.2,-7.14 -7.14,-7.14l0 0z" data-original="#000000"/>
   </g>
  </g>
 </g>
</svg>
